font.ufo
<glyph name="four" format="1">
	<unicode hex="0034"/>
	<advance width="497"/>
	<outline>
		<contour>
			<point x="304" y="0" type="line"/>
			<point x="382" y="0" type="line"/>
			<point x="382" y="638" type="line"/>
			<point x="290" y="638" type="line"/>
			<point x="17" y="230" type="line"/>
			<point x="17" y="176" type="line"/>
			<point x="469" y="176" type="line"/>
			<point x="469" y="242" type="line"/>
			<point x="104" y="242" type="line"/>
			<point x="253" y="460" type="line"/>
			<point x="271" y="491"/>
			<point x="289" y="519"/>
			<point x="305" y="550" type="curve"/>
			<point x="309" y="550" type="line"/>
			<point x="307" y="516"/>
			<point x="304" y="461"/>
			<point x="304" y="427" type="curve" smooth="yes"/>
		</contour>
	</outline>
</glyph>
<glyph name="C" format="1">
	<unicode hex="0043"/>
	<advance width="571"/>
	<outline>
		<contour>
			<point x="338" y="-12" type="curve" smooth="yes"/>
			<point x="423" y="-12"/>
			<point x="487" y="23"/>
			<point x="539" y="83" type="curve"/>
			<point x="493" y="135" type="line"/>
			<point x="451" y="89"/>
			<point x="404" y="61"/>
			<point x="341" y="61" type="curve" smooth="yes"/>
			<point x="217" y="61"/>
			<point x="138" y="165"/>
			<point x="138" y="330" type="curve" smooth="yes"/>
			<point x="138" y="493"/>
			<point x="220" y="595"/>
			<point x="344" y="595" type="curve" smooth="yes"/>
			<point x="400" y="595"/>
			<point x="443" y="570"/>
			<point x="478" y="533" type="curve"/>
			<point x="523" y="587" type="line"/>
			<point x="485" y="630"/>
			<point x="423" y="668"/>
			<point x="343" y="668" type="curve" smooth="yes"/>
			<point x="176" y="668"/>
			<point x="52" y="539"/>
			<point x="52" y="328" type="curve" smooth="yes"/>
			<point x="52" y="114"/>
			<point x="174" y="-12"/>
		</contour>
		<contour>
			<point name="aboveUC" x="329" y="678" type="move"/>
		</contour>
		<contour>
			<point name="baseLC" x="343" y="0" type="move"/>
		</contour>
		<contour>
			<point name="belowLC" x="343" y="-22" type="move"/>
		</contour>
	</outline>
</glyph>
<glyph name="F" format="1">
	<unicode hex="0046"/>
	<advance width="494"/>
	<outline>
		<contour>
			<point x="90" y="0" type="line"/>
			<point x="173" y="0" type="line"/>
			<point x="173" y="294" type="line"/>
			<point x="423" y="294" type="line"/>
			<point x="423" y="364" type="line"/>
			<point x="173" y="364" type="line"/>
			<point x="173" y="586" type="line"/>
			<point x="468" y="586" type="line"/>
			<point x="468" y="656" type="line"/>
			<point x="90" y="656" type="line"/>
		</contour>
		<contour>
			<point name="aboveUC" x="286" y="678" type="move"/>
		</contour>
		<contour>
			<point name="belowLC" x="135" y="-22" type="move"/>
		</contour>
	</outline>
</glyph>
<glyph name="Y" format="1">
	<unicode hex="0059"/>
	<advance width="476"/>
	<outline>
		<contour>
			<point x="196" y="0" type="line"/>
			<point x="280" y="0" type="line"/>
			<point x="280" y="254" type="line"/>
			<point x="477" y="656" type="line"/>
			<point x="390" y="656" type="line"/>
			<point x="306" y="471" type="line"/>
			<point x="286" y="423"/>
			<point x="263" y="377"/>
			<point x="240" y="328" type="curve"/>
			<point x="236" y="328" type="line"/>
			<point x="214" y="377"/>
			<point x="194" y="423"/>
			<point x="173" y="471" type="curve"/>
			<point x="88" y="656" type="line"/>
			<point x="-1" y="656" type="line"/>
			<point x="196" y="254" type="line"/>
		</contour>
		<contour>
			<point name="aboveUC" x="238" y="678" type="move"/>
		</contour>
		<contour>
			<point name="belowLC" x="240" y="-22" type="move"/>
		</contour>
	</outline>
</glyph>
<glyph name="Z" format="1">
	<unicode hex="005A"/>
	<advance width="539"/>
	<outline>
		<contour>
			<point x="45" y="0" type="line"/>
			<point x="497" y="0" type="line"/>
			<point x="497" y="71" type="line"/>
			<point x="148" y="71" type="line"/>
			<point x="494" y="607" type="line"/>
			<point x="494" y="656" type="line"/>
			<point x="76" y="656" type="line"/>
			<point x="76" y="586" type="line"/>
			<point x="390" y="586" type="line"/>
			<point x="45" y="50" type="line"/>
		</contour>
		<contour>
			<point name="aboveUC" x="280" y="678" type="move"/>
		</contour>
		<contour>
			<point name="belowLC" x="282" y="-22" type="move"/>
		</contour>
	</outline>
</glyph>
<glyph name="asciicircum" format="1">
	<unicode hex="005E"/>
	<advance width="497"/>
	<outline>
		<contour>
			<point x="60" y="284" type="line"/>
			<point x="132" y="284" type="line"/>
			<point x="197" y="460" type="line"/>
			<point x="247" y="593" type="line"/>
			<point x="251" y="593" type="line"/>
			<point x="300" y="460" type="line"/>
			<point x="365" y="284" type="line"/>
			<point x="437" y="284" type="line"/>
			<point x="285" y="670" type="line"/>
			<point x="212" y="670" type="line"/>
		</contour>
	</outline>
</glyph>
<glyph name="w" format="1">
	<unicode hex="0077"/>
	<advance width="718"/>
	<outline>
		<contour>
			<point x="159" y="0" type="line"/>
			<point x="255" y="0" type="line"/>
			<point x="323" y="260" type="line"/>
			<point x="336" y="306"/>
			<point x="346" y="352"/>
			<point x="357" y="401" type="curve"/>
			<point x="361" y="401" type="line"/>
			<point x="373" y="352"/>
			<point x="382" y="307"/>
			<point x="394" y="261" type="curve"/>
			<point x="464" y="0" type="line"/>
			<point x="564" y="0" type="line"/>
			<point x="694" y="486" type="line"/>
			<point x="616" y="486" type="line"/>
			<point x="545" y="205" type="line"/>
			<point x="535" y="159"/>
			<point x="526" y="115"/>
			<point x="515" y="70" type="curve"/>
			<point x="511" y="70" type="line"/>
			<point x="500" y="115"/>
			<point x="489" y="159"/>
			<point x="477" y="205" type="curve"/>
			<point x="401" y="486" type="line"/>
			<point x="321" y="486" type="line"/>
			<point x="246" y="205" type="line"/>
			<point x="234" y="160"/>
			<point x="224" y="115"/>
			<point x="213" y="70" type="curve"/>
			<point x="209" y="70" type="line"/>
			<point x="200" y="115"/>
			<point x="191" y="159"/>
			<point x="180" y="205" type="curve"/>
			<point x="108" y="486" type="line"/>
			<point x="24" y="486" type="line"/>
		</contour>
		<contour>
			<point name="aboveLC" x="360" y="509" type="move"/>
		</contour>
		<contour>
			<point name="belowLC" x="360" y="-22" type="move"/>
		</contour>
	</outline>
</glyph>
<glyph name="exclamdown" format="1">
	<unicode hex="00A1"/>
	<advance width="289"/>
	<outline>
		<contour>
			<point x="103" y="-184" type="line"/>
			<point x="186" y="-184" type="line"/>
			<point x="184" y="-90" type="line"/>
			<point x="173" y="288" type="line"/>
			<point x="116" y="288" type="line"/>
			<point x="105" y="-90" type="line"/>
		</contour>
		<contour>
			<point x="145" y="372" type="curve" smooth="yes"/>
			<point x="177" y="372"/>
			<point x="204" y="398"/>
			<point x="204" y="436" type="curve" smooth="yes"/>
			<point x="204" y="472"/>
			<point x="177" y="498"/>
			<point x="145" y="498" type="curve" smooth="yes"/>
			<point x="112" y="498"/>
			<point x="85" y="472"/>
			<point x="85" y="436" type="curve" smooth="yes"/>
			<point x="85" y="398"/>
			<point x="112" y="372"/>
		</contour>
	</outline>
</glyph>
<glyph name="dieresis" format="1">
	<unicode hex="00A8"/>
	<advance width="542"/>
	<outline>
		<component base="dieresiscmb" xOffset="271"/>
		<contour>
			<point name="_aboveLC" x="271" y="509" type="move"/>
		</contour>
	</outline>
</glyph>
<glyph name="macron" format="1">
	<unicode hex="00AF"/>
	<advance width="542"/>
	<outline>
		<component base="macroncmb" xOffset="271"/>
		<contour>
			<point name="_aboveLC" x="271" y="509" type="move"/>
		</contour>
	</outline>
</glyph>
<glyph name="acute" format="1">
	<unicode hex="00B4"/>
	<advance width="542"/>
	<outline>
		<component base="acutecmb" xOffset="271"/>
		<contour>
			<point name="_aboveLC" x="271" y="509" type="move"/>
		</contour>
	</outline>
</glyph>
<glyph name="aogonek" format="1">
	<unicode hex="0105"/>
	<advance width="504"/>
	<outline>
		<contour>
			<point x="376" y="-206" type="curve" smooth="yes"/>
			<point x="401" y="-206"/>
			<point x="435" y="-194"/>
			<point x="454" y="-179" type="curve"/>
			<point x="433" y="-138" type="line"/>
			<point x="421" y="-146"/>
			<point x="408" y="-151"/>
			<point x="392" y="-151" type="curve" smooth="yes"/>
			<point x="368" y="-151"/>
			<point x="346" y="-136"/>
			<point x="346" y="-105" type="curve" smooth="yes"/>
			<point x="346" y="-66"/>
			<point x="377" y="-22"/>
			<point x="433" y="0" type="curve"/>
			<point x="433" y="298" type="line" smooth="yes"/>
			<point x="433" y="419"/>
			<point x="383" y="498"/>
			<point x="264" y="498" type="curve" smooth="yes"/>
			<point x="186" y="498"/>
			<point x="118" y="464"/>
			<point x="73" y="435" type="curve"/>
			<point x="105" y="378" type="line"/>
			<point x="143" y="404"/>
			<point x="194" y="430"/>
			<point x="250" y="430" type="curve" smooth="yes"/>
			<point x="330" y="430"/>
			<point x="350" y="370"/>
			<point x="350" y="308" type="curve"/>
			<point x="143" y="285"/>
			<point x="52" y="232"/>
			<point x="52" y="126" type="curve" smooth="yes"/>
			<point x="52" y="39"/>
			<point x="113" y="-12"/>
			<point x="194" y="-12" type="curve" smooth="yes"/>
			<point x="255" y="-12"/>
			<point x="309" y="20"/>
			<point x="355" y="58" type="curve"/>
			<point x="358" y="58" type="line"/>
			<point x="365" y="4" type="line"/>
			<point x="327" y="-21"/>
			<point x="285" y="-67"/>
			<point x="285" y="-121" type="curve" smooth="yes"/>
			<point x="285" y="-177"/>
			<point x="325" y="-206"/>
		</contour>
		<contour>
			<point x="218" y="54" type="curve" smooth="yes"/>
			<point x="170" y="54"/>
			<point x="132" y="77"/>
			<point x="132" y="132" type="curve" smooth="yes"/>
			<point x="132" y="194"/>
			<point x="188" y="234"/>
			<point x="350" y="254" type="curve"/>
			<point x="350" y="119" type="line"/>
			<point x="303" y="77"/>
			<point x="265" y="54"/>
		</contour>
		<contour>
			<point name="aboveLC" x="269" y="509" type="move"/>
		</contour>
	</outline>
</glyph>
<glyph name="iogonek" format="1">
	<unicode hex="012F"/>
	<advance width="246"/>
	<outline>
		<contour>
			<point x="129" y="-206" type="curve" smooth="yes"/>
			<point x="154" y="-206"/>
			<point x="188" y="-194"/>
			<point x="207" y="-179" type="curve"/>
			<point x="186" y="-138" type="line"/>
			<point x="173" y="-146"/>
			<point x="161" y="-151"/>
			<point x="146" y="-151" type="curve" smooth="yes"/>
			<point x="121" y="-151"/>
			<point x="99" y="-136"/>
			<point x="99" y="-105" type="curve" smooth="yes"/>
			<point x="99" y="-66"/>
			<point x="124" y="-29"/>
			<point x="164" y="0" type="curve"/>
			<point x="164" y="486" type="line"/>
			<point x="82" y="486" type="line"/>
			<point x="82" y="0" type="line"/>
			<point x="102" y="0" type="line"/>
			<point x="74" y="-28"/>
			<point x="38" y="-67"/>
			<point x="38" y="-121" type="curve" smooth="yes"/>
			<point x="38" y="-177"/>
			<point x="78" y="-206"/>
		</contour>
		<contour>
			<point x="123" y="586" type="curve" smooth="yes"/>
			<point x="154" y="586"/>
			<point x="179" y="608"/>
			<point x="179" y="639" type="curve" smooth="yes"/>
			<point x="179" y="671"/>
			<point x="154" y="692"/>
			<point x="123" y="692" type="curve" smooth="yes"/>
			<point x="91" y="692"/>
			<point x="66" y="671"/>
			<point x="66" y="639" type="curve" smooth="yes"/>
			<point x="66" y="608"/>
			<point x="91" y="586"/>
		</contour>
	</outline>
</glyph>
<glyph name="Tbar" format="1">
	<unicode hex="0166"/>
	<advance width="536"/>
	<outline>
		<contour>
			<point x="226" y="0" type="line"/>
			<point x="310" y="0" type="line"/>
			<point x="310" y="586" type="line"/>
			<point x="508" y="586" type="line"/>
			<point x="508" y="656" type="line"/>
			<point x="28" y="656" type="line"/>
			<point x="28" y="586" type="line"/>
			<point x="226" y="586" type="line"/>
		</contour>
		<contour>
			<point x="103" y="313" type="line"/>
			<point x="433" y="313" type="line"/>
			<point x="433" y="360" type="line"/>
			<point x="191" y="360" type="line"/>
			<point x="103" y="357" type="line"/>
		</contour>
	</outline>
</glyph>
<glyph name="Uogonek" format="1">
	<unicode hex="0172"/>
	<advance width="645"/>
	<outline>
		<contour>
			<point x="350" y="-212" type="curve" smooth="yes"/>
			<point x="377" y="-212"/>
			<point x="411" y="-199"/>
			<point x="430" y="-184" type="curve"/>
			<point x="407" y="-139" type="line"/>
			<point x="395" y="-148"/>
			<point x="382" y="-153"/>
			<point x="367" y="-153" type="curve" smooth="yes"/>
			<point x="343" y="-153"/>
			<point x="319" y="-138"/>
			<point x="319" y="-107" type="curve" smooth="yes"/>
			<point x="319" y="-74"/>
			<point x="346" y="-32"/>
			<point x="398" y="-7" type="curve" smooth="yes"/>
			<point x="493" y="38"/>
			<point x="558" y="94"/>
			<point x="558" y="271" type="curve" smooth="yes"/>
			<point x="558" y="656" type="line"/>
			<point x="478" y="656" type="line"/>
			<point x="478" y="269" type="line" smooth="yes"/>
			<point x="478" y="111"/>
			<point x="410" y="61"/>
			<point x="323" y="61" type="curve" smooth="yes"/>
			<point x="237" y="61"/>
			<point x="170" y="111"/>
			<point x="170" y="269" type="curve" smooth="yes"/>
			<point x="170" y="656" type="line"/>
			<point x="87" y="656" type="line"/>
			<point x="87" y="271" type="line" smooth="yes"/>
			<point x="87" y="69"/>
			<point x="181" y="-8"/>
			<point x="318" y="-11" type="curve"/>
			<point x="293" y="-36"/>
			<point x="254" y="-70"/>
			<point x="254" y="-125" type="curve" smooth="yes"/>
			<point x="254" y="-182"/>
			<point x="297" y="-212"/>
		</contour>
		<contour>
			<point name="aboveUC" x="322" y="678" type="move"/>
		</contour>
	</outline>
</glyph>
<glyph name="gscript" format="1">
	<unicode hex="0261"/>
	<advance width="559"/>
	<outline>
		<contour>
			<point x="259" y="-216" type="curve" smooth="yes"/>
			<point x="397" y="-216"/>
			<point x="475" y="-144"/>
			<point x="475" y="-24" type="curve" smooth="yes"/>
			<point x="475" y="486" type="line"/>
			<point x="406" y="486" type="line"/>
			<point x="399" y="441" type="line"/>
			<point x="397" y="441" type="line"/>
			<point x="356" y="478"/>
			<point x="316" y="498"/>
			<point x="261" y="498" type="curve" smooth="yes"/>
			<point x="151" y="498"/>
			<point x="50" y="402"/>
			<point x="50" y="250" type="curve" smooth="yes"/>
			<point x="50" y="97"/>
			<point x="128" y="5"/>
			<point x="250" y="5" type="curve" smooth="yes"/>
			<point x="307" y="5"/>
			<point x="357" y="34"/>
			<point x="394" y="70" type="curve"/>
			<point x="393" y="-22" type="line"/>
			<point x="390" y="-100"/>
			<point x="348" y="-150"/>
			<point x="259" y="-150" type="curve" smooth="yes"/>
			<point x="213" y="-150"/>
			<point x="163" y="-137"/>
			<point x="115" y="-105" type="curve"/>
			<point x="85" y="-163" type="line"/>
			<point x="136" y="-197"/>
			<point x="199" y="-216"/>
		</contour>
		<contour>
			<point x="268" y="73" type="curve" smooth="yes"/>
			<point x="183" y="73"/>
			<point x="134" y="142"/>
			<point x="134" y="251" type="curve" smooth="yes"/>
			<point x="134" y="355"/>
			<point x="196" y="429"/>
			<point x="274" y="429" type="curve" smooth="yes"/>
			<point x="314" y="429"/>
			<point x="351" y="415"/>
			<point x="393" y="378" type="curve"/>
			<point x="393" y="140" type="line"/>
			<point x="351" y="95"/>
			<point x="313" y="73"/>
		</contour>
		<contour>
			<point name="aboveLC" x="286" y="509" type="move"/>
		</contour>
		<contour>
			<point name="belowLC" x="274" y="-221" type="move"/>
		</contour>
	</outline>
</glyph>
<glyph name="istroke" format="1">
	<unicode hex="0268"/>
	<advance width="270"/>
	<outline>
		<contour>
			<point x="8" y="231" type="line"/>
			<point x="259" y="231" type="line"/>
			<point x="259" y="279" type="line"/>
			<point x="96" y="279" type="line"/>
			<point x="8" y="274" type="line"/>
		</contour>
		<component base="i" xOffset="12"/>
	</outline>
</glyph>
<glyph name="lbelt" format="1">
	<unicode hex="026C"/>
	<advance width="302"/>
	<outline>
		<contour>
			<point x="121" y="319" type="curve" smooth="yes"/>
			<point x="296" y="319" type="line"/>
			<point x="296" y="366" type="line"/>
			<point x="111" y="366" type="line" smooth="yes"/>
			<point x="67" y="366"/>
			<point x="47" y="384"/>
			<point x="47" y="405" type="curve" smooth="yes"/>
			<point x="47" y="424"/>
			<point x="57" y="439"/>
			<point x="81" y="439" type="curve" smooth="yes"/>
			<point x="120" y="439"/>
			<point x="131" y="401"/>
			<point x="131" y="372" type="curve"/>
			<point x="165" y="360" type="line"/>
			<point x="165" y="397"/>
			<point x="156" y="485"/>
			<point x="77" y="485" type="curve" smooth="yes"/>
			<point x="28" y="485"/>
			<point x="-6" y="451"/>
			<point x="-6" y="406" type="curve" smooth="yes"/>
			<point x="-6" y="356"/>
			<point x="34" y="319"/>
		</contour>
		<component base="l" xOffset="49"/>
	</outline>
</glyph>
<glyph name="Nsmall" format="1">
	<unicode hex="0274"/>
	<advance width="543"/>
	<outline>
		<contour>
			<point x="82" y="0" type="line"/>
			<point x="160" y="0" type="line"/>
			<point x="160" y="202" type="line" smooth="yes"/>
			<point x="160" y="254"/>
			<point x="156" y="316"/>
			<point x="152" y="379" type="curve"/>
			<point x="156" y="379" type="line"/>
			<point x="173" y="349"/>
			<point x="195" y="304"/>
			<point x="213" y="275" type="curve" smooth="yes"/>
			<point x="384" y="0" type="line"/>
			<point x="461" y="0" type="line"/>
			<point x="461" y="486" type="line"/>
			<point x="383" y="486" type="line"/>
			<point x="383" y="284" type="line" smooth="yes"/>
			<point x="383" y="232"/>
			<point x="387" y="170"/>
			<point x="391" y="107" type="curve"/>
			<point x="387" y="107" type="line"/>
			<point x="369" y="137"/>
			<point x="347" y="181"/>
			<point x="329" y="211" type="curve" smooth="yes"/>
			<point x="160" y="486" type="line"/>
			<point x="82" y="486" type="line"/>
		</contour>
		<contour>
			<point name="aboveLC" x="275" y="509" type="move"/>
		</contour>
	</outline>
</glyph>
<glyph name="glottalstopreversed" format="1">
	<unicode hex="0295"/>
	<advance width="443"/>
	<outline>
		<contour>
			<point x="200" y="0" type="line"/>
			<point x="282" y="0" type="line"/>
			<point x="282" y="324" type="line"/>
			<point x="166" y="391"/>
			<point x="114" y="446"/>
			<point x="114" y="530" type="curve" smooth="yes"/>
			<point x="114" y="607"/>
			<point x="164" y="656"/>
			<point x="250" y="656" type="curve" smooth="yes"/>
			<point x="313" y="656"/>
			<point x="355" y="621"/>
			<point x="386" y="583" type="curve"/>
			<point x="430" y="637" type="line"/>
			<point x="391" y="681"/>
			<point x="333" y="724"/>
			<point x="244" y="724" type="curve" smooth="yes"/>
			<point x="126" y="724"/>
			<point x="31" y="659"/>
			<point x="31" y="532" type="curve" smooth="yes"/>
			<point x="31" y="418"/>
			<point x="102" y="353"/>
			<point x="200" y="287" type="curve"/>
		</contour>
	</outline>
</glyph>
<glyph name="Bsmall" format="1">
	<unicode hex="0299"/>
	<advance width="508"/>
	<outline>
		<component base="ve"/>
		<contour>
			<point name="aboveLC" x="251" y="502" type="move"/>
		</contour>
		<contour>
			<point name="belowLC" x="270" y="-22" type="move"/>
		</contour>
	</outline>
</glyph>
<glyph name="ogonek" format="1">
	<unicode hex="02DB"/>
	<advance width="542"/>
	<outline>
		<component base="ogonekcmb" xOffset="271"/>
		<contour>
			<point name="_ogonekLC" x="271" y="0" type="move"/>
		</contour>
	</outline>
</glyph>
<glyph name="acutecmb" format="1">
	<unicode hex="0301"/>
	<outline>
		<contour>
			<point x="-14" y="573" type="line"/>
			<point x="143" y="726" type="line"/>
			<point x="85" y="781" type="line"/>
			<point x="-56" y="614" type="line"/>
		</contour>
		<contour>
			<point name="_aboveLC" x="0" y="509" type="move"/>
		</contour>
	</outline>
</glyph>
<glyph name="bridgebelowcmb" format="1">
	<unicode hex="032A"/>
	<outline>
		<contour>
			<point x="75" y="-226" type="line"/>
			<point x="121" y="-226" type="line"/>
			<point x="121" y="-82" type="line"/>
			<point x="-121" y="-82" type="line"/>
			<point x="-121" y="-226" type="line"/>
			<point x="-75" y="-226" type="line"/>
			<point x="-75" y="-129" type="line"/>
			<point x="75" y="-129" type="line"/>
		</contour>
		<contour>
			<point name="_belowLC" x="0" y="-22" type="move"/>
		</contour>
	</outline>
</glyph>
<glyph name="iotasubscript" format="1">
	<unicode hex="037A"/>
	<advance width="542"/>
	<outline>
		<component base="iotasubscriptcmb" xOffset="277"/>
		<contour>
			<point name="_belowLC" x="277" y="-22" type="move"/>
		</contour>
	</outline>
</glyph>
<glyph name="theta" format="1">
	<unicode hex="03B8"/>
	<advance width="522"/>
	<outline>
		<contour>
			<point x="261" y="-12" type="curve" smooth="yes"/>
			<point x="386" y="-12"/>
			<point x="463" y="102"/>
			<point x="463" y="359" type="curve" smooth="yes"/>
			<point x="463" y="597"/>
			<point x="386" y="724"/>
			<point x="261" y="724" type="curve" smooth="yes"/>
			<point x="136" y="724"/>
			<point x="59" y="597"/>
			<point x="59" y="359" type="curve" smooth="yes"/>
			<point x="59" y="102"/>
			<point x="136" y="-12"/>
		</contour>
		<contour>
			<point x="261" y="56" type="curve" smooth="yes"/>
			<point x="191" y="56"/>
			<point x="140" y="132"/>
			<point x="140" y="359" type="curve" smooth="yes"/>
			<point x="140" y="571"/>
			<point x="191" y="656"/>
			<point x="261" y="656" type="curve" smooth="yes"/>
			<point x="331" y="656"/>
			<point x="382" y="571"/>
			<point x="382" y="359" type="curve" smooth="yes"/>
			<point x="382" y="132"/>
			<point x="331" y="56"/>
		</contour>
		<contour>
			<point x="104" y="331" type="line"/>
			<point x="418" y="331" type="line"/>
			<point x="418" y="390" type="line"/>
			<point x="104" y="390" type="line"/>
		</contour>
	</outline>
</glyph>
<glyph name="pi" format="1">
	<unicode hex="03C0"/>
	<advance width="586"/>
	<outline>
		<contour>
			<point x="485" y="-12" type="curve" smooth="yes"/>
			<point x="513" y="-12"/>
			<point x="535" y="-7"/>
			<point x="552" y="-1" type="curve"/>
			<point x="541" y="62" type="line"/>
			<point x="523" y="58"/>
			<point x="510" y="56"/>
			<point x="502" y="56" type="curve" smooth="yes"/>
			<point x="471" y="56"/>
			<point x="456" y="70"/>
			<point x="456" y="104" type="curve" smooth="yes"/>
			<point x="456" y="151"/>
			<point x="458" y="308"/>
			<point x="464" y="418" type="curve"/>
			<point x="561" y="418" type="line"/>
			<point x="561" y="486" type="line"/>
			<point x="92" y="486" type="line"/>
			<point x="22" y="481" type="line"/>
			<point x="22" y="418" type="line"/>
			<point x="135" y="418" type="line"/>
			<point x="135" y="287"/>
			<point x="122" y="137"/>
			<point x="100" y="0" type="curve"/>
			<point x="183" y="-5" type="line"/>
			<point x="197" y="131"/>
			<point x="212" y="282"/>
			<point x="212" y="418" type="curve"/>
			<point x="384" y="418" type="line"/>
			<point x="383" y="312"/>
			<point x="379" y="160"/>
			<point x="379" y="110" type="curve" smooth="yes"/>
			<point x="379" y="31"/>
			<point x="408" y="-12"/>
		</contour>
	</outline>
</glyph>
<glyph name="digamma" format="1">
	<unicode hex="03DD"/>
	<advance width="413"/>
	<outline>
		<contour>
			<point x="82" y="-179" type="line"/>
			<point x="165" y="-179" type="line"/>
			<point x="163" y="-62"/>
			<point x="161" y="35"/>
			<point x="161" y="143" type="curve"/>
			<point x="367" y="143" type="line"/>
			<point x="367" y="202" type="line"/>
			<point x="161" y="202" type="line"/>
			<point x="159" y="419" type="line"/>
			<point x="387" y="419" type="line"/>
			<point x="387" y="486" type="line"/>
			<point x="82" y="486" type="line"/>
		</contour>
		<contour>
			<point name="aboveLC" x="249" y="509" type="move"/>
		</contour>
	</outline>
</glyph>
<glyph name="Dje" format="1">
	<unicode hex="0402"/>
	<advance width="687"/>
	<outline>
		<contour>
			<point x="458" y="-12" type="curve" smooth="yes"/>
			<point x="550" y="-12"/>
			<point x="638" y="41"/>
			<point x="638" y="192" type="curve" smooth="yes"/>
			<point x="638" y="340"/>
			<point x="538" y="401"/>
			<point x="405" y="401" type="curve" smooth="yes"/>
			<point x="360" y="401"/>
			<point x="322" y="397"/>
			<point x="290" y="391" type="curve"/>
			<point x="290" y="586" type="line"/>
			<point x="519" y="586" type="line"/>
			<point x="519" y="656" type="line"/>
			<point x="28" y="656" type="line"/>
			<point x="28" y="586" type="line"/>
			<point x="206" y="586" type="line"/>
			<point x="206" y="0" type="line"/>
			<point x="290" y="0" type="line"/>
			<point x="290" y="322" type="line"/>
			<point x="318" y="328"/>
			<point x="355" y="332"/>
			<point x="394" y="332" type="curve" smooth="yes"/>
			<point x="496" y="332"/>
			<point x="555" y="289"/>
			<point x="555" y="191" type="curve" smooth="yes"/>
			<point x="555" y="91"/>
			<point x="496" y="57"/>
			<point x="448" y="57" type="curve" smooth="yes"/>
			<point x="435" y="57"/>
			<point x="418" y="61"/>
			<point x="409" y="65" type="curve"/>
			<point x="394" y="-2" type="line"/>
			<point x="409" y="-7"/>
			<point x="435" y="-12"/>
		</contour>
	</outline>
</glyph>
<glyph name="Shcha" format="1">
	<unicode hex="0429"/>
	<advance width="874"/>
	<outline>
		<contour>
			<point x="766" y="-188" type="line"/>
			<point x="839" y="-188" type="line"/>
			<point x="848" y="21" type="line"/>
			<point x="848" y="71" type="line"/>
			<point x="728" y="71" type="line"/>
			<point x="728" y="0" type="line"/>
			<point x="766" y="0" type="line"/>
		</contour>
		<component base="Sha"/>
	</outline>
</glyph>
<glyph name="Ecyr" format="1">
	<unicode hex="042D"/>
	<advance width="571"/>
	<outline>
		<contour>
			<point x="243" y="-12" type="curve" smooth="yes"/>
			<point x="403" y="-12"/>
			<point x="519" y="105"/>
			<point x="519" y="328" type="curve" smooth="yes"/>
			<point x="519" y="550"/>
			<point x="408" y="668"/>
			<point x="243" y="668" type="curve" smooth="yes"/>
			<point x="162" y="668"/>
			<point x="89" y="630"/>
			<point x="47" y="587" type="curve"/>
			<point x="93" y="533" type="line"/>
			<point x="131" y="571"/>
			<point x="182" y="595"/>
			<point x="240" y="595" type="curve" smooth="yes"/>
			<point x="366" y="595"/>
			<point x="436" y="502"/>
			<point x="436" y="334" type="curve" smooth="yes"/>
			<point x="436" y="153"/>
			<point x="362" y="61"/>
			<point x="241" y="61" type="curve" smooth="yes"/>
			<point x="173" y="61"/>
			<point x="122" y="89"/>
			<point x="78" y="135" type="curve"/>
			<point x="32" y="83" type="line"/>
			<point x="87" y="23"/>
			<point x="154" y="-12"/>
		</contour>
		<contour>
			<point x="160" y="309" type="line"/>
			<point x="479" y="309" type="line"/>
			<point x="479" y="380" type="line"/>
			<point x="160" y="380" type="line"/>
		</contour>
		<contour>
			<point name="aboveUC" x="261" y="678" type="move"/>
		</contour>
	</outline>
</glyph>
<glyph name="Yu" format="1">
	<unicode hex="042E"/>
	<advance width="908"/>
	<outline>
		<contour>
			<point x="90" y="0" type="line"/>
			<point x="173" y="0" type="line"/>
			<point x="173" y="309" type="line"/>
			<point x="365" y="309" type="line"/>
			<point x="365" y="381" type="line"/>
			<point x="173" y="381" type="line"/>
			<point x="173" y="656" type="line"/>
			<point x="90" y="656" type="line"/>
		</contour>
		<contour>
			<point x="586" y="-12" type="curve" smooth="yes"/>
			<point x="747" y="-12"/>
			<point x="856" y="120"/>
			<point x="856" y="331" type="curve" smooth="yes"/>
			<point x="856" y="540"/>
			<point x="747" y="668"/>
			<point x="586" y="668" type="curve" smooth="yes"/>
			<point x="425" y="668"/>
			<point x="319" y="541"/>
			<point x="319" y="331" type="curve" smooth="yes"/>
			<point x="319" y="120"/>
			<point x="425" y="-12"/>
		</contour>
		<contour>
			<point x="586" y="61" type="curve" smooth="yes"/>
			<point x="473" y="61"/>
			<point x="403" y="167"/>
			<point x="403" y="331" type="curve" smooth="yes"/>
			<point x="403" y="494"/>
			<point x="473" y="595"/>
			<point x="586" y="595" type="curve" smooth="yes"/>
			<point x="700" y="595"/>
			<point x="770" y="494"/>
			<point x="770" y="331" type="curve" smooth="yes"/>
			<point x="770" y="167"/>
			<point x="700" y="61"/>
		</contour>
		<contour>
			<point name="aboveUC" x="445" y="678" type="move"/>
		</contour>
	</outline>
</glyph>
<glyph name="dje" format="1">
	<unicode hex="0452"/>
	<advance width="548"/>
	<outline>
		<contour>
			<point x="295" y="-217" type="curve" smooth="yes"/>
			<point x="421" y="-217"/>
			<point x="499" y="-130"/>
			<point x="499" y="171" type="curve" smooth="yes"/>
			<point x="499" y="370"/>
			<point x="435" y="459"/>
			<point x="319" y="459" type="curve" smooth="yes"/>
			<point x="254" y="459"/>
			<point x="205" y="425"/>
			<point x="160" y="381" type="curve"/>
			<point x="164" y="478" type="line"/>
			<point x="164" y="712" type="line"/>
			<point x="82" y="712" type="line"/>
			<point x="82" y="0" type="line"/>
			<point x="164" y="0" type="line"/>
			<point x="164" y="315" type="line"/>
			<point x="212" y="364"/>
			<point x="248" y="387"/>
			<point x="293" y="387" type="curve" smooth="yes"/>
			<point x="373" y="387"/>
			<point x="414" y="333"/>
			<point x="414" y="162" type="curve" smooth="yes"/>
			<point x="414" y="-86"/>
			<point x="360" y="-150"/>
			<point x="290" y="-150" type="curve" smooth="yes"/>
			<point x="275" y="-150"/>
			<point x="261" y="-146"/>
			<point x="250" y="-142" type="curve"/>
			<point x="234" y="-204" type="line"/>
			<point x="248" y="-211"/>
			<point x="270" y="-217"/>
		</contour>
		<contour>
			<point x="8" y="571" type="line"/>
			<point x="346" y="571" type="line"/>
			<point x="346" y="619" type="line"/>
			<point x="86" y="619" type="line"/>
			<point x="8" y="614" type="line"/>
		</contour>
	</outline>
</glyph>
<glyph name="Ghestroke" format="1">
	<unicode hex="0492"/>
	<advance width="521"/>
	<outline>
		<contour>
			<point x="33" y="307" type="line"/>
			<point x="344" y="307" type="line"/>
			<point x="344" y="354" type="line"/>
			<point x="114" y="354" type="line"/>
			<point x="33" y="351" type="line"/>
		</contour>
		<component base="Gamma" xOffset="22"/>
	</outline>
</glyph>
<glyph name="Shha" format="1">
	<unicode hex="04BA"/>
	<advance width="598"/>
	<outline>
		<contour>
			<point x="90" y="0" type="line"/>
			<point x="173" y="0" type="line"/>
			<point x="173" y="329" type="line"/>
			<point x="200" y="334"/>
			<point x="236" y="339"/>
			<point x="284" y="339" type="curve" smooth="yes"/>
			<point x="391" y="339"/>
			<point x="449" y="304"/>
			<point x="449" y="194" type="curve" smooth="yes"/>
			<point x="449" y="0" type="line"/>
			<point x="531" y="0" type="line"/>
			<point x="531" y="194" type="line" smooth="yes"/>
			<point x="531" y="352"/>
			<point x="441" y="408"/>
			<point x="292" y="408" type="curve" smooth="yes"/>
			<point x="241" y="408"/>
			<point x="205" y="403"/>
			<point x="173" y="398" type="curve"/>
			<point x="173" y="656" type="line"/>
			<point x="90" y="656" type="line"/>
		</contour>
	</outline>
</glyph>
<glyph name="Obarcyr" format="1">
	<unicode hex="04E8"/>
	<advance width="664"/>
	<outline>
		<component base="Fita"/>
		<contour>
			<point name="aboveUC" x="332" y="678" type="move"/>
		</contour>
	</outline>
</glyph>
<glyph name="prime" format="1">
	<unicode hex="2032"/>
	<advance width="249"/>
	<outline>
		<contour>
			<point x="82" y="450" type="line"/>
			<point x="136" y="449" type="line"/>
			<point x="170" y="598" type="line"/>
			<point x="185" y="689" type="line"/>
			<point x="104" y="690" type="line"/>
		</contour>
	</outline>
</glyph>
<glyph name="radical" format="1">
	<unicode hex="221A"/>
	<advance width="557"/>
	<outline>
		<contour>
			<point x="281" y="-95" type="line"/>
			<point x="344" y="-95" type="line"/>
			<point x="561" y="820" type="line"/>
			<point x="501" y="820" type="line"/>
			<point x="323" y="59" type="line"/>
			<point x="319" y="38"/>
			<point x="315" y="16"/>
			<point x="311" y="-5" type="curve"/>
			<point x="307" y="-5" type="line"/>
			<point x="302" y="16"/>
			<point x="297" y="38"/>
			<point x="290" y="59" type="curve"/>
			<point x="174" y="405" type="line"/>
			<point x="41" y="346" type="line"/>
			<point x="60" y="301" type="line"/>
			<point x="131" y="333" type="line"/>
		</contour>
	</outline>
</glyph>
<glyph name="floorright" format="1">
	<unicode hex="231F"/>
	<advance width="303"/>
	<outline>
		<contour>
			<point x="31" y="-52" type="line"/>
			<point x="209" y="-52" type="line"/>
			<point x="209" y="638" type="line"/>
			<point x="147" y="638" type="line"/>
			<point x="147" y="-5" type="line"/>
			<point x="31" y="-5" type="line"/>
		</contour>
	</outline>
</glyph>
<glyph name="A.sc" format="1">
  <advance width="470"/>
  <outline>
    <contour>
      <point x="3" y="0" type="line"/>
      <point x="87" y="0" type="line"/>
      <point x="180" y="282" type="line" smooth="yes"/>
      <point x="199" y="339"/>
      <point x="214" y="393"/>
      <point x="232" y="451" type="curve"/>
      <point x="236" y="451" type="line"/>
      <point x="254" y="394"/>
      <point x="269" y="339"/>
      <point x="288" y="282" type="curve" smooth="yes"/>
      <point x="380" y="0" type="line"/>
      <point x="468" y="0" type="line"/>
      <point x="282" y="518" type="line"/>
      <point x="188" y="518" type="line"/>
    </contour>
    <contour>
      <point x="105" y="146" type="line"/>
      <point x="364" y="146" type="line"/>
      <point x="364" y="208" type="line"/>
      <point x="105" y="208" type="line"/>
    </contour>
    <contour>
      <point x="234" y="563" type="move" name="aboveUC"/>
    </contour>
    <contour>
      <point x="379" y="0" type="move" name="ogonekUC"/>
    </contour>
    <contour>
      <point x="234" y="-22" type="move" name="belowLC"/>
    </contour>
  </outline>
</glyph>
<glyph name="A.sups" format="1">
  <advance width="363"/>
  <outline>
    <contour>
      <point x="-1" y="266" type="line"/>
      <point x="63" y="266" type="line"/>
      <point x="137" y="505" type="line" smooth="yes"/>
      <point x="152" y="552"/>
      <point x="166" y="599"/>
      <point x="180" y="648" type="curve"/>
      <point x="182" y="648" type="line"/>
      <point x="196" y="601"/>
      <point x="210" y="553"/>
      <point x="225" y="505" type="curve" smooth="yes"/>
      <point x="298" y="266" type="line"/>
      <point x="365" y="266" type="line"/>
      <point x="218" y="698" type="line"/>
      <point x="146" y="698" type="line"/>
    </contour>
    <contour>
      <point x="80" y="394" type="line"/>
      <point x="282" y="394" type="line"/>
      <point x="282" y="443" type="line"/>
      <point x="80" y="443" type="line"/>
    </contour>
  </outline>
</glyph>
<glyph name="AE" format="1">
  <advance width="822"/>
  <outline>
    <contour>
      <point x="8" y="0" type="line"/>
      <point x="96" y="0" type="line"/>
      <point x="290" y="376" type="line"/>
      <point x="326" y="447"/>
      <point x="362" y="519"/>
      <point x="397" y="590" type="curve"/>
      <point x="401" y="590" type="line"/>
      <point x="401" y="0" type="line"/>
      <point x="773" y="0" type="line"/>
      <point x="773" y="71" type="line"/>
      <point x="485" y="71" type="line"/>
      <point x="485" y="309" type="line"/>
      <point x="717" y="309" type="line"/>
      <point x="717" y="380" type="line"/>
      <point x="485" y="380" type="line"/>
      <point x="485" y="586" type="line"/>
      <point x="763" y="586" type="line"/>
      <point x="763" y="656" type="line"/>
      <point x="352" y="656" type="line"/>
    </contour>
    <contour>
      <point x="158" y="191" type="line"/>
      <point x="452" y="191" type="line"/>
      <point x="452" y="258" type="line"/>
      <point x="158" y="258" type="line"/>
    </contour>
    <contour>
      <point x="564" y="694" type="move" name="aboveUC"/>
    </contour>
  </outline>
</glyph>
<glyph name="A.sups" format="1">
  <advance width="363"/>
  <outline>
    <contour>
      <point x="-1" y="395" type="line"/>
      <point x="63" y="395" type="line"/>
      <point x="137" y="633" type="line" smooth="yes"/>
      <point x="152" y="681"/>
      <point x="166" y="727"/>
      <point x="180" y="776" type="curve"/>
      <point x="182" y="776" type="line"/>
      <point x="196" y="729"/>
      <point x="210" y="681"/>
      <point x="225" y="633" type="curve" smooth="yes"/>
      <point x="298" y="395" type="line"/>
      <point x="365" y="395" type="line"/>
      <point x="218" y="827" type="line"/>
      <point x="146" y="827" type="line"/>
    </contour>
    <contour>
      <point x="80" y="522" type="line"/>
      <point x="282" y="522" type="line"/>
      <point x="282" y="571" type="line"/>
      <point x="80" y="571" type="line"/>
    </contour>
  </outline>
</glyph>
<glyph name="Acyr" format="1">
  <advance width="544"/>
  <outline>
    <contour>
      <point x="270" y="678" type="move" name="aboveUC"/>
    </contour>
    <component base="A"/>
  </outline>
</glyph>
<glyph name="Alpha.sc" format="1">
  <advance width="470"/>
  <outline>
    <contour>
      <point x="234" y="563" type="move" name="aboveLC"/>
    </contour>
    <contour>
      <point x="234" y="-22" type="move" name="belowLC"/>
    </contour>
    <component base="A.sc"/>
  </outline>
</glyph>
<glyph name="Aogonek.sc" format="1">
  <advance width="470"/>
  <outline>
    <contour>
      <point x="234" y="563" type="move" name="aboveUC"/>
    </contour>
    <contour>
      <point x="419" y="-212" type="curve" smooth="yes"/>
      <point x="445" y="-212"/>
      <point x="479" y="-199"/>
      <point x="498" y="-184" type="curve"/>
      <point x="476" y="-139" type="line"/>
      <point x="464" y="-148"/>
      <point x="451" y="-153"/>
      <point x="434" y="-153" type="curve" smooth="yes"/>
      <point x="410" y="-153"/>
      <point x="388" y="-138"/>
      <point x="388" y="-107" type="curve" smooth="yes"/>
      <point x="388" y="-65"/>
      <point x="421" y="-19"/>
      <point x="468" y="0" type="curve"/>
      <point x="282" y="518" type="line"/>
      <point x="188" y="518" type="line"/>
      <point x="3" y="0" type="line"/>
      <point x="87" y="0" type="line"/>
      <point x="180" y="282" type="line" smooth="yes"/>
      <point x="199" y="339"/>
      <point x="214" y="393"/>
      <point x="232" y="451" type="curve"/>
      <point x="236" y="451" type="line"/>
      <point x="254" y="394"/>
      <point x="269" y="339"/>
      <point x="288" y="282" type="curve" smooth="yes"/>
      <point x="380" y="0" type="line"/>
      <point x="398" y="0" type="line"/>
      <point x="364" y="-23"/>
      <point x="323" y="-71"/>
      <point x="323" y="-125" type="curve" smooth="yes"/>
      <point x="323" y="-182"/>
      <point x="366" y="-212"/>
    </contour>
    <contour>
      <point x="105" y="146" type="line"/>
      <point x="364" y="146" type="line"/>
      <point x="364" y="208" type="line"/>
      <point x="105" y="208" type="line"/>
    </contour>
  </outline>
</glyph>
<glyph name="B" format="1">
  <advance width="588"/>
  <outline>
    <contour>
      <point x="90" y="0" type="line"/>
      <point x="299" y="0" type="line" smooth="yes"/>
      <point x="446" y="0"/>
      <point x="548" y="63"/>
      <point x="548" y="192" type="curve" smooth="yes"/>
      <point x="548" y="282"/>
      <point x="493" y="334"/>
      <point x="414" y="349" type="curve"/>
      <point x="414" y="353" type="line"/>
      <point x="476" y="373"/>
      <point x="510" y="431"/>
      <point x="510" y="496" type="curve" smooth="yes"/>
      <point x="510" y="611"/>
      <point x="418" y="656"/>
      <point x="285" y="656" type="curve" smooth="yes"/>
      <point x="90" y="656" type="line"/>
    </contour>
    <contour>
      <point x="173" y="377" type="line"/>
      <point x="173" y="590" type="line"/>
      <point x="274" y="590" type="line" smooth="yes"/>
      <point x="376" y="590"/>
      <point x="428" y="561"/>
      <point x="428" y="485" type="curve" smooth="yes"/>
      <point x="428" y="418"/>
      <point x="382" y="377"/>
      <point x="270" y="377" type="curve" smooth="yes"/>
    </contour>
    <contour>
      <point x="173" y="66" type="line"/>
      <point x="173" y="313" type="line"/>
      <point x="287" y="313" type="line" smooth="yes"/>
      <point x="402" y="313"/>
      <point x="466" y="276"/>
      <point x="466" y="195" type="curve" smooth="yes"/>
      <point x="466" y="107"/>
      <point x="400" y="66"/>
      <point x="287" y="66" type="curve" smooth="yes"/>
    </contour>
    <contour>
      <point x="287" y="678" type="move" name="aboveUC"/>
    </contour>
    <contour>
      <point x="302" y="-22" type="move" name="belowLC"/>
    </contour>
  </outline>
</glyph>
<glyph name="B.sups" format="1">
  <advance width="392"/>
  <outline>
    <contour>
      <point x="57" y="266" type="line"/>
      <point x="201" y="266" type="line" smooth="yes"/>
      <point x="298" y="266"/>
      <point x="367" y="308"/>
      <point x="367" y="393" type="curve" smooth="yes"/>
      <point x="367" y="452"/>
      <point x="331" y="486"/>
      <point x="267" y="497" type="curve"/>
      <point x="267" y="499" type="line"/>
      <point x="318" y="513"/>
      <point x="343" y="551"/>
      <point x="343" y="593" type="curve" smooth="yes"/>
      <point x="343" y="669"/>
      <point x="280" y="698"/>
      <point x="191" y="698" type="curve" smooth="yes"/>
      <point x="57" y="698" type="line"/>
    </contour>
    <contour>
      <point x="120" y="516" type="line"/>
      <point x="120" y="650" type="line"/>
      <point x="184" y="650" type="line" smooth="yes"/>
      <point x="249" y="650"/>
      <point x="282" y="630"/>
      <point x="282" y="586" type="curve" smooth="yes"/>
      <point x="282" y="541"/>
      <point x="253" y="516"/>
      <point x="182" y="516" type="curve" smooth="yes"/>
    </contour>
    <contour>
      <point x="120" y="315" type="line"/>
      <point x="120" y="471" type="line"/>
      <point x="193" y="471" type="line" smooth="yes"/>
      <point x="266" y="471"/>
      <point x="306" y="447"/>
      <point x="306" y="396" type="curve" smooth="yes"/>
      <point x="306" y="339"/>
      <point x="265" y="315"/>
      <point x="193" y="315" type="curve" smooth="yes"/>
    </contour>
  </outline>
</glyph>
<glyph name="B.sc" format="1">
  <advance width="526"/>
  <outline>
    <contour>
      <point x="276" y="563" type="move" name="aboveUC"/>
    </contour>
    <contour>
      <point x="286" y="-22" type="move" name="belowLC"/>
    </contour>
    <contour>
      <point x="90" y="0" type="line"/>
      <point x="273" y="0" type="line" smooth="yes"/>
      <point x="397" y="0"/>
      <point x="485" y="48"/>
      <point x="485" y="151" type="curve" smooth="yes"/>
      <point x="485" y="222"/>
      <point x="438" y="261"/>
      <point x="365" y="275" type="curve"/>
      <point x="365" y="279" type="line"/>
      <point x="425" y="295"/>
      <point x="455" y="340"/>
      <point x="455" y="390" type="curve" smooth="yes"/>
      <point x="455" y="484"/>
      <point x="374" y="518"/>
      <point x="260" y="518" type="curve" smooth="yes"/>
      <point x="90" y="518" type="line"/>
    </contour>
    <contour>
      <point x="173" y="299" type="line"/>
      <point x="173" y="456" type="line"/>
      <point x="254" y="456" type="line" smooth="yes"/>
      <point x="336" y="456"/>
      <point x="378" y="434"/>
      <point x="378" y="381" type="curve" smooth="yes"/>
      <point x="378" y="328"/>
      <point x="342" y="299"/>
      <point x="251" y="299" type="curve" smooth="yes"/>
    </contour>
    <contour>
      <point x="173" y="62" type="line"/>
      <point x="173" y="243" type="line"/>
      <point x="263" y="243" type="line" smooth="yes"/>
      <point x="355" y="243"/>
      <point x="405" y="215"/>
      <point x="405" y="156" type="curve" smooth="yes"/>
      <point x="405" y="88"/>
      <point x="349" y="62"/>
      <point x="263" y="62" type="curve" smooth="yes"/>
    </contour>
  </outline>
</glyph>
<glyph name="Be.sc" format="1">
  <advance width="519"/>
  <outline>
    <contour>
      <point x="90" y="0" type="line"/>
      <point x="275" y="0" type="line" smooth="yes"/>
      <point x="396" y="0"/>
      <point x="479" y="47"/>
      <point x="479" y="156" type="curve" smooth="yes"/>
      <point x="479" y="264"/>
      <point x="390" y="299"/>
      <point x="272" y="299" type="curve" smooth="yes"/>
      <point x="173" y="299" type="line"/>
      <point x="173" y="449" type="line"/>
      <point x="442" y="449" type="line"/>
      <point x="442" y="518" type="line"/>
      <point x="90" y="518" type="line"/>
    </contour>
    <contour>
      <point x="173" y="62" type="line"/>
      <point x="173" y="243" type="line"/>
      <point x="261" y="243" type="line" smooth="yes"/>
      <point x="351" y="243"/>
      <point x="398" y="219"/>
      <point x="398" y="158" type="curve" smooth="yes"/>
      <point x="398" y="93"/>
      <point x="353" y="62"/>
      <point x="264" y="62" type="curve" smooth="yes"/>
    </contour>
  </outline>
</glyph>
<glyph name="Beta.sc" format="1">
	<advance width="526"/>
	<outline>
		<component base="B.sc"/>
		<contour>
			<point name="aboveLC" x="276" y="563" type="move"/>
		</contour>
		<contour>
			<point name="belowLC" x="286" y="-22" type="move"/>
		</contour>
	</outline>
</glyph>
<glyph name="Beta.sc" format="1">
  <advance width="526"/>
  <outline>
    <contour>
      <point x="276" y="563" type="move" name="aboveLC"/>
    </contour>
    <contour>
      <point x="286" y="-22" type="move" name="belowLC"/>
    </contour>
    <component base="B.sc"/>
  </outline>
</glyph>
<glyph name="Bstroke" format="1">
  <advance width="603"/>
  <outline>
    <contour>
      <point x="107" y="0" type="line"/>
      <point x="317" y="0" type="line" smooth="yes"/>
      <point x="463" y="0"/>
      <point x="565" y="64"/>
      <point x="565" y="196" type="curve" smooth="yes"/>
      <point x="565" y="288"/>
      <point x="509" y="341"/>
      <point x="413" y="356" type="curve"/>
      <point x="413" y="360" type="line"/>
      <point x="490" y="380"/>
      <point x="527" y="434"/>
      <point x="527" y="498" type="curve" smooth="yes"/>
      <point x="527" y="610"/>
      <point x="435" y="656"/>
      <point x="302" y="656" type="curve" smooth="yes"/>
      <point x="107" y="656" type="line"/>
    </contour>
    <contour>
      <point x="190" y="380" type="line"/>
      <point x="190" y="594" type="line"/>
      <point x="291" y="594" type="line" smooth="yes"/>
      <point x="393" y="594"/>
      <point x="447" y="564"/>
      <point x="447" y="492" type="curve" smooth="yes"/>
      <point x="447" y="419"/>
      <point x="399" y="380"/>
      <point x="288" y="380" type="curve" smooth="yes"/>
    </contour>
    <contour>
      <point x="190" y="63" type="line"/>
      <point x="190" y="325" type="line"/>
      <point x="305" y="325" type="line" smooth="yes"/>
      <point x="419" y="325"/>
      <point x="484" y="286"/>
      <point x="484" y="200" type="curve" smooth="yes"/>
      <point x="484" y="107"/>
      <point x="417" y="63"/>
      <point x="305" y="63" type="curve" smooth="yes"/>
    </contour>
    <contour>
      <point x="30" y="177" type="line"/>
      <point x="342" y="177" type="line"/>
      <point x="342" y="224" type="line"/>
      <point x="108" y="224" type="line"/>
      <point x="30" y="220" type="line"/>
    </contour>
  </outline>
</glyph>
<glyph name="Bstroke.sc" format="1">
  <advance width="545"/>
  <outline>
    <contour>
      <point x="109" y="0" type="line"/>
      <point x="293" y="0" type="line" smooth="yes"/>
      <point x="417" y="0"/>
      <point x="505" y="48"/>
      <point x="505" y="151" type="curve" smooth="yes"/>
      <point x="505" y="222"/>
      <point x="458" y="261"/>
      <point x="384" y="275" type="curve"/>
      <point x="384" y="279" type="line"/>
      <point x="445" y="295"/>
      <point x="475" y="340"/>
      <point x="475" y="390" type="curve" smooth="yes"/>
      <point x="475" y="484"/>
      <point x="394" y="518"/>
      <point x="279" y="518" type="curve" smooth="yes"/>
      <point x="109" y="518" type="line"/>
    </contour>
    <contour>
      <point x="193" y="297" type="line"/>
      <point x="193" y="463" type="line"/>
      <point x="274" y="463" type="line" smooth="yes"/>
      <point x="356" y="463"/>
      <point x="398" y="440"/>
      <point x="398" y="384" type="curve" smooth="yes"/>
      <point x="398" y="329"/>
      <point x="361" y="297"/>
      <point x="271" y="297" type="curve" smooth="yes"/>
    </contour>
    <contour>
      <point x="193" y="55" type="line"/>
      <point x="193" y="245" type="line"/>
      <point x="283" y="245" type="line" smooth="yes"/>
      <point x="375" y="245"/>
      <point x="425" y="215"/>
      <point x="425" y="153" type="curve" smooth="yes"/>
      <point x="425" y="83"/>
      <point x="369" y="55"/>
      <point x="283" y="55" type="curve" smooth="yes"/>
    </contour>
    <contour>
      <point x="33" y="132" type="line"/>
      <point x="319" y="132" type="line"/>
      <point x="319" y="172" type="line"/>
      <point x="111" y="172" type="line"/>
      <point x="33" y="168" type="line"/>
    </contour>
  </outline>
</glyph>
<glyph name="Be.sc" format="1">
  <advance width="518"/>
  <outline>
    <contour>
      <point x="90" y="0" type="line"/>
      <point x="266" y="0" type="line" smooth="yes"/>
      <point x="390" y="0"/>
      <point x="477" y="46"/>
      <point x="477" y="157" type="curve" smooth="yes"/>
      <point x="477" y="260"/>
      <point x="387" y="300"/>
      <point x="266" y="300" type="curve" smooth="yes"/>
      <point x="171" y="300" type="line"/>
      <point x="171" y="449" type="line"/>
      <point x="435" y="449" type="line"/>
      <point x="435" y="518" type="line"/>
      <point x="90" y="518" type="line"/>
    </contour>
    <contour>
      <point x="171" y="64" type="line"/>
      <point x="171" y="240" type="line"/>
      <point x="256" y="240" type="line" smooth="yes"/>
      <point x="347" y="240"/>
      <point x="397" y="214"/>
      <point x="397" y="156" type="curve" smooth="yes"/>
      <point x="397" y="94"/>
      <point x="346" y="64"/>
      <point x="256" y="64" type="curve" smooth="yes"/>
    </contour>
  </outline>
</glyph>
<glyph name="C.sups" format="1">
	<advance width="379"/>
	<outline>
		<contour>
			<point x="225" y="387" type="curve" smooth="yes"/>
			<point x="282" y="387"/>
			<point x="326" y="409"/>
			<point x="360" y="449" type="curve"/>
			<point x="325" y="487" type="line"/>
			<point x="299" y="458"/>
			<point x="268" y="441"/>
			<point x="228" y="441" type="curve" smooth="yes"/>
			<point x="148" y="441"/>
			<point x="97" y="506"/>
			<point x="97" y="611" type="curve" smooth="yes"/>
			<point x="97" y="714"/>
			<point x="151" y="780"/>
			<point x="231" y="780" type="curve" smooth="yes"/>
			<point x="265" y="780"/>
			<point x="292" y="765"/>
			<point x="316" y="742" type="curve"/>
			<point x="351" y="781" type="line"/>
			<point x="325" y="810"/>
			<point x="283" y="835"/>
			<point x="229" y="835" type="curve" smooth="yes"/>
			<point x="118" y="835"/>
			<point x="32" y="748"/>
			<point x="32" y="609" type="curve" smooth="yes"/>
			<point x="32" y="468"/>
			<point x="115" y="387"/>
		</contour>
	</outline>
</glyph>
<glyph name="Che" format="1">
  <advance width="598"/>
  <outline>
    <contour>
      <point x="293" y="678" type="move" name="aboveUC"/>
    </contour>
    <contour>
      <point x="425" y="0" type="line"/>
      <point x="508" y="0" type="line"/>
      <point x="508" y="656" type="line"/>
      <point x="425" y="656" type="line"/>
      <point x="425" y="363" type="line"/>
      <point x="398" y="357"/>
      <point x="362" y="353"/>
      <point x="313" y="353" type="curve" smooth="yes"/>
      <point x="207" y="353"/>
      <point x="149" y="388"/>
      <point x="149" y="498" type="curve" smooth="yes"/>
      <point x="149" y="656" type="line"/>
      <point x="67" y="656" type="line"/>
      <point x="67" y="498" type="line" smooth="yes"/>
      <point x="67" y="340"/>
      <point x="157" y="284"/>
      <point x="305" y="284" type="curve" smooth="yes"/>
      <point x="357" y="284"/>
      <point x="393" y="288"/>
      <point x="425" y="294" type="curve"/>
    </contour>
  </outline>
</glyph>
<glyph name="Chedescender.sc" format="1">
  <advance width="530"/>
  <outline>
    <contour>
      <point x="425" y="-172" type="line"/>
      <point x="496" y="-172" type="line"/>
      <point x="504" y="16" type="line"/>
      <point x="504" y="70" type="line"/>
      <point x="387" y="70" type="line"/>
      <point x="387" y="0" type="line"/>
      <point x="425" y="0" type="line"/>
    </contour>
    <component base="Che.sc" xOffset="-18"/>
  </outline>
</glyph>
<glyph name="Chi.sc" format="1">
  <advance width="453"/>
  <outline>
    <contour>
      <point x="295" y="575" type="move" name="aboveUC"/>
    </contour>
    <contour>
      <point x="294" y="0" type="move" name="baseLC"/>
    </contour>
    <contour>
      <point x="294" y="-22" type="move" name="belowLC"/>
    </contour>
    <component base="X.sc"/>
  </outline>
</glyph>
<glyph name="Che.sc" format="1">
  <advance width="539"/>
  <outline>
    <contour>
      <point x="367" y="0" type="line"/>
      <point x="450" y="0" type="line"/>
      <point x="450" y="518" type="line"/>
      <point x="367" y="518" type="line"/>
      <point x="367" y="293" type="line"/>
      <point x="342" y="283"/>
      <point x="306" y="279"/>
      <point x="275" y="279" type="curve" smooth="yes"/>
      <point x="195" y="279"/>
      <point x="147" y="311"/>
      <point x="147" y="388" type="curve"/>
      <point x="147" y="518" type="line"/>
      <point x="67" y="518" type="line"/>
      <point x="67" y="388" type="line"/>
      <point x="67" y="264"/>
      <point x="150" y="213"/>
      <point x="267" y="213" type="curve"/>
      <point x="301" y="213"/>
      <point x="338" y="219"/>
      <point x="367" y="227" type="curve"/>
    </contour>
  </outline>
</glyph>
<glyph name="Chedescender.sc" format="1">
  <advance width="594"/>
  <outline>
    <contour>
      <point x="483" y="-188" type="line"/>
      <point x="555" y="-188" type="line"/>
      <point x="564" y="21" type="line"/>
      <point x="564" y="71" type="line"/>
      <point x="444" y="71" type="line"/>
      <point x="444" y="0" type="line"/>
      <point x="483" y="0" type="line"/>
    </contour>
    <component base="Che" xOffset="-18"/>
  </outline>
</glyph>
<glyph name="D" format="1">
  <advance width="615"/>
  <outline>
    <contour>
      <point x="308" y="678" type="move" name="aboveUC"/>
    </contour>
    <contour>
      <point x="305" y="-22" type="move" name="belowLC"/>
    </contour>
    <contour>
      <point x="90" y="0" type="line"/>
      <point x="258" y="0" type="line" smooth="yes"/>
      <point x="456" y="0"/>
      <point x="564" y="122"/>
      <point x="564" y="331" type="curve" smooth="yes"/>
      <point x="564" y="539"/>
      <point x="456" y="656"/>
      <point x="254" y="656" type="curve" smooth="yes"/>
      <point x="90" y="656" type="line"/>
    </contour>
    <contour>
      <point x="173" y="68" type="line"/>
      <point x="173" y="588" type="line"/>
      <point x="248" y="588" type="line" smooth="yes"/>
      <point x="401" y="588"/>
      <point x="478" y="496"/>
      <point x="478" y="331" type="curve" smooth="yes"/>
      <point x="478" y="165"/>
      <point x="401" y="68"/>
      <point x="248" y="68" type="curve" smooth="yes"/>
    </contour>
  </outline>
</glyph>
<glyph name="D.sups" format="1">
  <advance width="411"/>
  <outline>
    <contour>
      <point x="57" y="266" type="line"/>
      <point x="172" y="266" type="line" smooth="yes"/>
      <point x="304" y="266"/>
      <point x="378" y="345"/>
      <point x="378" y="485" type="curve" smooth="yes"/>
      <point x="378" y="623"/>
      <point x="304" y="698"/>
      <point x="169" y="698" type="curve" smooth="yes"/>
      <point x="57" y="698" type="line"/>
    </contour>
    <contour>
      <point x="120" y="317" type="line"/>
      <point x="120" y="648" type="line"/>
      <point x="166" y="648" type="line" smooth="yes"/>
      <point x="263" y="648"/>
      <point x="313" y="593"/>
      <point x="313" y="484" type="curve" smooth="yes"/>
      <point x="313" y="376"/>
      <point x="264" y="317"/>
      <point x="168" y="317" type="curve" smooth="yes"/>
    </contour>
  </outline>
</glyph>
<glyph name="D.sups" format="1">
  <advance width="411"/>
  <outline>
    <contour>
      <point x="57" y="395" type="line"/>
      <point x="172" y="395" type="line" smooth="yes"/>
      <point x="304" y="395"/>
      <point x="378" y="473"/>
      <point x="378" y="613" type="curve" smooth="yes"/>
      <point x="378" y="751"/>
      <point x="304" y="827"/>
      <point x="169" y="827" type="curve" smooth="yes"/>
      <point x="57" y="827" type="line"/>
    </contour>
    <contour>
      <point x="120" y="445" type="line"/>
      <point x="120" y="776" type="line"/>
      <point x="166" y="776" type="line" smooth="yes"/>
      <point x="263" y="776"/>
      <point x="313" y="721"/>
      <point x="313" y="613" type="curve" smooth="yes"/>
      <point x="313" y="504"/>
      <point x="264" y="445"/>
      <point x="168" y="445" type="curve" smooth="yes"/>
    </contour>
  </outline>
</glyph>
<glyph name="De" format="1">
  <advance width="638"/>
  <outline>
    <contour>
      <point x="108" y="0" type="line"/>
      <point x="530" y="0" type="line"/>
      <point x="530" y="-188" type="line"/>
      <point x="603" y="-188" type="line"/>
      <point x="612" y="21" type="line"/>
      <point x="612" y="71" type="line"/>
      <point x="26" y="71" type="line"/>
      <point x="26" y="21" type="line"/>
      <point x="35" y="-188" type="line"/>
      <point x="108" y="-188" type="line"/>
    </contour>
    <contour>
      <point x="455" y="31" type="line"/>
      <point x="539" y="31" type="line"/>
      <point x="539" y="656" type="line"/>
      <point x="207" y="656" type="line"/>
      <point x="184" y="516"/>
      <point x="171" y="437"/>
      <point x="147" y="307" type="curve" smooth="yes"/>
      <point x="115" y="133"/>
      <point x="83" y="82"/>
      <point x="56" y="71" type="curve"/>
      <point x="80" y="22" type="line"/>
      <point x="143" y="32"/>
      <point x="187" y="101"/>
      <point x="223" y="293" type="curve" smooth="yes"/>
      <point x="243" y="404"/>
      <point x="252" y="474"/>
      <point x="272" y="586" type="curve"/>
      <point x="455" y="586" type="line"/>
    </contour>
  </outline>
</glyph>
<glyph name="De.sc" format="1">
  <advance width="562"/>
  <outline>
    <contour>
      <point x="105" y="-172" type="line"/>
      <point x="105" y="0" type="line"/>
      <point x="463" y="0" type="line"/>
      <point x="463" y="-172" type="line"/>
      <point x="534" y="-172" type="line"/>
      <point x="542" y="16" type="line"/>
      <point x="542" y="70" type="line"/>
      <point x="26" y="70" type="line"/>
      <point x="26" y="16" type="line"/>
      <point x="34" y="-172" type="line"/>
    </contour>
    <contour>
      <point x="388" y="25" type="line"/>
      <point x="472" y="25" type="line"/>
      <point x="472" y="518" type="line"/>
      <point x="178" y="518" type="line"/>
      <point x="159" y="411"/>
      <point x="149" y="351"/>
      <point x="128" y="253" type="curve" smooth="yes"/>
      <point x="101" y="119"/>
      <point x="75" y="78"/>
      <point x="51" y="69" type="curve"/>
      <point x="72" y="20" type="line"/>
      <point x="132" y="26"/>
      <point x="173" y="89"/>
      <point x="203" y="240" type="curve" smooth="yes"/>
      <point x="219" y="320"/>
      <point x="227" y="370"/>
      <point x="242" y="450" type="curve"/>
      <point x="388" y="450" type="line"/>
    </contour>
  </outline>
</glyph>
<glyph name="Delta" format="1">
  <advance width="588"/>
  <outline>
    <contour>
      <point x="30" y="0" type="line"/>
      <point x="558" y="0" type="line"/>
      <point x="558" y="50" type="line"/>
      <point x="342" y="656" type="line"/>
      <point x="246" y="656" type="line"/>
      <point x="30" y="50" type="line"/>
    </contour>
    <contour>
      <point x="120" y="71" type="line"/>
      <point x="222" y="371" type="line"/>
      <point x="291" y="581" type="line"/>
      <point x="295" y="581" type="line"/>
      <point x="364" y="371" type="line"/>
      <point x="466" y="71" type="line"/>
    </contour>
  </outline>
</glyph>
<glyph name="Dje.sc" format="1">
  <advance width="597"/>
  <outline>
    <contour>
      <point x="28" y="449" type="line"/>
      <point x="448" y="449" type="line"/>
      <point x="448" y="518" type="line"/>
      <point x="28" y="518" type="line"/>
    </contour>
    <contour>
      <point x="350" y="311" type="curve"/>
      <point x="312" y="311"/>
      <point x="284" y="308"/>
      <point x="259" y="303" type="curve"/>
      <point x="259" y="518" type="line"/>
      <point x="175" y="518" type="line"/>
      <point x="175" y="0" type="line"/>
      <point x="259" y="0" type="line"/>
      <point x="259" y="244" type="line"/>
      <point x="281" y="249"/>
      <point x="305" y="252"/>
      <point x="342" y="252" type="curve"/>
      <point x="423" y="252"/>
      <point x="468" y="220"/>
      <point x="468" y="150" type="curve" smooth="yes"/>
      <point x="468" y="81"/>
      <point x="423" y="56"/>
      <point x="385" y="56" type="curve" smooth="yes"/>
      <point x="376" y="56"/>
      <point x="362" y="59"/>
      <point x="354" y="62" type="curve"/>
      <point x="341" y="-3" type="line"/>
      <point x="354" y="-7"/>
      <point x="375" y="-10"/>
      <point x="395" y="-10" type="curve" smooth="yes"/>
      <point x="476" y="-10"/>
      <point x="550" y="32"/>
      <point x="550" y="147" type="curve" smooth="yes"/>
      <point x="550" y="264"/>
      <point x="461" y="311"/>
    </contour>
  </outline>
</glyph>
<glyph name="Dzhe" format="1">
  <advance width="645"/>
  <outline>
    <contour>
      <point x="90" y="0" type="line"/>
      <point x="555" y="0" type="line"/>
      <point x="555" y="656" type="line"/>
      <point x="472" y="656" type="line"/>
      <point x="472" y="71" type="line"/>
      <point x="173" y="71" type="line"/>
      <point x="173" y="656" type="line"/>
      <point x="90" y="656" type="line"/>
    </contour>
    <contour>
      <point x="287" y="-188" type="line"/>
      <point x="360" y="-188" type="line"/>
      <point x="369" y="16" type="line"/>
      <point x="287" y="0" type="line"/>
    </contour>
  </outline>
</glyph>
<glyph name="De.sc" format="1">
  <advance width="540"/>
  <outline>
    <contour>
      <point x="369" y="0" type="line"/>
      <point x="451" y="0" type="line"/>
      <point x="451" y="518" type="line"/>
      <point x="134" y="518" type="line"/>
      <point x="134" y="362" type="line" smooth="yes"/>
      <point x="134" y="296"/>
      <point x="129" y="236"/>
      <point x="117" y="183" type="curve" smooth="yes"/>
      <point x="104" y="128"/>
      <point x="81" y="86"/>
      <point x="45" y="69" type="curve"/>
      <point x="58" y="22" type="line"/>
      <point x="134" y="42"/>
      <point x="176" y="95"/>
      <point x="192" y="170" type="curve" smooth="yes"/>
      <point x="205" y="227"/>
      <point x="210" y="299"/>
      <point x="210" y="369" type="curve" smooth="yes"/>
      <point x="210" y="449" type="line"/>
      <point x="369" y="449" type="line"/>
    </contour>
    <contour>
      <point x="33" y="-151" type="line"/>
      <point x="102" y="-151" type="line"/>
      <point x="102" y="0" type="line"/>
      <point x="502" y="0" type="line"/>
      <point x="502" y="69" type="line"/>
      <point x="23" y="69" type="line"/>
      <point x="23" y="14" type="line"/>
    </contour>
    <contour>
      <point x="435" y="-151" type="line"/>
      <point x="505" y="-151" type="line"/>
      <point x="514" y="14" type="line"/>
      <point x="514" y="69" type="line"/>
      <point x="41" y="69" type="line"/>
      <point x="41" y="0" type="line"/>
      <point x="435" y="0" type="line"/>
    </contour>
  </outline>
</glyph>
<glyph name="Delta.sc" format="1">
  <advance width="514"/>
  <outline>
    <contour>
      <point x="30" y="0" type="line"/>
      <point x="485" y="0" type="line"/>
      <point x="485" y="49" type="line"/>
      <point x="305" y="518" type="line"/>
      <point x="210" y="518" type="line"/>
      <point x="30" y="49" type="line"/>
    </contour>
    <contour>
      <point x="118" y="69" type="line"/>
      <point x="199" y="285" type="line"/>
      <point x="255" y="449" type="line"/>
      <point x="258" y="449" type="line"/>
      <point x="314" y="285" type="line"/>
      <point x="395" y="69" type="line"/>
    </contour>
  </outline>
</glyph>
<glyph name="Dje.sc" format="1">
  <advance width="614"/>
  <outline>
    <contour>
      <point x="400" y="-132" type="curve" smooth="yes"/>
      <point x="484" y="-132"/>
      <point x="558" y="-64"/>
      <point x="558" y="112" type="curve" smooth="yes"/>
      <point x="558" y="266"/>
      <point x="472" y="320"/>
      <point x="351" y="320" type="curve" smooth="yes"/>
      <point x="320" y="320"/>
      <point x="285" y="314"/>
      <point x="258" y="305" type="curve"/>
      <point x="258" y="518" type="line"/>
      <point x="176" y="518" type="line"/>
      <point x="176" y="0" type="line"/>
      <point x="258" y="0" type="line"/>
      <point x="258" y="240" type="line"/>
      <point x="280" y="248"/>
      <point x="314" y="253"/>
      <point x="342" y="253" type="curve" smooth="yes"/>
      <point x="427" y="253"/>
      <point x="477" y="217"/>
      <point x="477" y="112" type="curve" smooth="yes"/>
      <point x="477" y="-30"/>
      <point x="431" y="-65"/>
      <point x="391" y="-65" type="curve" smooth="yes"/>
      <point x="377" y="-65"/>
      <point x="362" y="-63"/>
      <point x="351" y="-59" type="curve"/>
      <point x="336" y="-121" type="line"/>
      <point x="350" y="-128"/>
      <point x="375" y="-132"/>
    </contour>
    <contour>
      <point x="28" y="449" type="line"/>
      <point x="422" y="449" type="line"/>
      <point x="422" y="518" type="line"/>
      <point x="28" y="518" type="line"/>
    </contour>
  </outline>
</glyph>
<glyph name="Dzhe.sc" format="1">
  <advance width="584"/>
  <outline>
    <contour>
      <point x="90" y="0" type="line"/>
      <point x="495" y="0" type="line"/>
      <point x="495" y="518" type="line"/>
      <point x="413" y="518" type="line"/>
      <point x="413" y="69" type="line"/>
      <point x="171" y="69" type="line"/>
      <point x="171" y="518" type="line"/>
      <point x="90" y="518" type="line"/>
    </contour>
    <contour>
      <point x="258" y="-151" type="line"/>
      <point x="327" y="-151" type="line"/>
      <point x="336" y="14" type="line"/>
      <point x="258" y="0" type="line"/>
    </contour>
  </outline>
</glyph>
<glyph name="E" format="1">
  <advance width="527"/>
  <outline>
    <contour>
      <point x="285" y="678" type="move" name="aboveUC"/>
    </contour>
    <contour>
      <point x="388" y="0" type="move" name="ogonekUC"/>
    </contour>
    <contour>
      <point x="298" y="-22" type="move" name="belowLC"/>
    </contour>
    <contour>
      <point x="90" y="0" type="line"/>
      <point x="478" y="0" type="line"/>
      <point x="478" y="71" type="line"/>
      <point x="173" y="71" type="line"/>
      <point x="173" y="309" type="line"/>
      <point x="422" y="309" type="line"/>
      <point x="422" y="380" type="line"/>
      <point x="173" y="380" type="line"/>
      <point x="173" y="586" type="line"/>
      <point x="468" y="586" type="line"/>
      <point x="468" y="656" type="line"/>
      <point x="90" y="656" type="line"/>
    </contour>
  </outline>
</glyph>
<glyph name="E.sc" format="1">
  <advance width="475"/>
  <outline>
    <contour>
      <point x="265" y="563" type="move" name="aboveUC"/>
    </contour>
    <contour>
      <point x="328" y="0" type="move" name="ogonekUC"/>
    </contour>
    <contour>
      <point x="267" y="-22" type="move" name="belowLC"/>
    </contour>
    <contour>
      <point x="90" y="0" type="line"/>
      <point x="426" y="0" type="line"/>
      <point x="426" y="66" type="line"/>
      <point x="173" y="66" type="line"/>
      <point x="173" y="239" type="line"/>
      <point x="379" y="239" type="line"/>
      <point x="379" y="302" type="line"/>
      <point x="173" y="302" type="line"/>
      <point x="173" y="452" type="line"/>
      <point x="416" y="452" type="line"/>
      <point x="416" y="518" type="line"/>
      <point x="90" y="518" type="line"/>
    </contour>
  </outline>
</glyph>
<glyph name="E.sups" format="1">
  <advance width="351"/>
  <outline>
    <contour>
      <point x="57" y="266" type="line"/>
      <point x="319" y="266" type="line"/>
      <point x="319" y="319" type="line"/>
      <point x="120" y="319" type="line"/>
      <point x="120" y="467" type="line"/>
      <point x="284" y="467" type="line"/>
      <point x="284" y="519" type="line"/>
      <point x="120" y="519" type="line"/>
      <point x="120" y="646" type="line"/>
      <point x="313" y="646" type="line"/>
      <point x="313" y="698" type="line"/>
      <point x="57" y="698" type="line"/>
    </contour>
  </outline>
</glyph>
<glyph name="Ecyr.sc" format="1">
  <advance width="502"/>
  <outline>
    <contour>
      <point x="213" y="530" type="curve" smooth="yes"/>
      <point x="142" y="530"/>
      <point x="89" y="506"/>
      <point x="43" y="462" type="curve"/>
      <point x="87" y="410" type="line"/>
      <point x="121" y="441"/>
      <point x="159" y="460"/>
      <point x="210" y="460" type="curve" smooth="yes"/>
      <point x="308" y="460"/>
      <point x="367" y="386"/>
      <point x="367" y="261" type="curve" smooth="yes"/>
      <point x="367" y="121"/>
      <point x="304" y="58"/>
      <point x="206" y="58" type="curve" smooth="yes"/>
      <point x="153" y="58"/>
      <point x="111" y="80"/>
      <point x="78" y="113" type="curve"/>
      <point x="32" y="61" type="line"/>
      <point x="70" y="23"/>
      <point x="130" y="-12"/>
      <point x="205" y="-12" type="curve" smooth="yes"/>
      <point x="344" y="-12"/>
      <point x="450" y="77"/>
      <point x="450" y="263" type="curve" smooth="yes"/>
      <point x="450" y="433"/>
      <point x="349" y="530"/>
    </contour>
    <contour>
      <point x="408" y="302" type="line"/>
      <point x="143" y="302" type="line"/>
      <point x="143" y="239" type="line"/>
      <point x="408" y="239" type="line"/>
    </contour>
  </outline>
</glyph>
<glyph name="Ef" format="1">
  <advance width="732"/>
  <outline>
    <contour>
      <point x="346" y="82" type="curve" smooth="yes"/>
      <point x="386" y="82" type="line"/>
      <point x="573" y="82"/>
      <point x="685" y="172"/>
      <point x="685" y="331" type="curve" smooth="yes"/>
      <point x="685" y="489"/>
      <point x="573" y="575"/>
      <point x="386" y="575" type="curve" smooth="yes"/>
      <point x="346" y="575" type="line" smooth="yes"/>
      <point x="158" y="575"/>
      <point x="47" y="489"/>
      <point x="47" y="331" type="curve" smooth="yes"/>
      <point x="47" y="172"/>
      <point x="158" y="82"/>
    </contour>
    <contour>
      <point x="341" y="146" type="line"/>
      <point x="203" y="146"/>
      <point x="127" y="215"/>
      <point x="127" y="331" type="curve" smooth="yes"/>
      <point x="127" y="447"/>
      <point x="203" y="511"/>
      <point x="341" y="511" type="curve" smooth="yes"/>
      <point x="391" y="511" type="line" smooth="yes"/>
      <point x="529" y="511"/>
      <point x="605" y="447"/>
      <point x="605" y="331" type="curve" smooth="yes"/>
      <point x="605" y="215"/>
      <point x="529" y="146"/>
      <point x="391" y="146" type="curve" smooth="yes"/>
    </contour>
    <contour>
      <point x="329" y="-12" type="line"/>
      <point x="403" y="-12" type="line"/>
      <point x="403" y="668" type="line"/>
      <point x="329" y="668" type="line"/>
    </contour>
  </outline>
</glyph>
<glyph name="El" format="1">
  <advance width="630"/>
  <outline>
    <contour>
      <point x="56" y="-12" type="curve" smooth="yes"/>
      <point x="135" y="-12"/>
      <point x="178" y="34"/>
      <point x="215" y="235" type="curve" smooth="yes"/>
      <point x="237" y="351"/>
      <point x="256" y="466"/>
      <point x="277" y="586" type="curve"/>
      <point x="457" y="586" type="line"/>
      <point x="457" y="0" type="line"/>
      <point x="540" y="0" type="line"/>
      <point x="540" y="656" type="line"/>
      <point x="212" y="656" type="line"/>
      <point x="187" y="512"/>
      <point x="164" y="381"/>
      <point x="137" y="244" type="curve" smooth="yes"/>
      <point x="106" y="89"/>
      <point x="80" y="68"/>
      <point x="45" y="68" type="curve" smooth="yes"/>
      <point x="35" y="68"/>
      <point x="27" y="70"/>
      <point x="17" y="74" type="curve"/>
      <point x="0" y="-3" type="line"/>
      <point x="18" y="-10"/>
      <point x="35" y="-12"/>
    </contour>
  </outline>
</glyph>
<glyph name="El.sc" format="1">
	<advance width="558"/>
	<outline>
		<contour>
			<point x="50" y="-12" type="curve" smooth="yes"/>
			<point x="121" y="-12"/>
			<point x="159" y="31"/>
			<point x="193" y="193" type="curve" smooth="yes"/>
			<point x="211" y="277"/>
			<point x="226" y="363"/>
			<point x="243" y="450" type="curve"/>
			<point x="385" y="450" type="line"/>
			<point x="385" y="0" type="line"/>
			<point x="468" y="0" type="line"/>
			<point x="468" y="518" type="line"/>
			<point x="180" y="518" type="line"/>
			<point x="159" y="409"/>
			<point x="139" y="306"/>
			<point x="116" y="201" type="curve" smooth="yes"/>
			<point x="90" y="83"/>
			<point x="68" y="66"/>
			<point x="39" y="66" type="curve" smooth="yes"/>
			<point x="31" y="66"/>
			<point x="25" y="68"/>
			<point x="17" y="70" type="curve"/>
			<point x="0" y="-5" type="line"/>
			<point x="14" y="-10"/>
			<point x="32" y="-12"/>
		</contour>
	</outline>
</glyph>
<glyph name="Endescender" format="1">
  <advance width="661"/>
  <outline>
    <contour>
      <point x="553" y="-188" type="line"/>
      <point x="626" y="-188" type="line"/>
      <point x="635" y="21" type="line"/>
      <point x="635" y="71" type="line"/>
      <point x="515" y="71" type="line"/>
      <point x="515" y="0" type="line"/>
      <point x="553" y="0" type="line"/>
    </contour>
    <component base="H"/>
  </outline>
</glyph>
<glyph name="Eogonek" format="1">
  <advance width="527"/>
  <outline>
    <contour>
      <point x="285" y="678" type="move" name="aboveUC"/>
    </contour>
    <contour>
      <point x="414" y="-212" type="curve" smooth="yes"/>
      <point x="440" y="-212"/>
      <point x="475" y="-199"/>
      <point x="494" y="-184" type="curve"/>
      <point x="471" y="-139" type="line"/>
      <point x="459" y="-148"/>
      <point x="446" y="-153"/>
      <point x="431" y="-153" type="curve" smooth="yes"/>
      <point x="407" y="-153"/>
      <point x="383" y="-138"/>
      <point x="383" y="-107" type="curve" smooth="yes"/>
      <point x="383" y="-54"/>
      <point x="429" y="-6"/>
      <point x="475" y="0" type="curve" smooth="yes"/>
      <point x="478" y="0" type="line"/>
      <point x="478" y="71" type="line"/>
      <point x="173" y="71" type="line"/>
      <point x="173" y="309" type="line"/>
      <point x="422" y="309" type="line"/>
      <point x="422" y="380" type="line"/>
      <point x="173" y="380" type="line"/>
      <point x="173" y="586" type="line"/>
      <point x="468" y="586" type="line"/>
      <point x="468" y="656" type="line"/>
      <point x="90" y="656" type="line"/>
      <point x="90" y="0" type="line"/>
      <point x="393" y="0" type="line"/>
      <point x="356" y="-24"/>
      <point x="318" y="-70"/>
      <point x="318" y="-125" type="curve" smooth="yes"/>
      <point x="318" y="-182"/>
      <point x="361" y="-212"/>
    </contour>
  </outline>
</glyph>
<glyph name="Eogonek.sc" format="1">
  <advance width="475"/>
  <outline>
    <contour>
      <point x="265" y="563" type="move" name="aboveUC"/>
    </contour>
    <contour>
      <point x="362" y="-212" type="curve" smooth="yes"/>
      <point x="389" y="-212"/>
      <point x="423" y="-199"/>
      <point x="442" y="-184" type="curve"/>
      <point x="419" y="-139" type="line"/>
      <point x="407" y="-148"/>
      <point x="395" y="-153"/>
      <point x="379" y="-153" type="curve" smooth="yes"/>
      <point x="355" y="-153"/>
      <point x="331" y="-138"/>
      <point x="331" y="-107" type="curve" smooth="yes"/>
      <point x="331" y="-54"/>
      <point x="377" y="-6"/>
      <point x="423" y="0" type="curve" smooth="yes"/>
      <point x="426" y="0" type="line"/>
      <point x="426" y="66" type="line"/>
      <point x="173" y="66" type="line"/>
      <point x="173" y="239" type="line"/>
      <point x="379" y="239" type="line"/>
      <point x="379" y="302" type="line"/>
      <point x="173" y="302" type="line"/>
      <point x="173" y="452" type="line"/>
      <point x="416" y="452" type="line"/>
      <point x="416" y="518" type="line"/>
      <point x="90" y="518" type="line"/>
      <point x="90" y="0" type="line"/>
      <point x="341" y="0" type="line"/>
      <point x="304" y="-24"/>
      <point x="267" y="-70"/>
      <point x="267" y="-125" type="curve" smooth="yes"/>
      <point x="267" y="-182"/>
      <point x="309" y="-212"/>
    </contour>
  </outline>
</glyph>
<glyph name="Eta.sc" format="1">
  <advance width="594"/>
  <outline>
    <contour>
      <point x="297" y="563" type="move" name="aboveLC"/>
    </contour>
    <contour>
      <point x="297" y="-22" type="move" name="belowLC"/>
    </contour>
    <component base="H.sc"/>
  </outline>
</glyph>
<glyph name="Eth" format="1">
  <advance width="638"/>
  <outline>
    <contour>
      <point x="33" y="321" type="line"/>
      <point x="344" y="321" type="line"/>
      <point x="344" y="368" type="line"/>
      <point x="114" y="368" type="line"/>
      <point x="33" y="364" type="line"/>
    </contour>
    <component base="D" xOffset="22"/>
  </outline>
</glyph>
<glyph name="Eth.sc" format="1">
  <advance width="574"/>
  <outline>
    <contour>
      <point x="33" y="248" type="line"/>
      <point x="319" y="248" type="line"/>
      <point x="319" y="295" type="line"/>
      <point x="111" y="295" type="line"/>
      <point x="33" y="291" type="line"/>
    </contour>
    <component base="D.sc" xOffset="20"/>
  </outline>
</glyph>
<glyph name="Ecyr.sc" format="1">
  <advance width="501"/>
  <outline>
    <contour>
      <point x="211" y="-9" type="curve" smooth="yes"/>
      <point x="344" y="-9"/>
      <point x="450" y="89"/>
      <point x="450" y="257" type="curve" smooth="yes"/>
      <point x="450" y="425"/>
      <point x="349" y="526"/>
      <point x="211" y="526" type="curve" smooth="yes"/>
      <point x="142" y="526"/>
      <point x="80" y="495"/>
      <point x="44" y="461" type="curve"/>
      <point x="88" y="408" type="line"/>
      <point x="120" y="437"/>
      <point x="161" y="455"/>
      <point x="208" y="455" type="curve" smooth="yes"/>
      <point x="307" y="455"/>
      <point x="368" y="379"/>
      <point x="368" y="262" type="curve" smooth="yes"/>
      <point x="368" y="137"/>
      <point x="304" y="62"/>
      <point x="209" y="62" type="curve" smooth="yes"/>
      <point x="155" y="62"/>
      <point x="113" y="83"/>
      <point x="76" y="116" type="curve"/>
      <point x="32" y="65" type="line"/>
      <point x="79" y="17"/>
      <point x="137" y="-9"/>
    </contour>
    <contour>
      <point x="131" y="235" type="line"/>
      <point x="407" y="235" type="line"/>
      <point x="407" y="304" type="line"/>
      <point x="131" y="304" type="line"/>
    </contour>
  </outline>
</glyph>
<glyph name="El.sc" format="1">
  <advance width="575"/>
  <outline>
    <contour>
      <point x="66" y="-9" type="curve" smooth="yes"/>
      <point x="145" y="-9"/>
      <point x="199" y="45"/>
      <point x="219" y="160" type="curve" smooth="yes"/>
      <point x="229" y="219"/>
      <point x="236" y="297"/>
      <point x="236" y="369" type="curve" smooth="yes"/>
      <point x="236" y="449" type="line"/>
      <point x="398" y="449" type="line"/>
      <point x="398" y="0" type="line"/>
      <point x="480" y="0" type="line"/>
      <point x="480" y="518" type="line"/>
      <point x="160" y="518" type="line"/>
      <point x="160" y="362" type="line" smooth="yes"/>
      <point x="160" y="295"/>
      <point x="153" y="227"/>
      <point x="142" y="175" type="curve" smooth="yes"/>
      <point x="129" y="104"/>
      <point x="98" y="68"/>
      <point x="56" y="68" type="curve" smooth="yes"/>
      <point x="44" y="68"/>
      <point x="36" y="70"/>
      <point x="29" y="73" type="curve"/>
      <point x="13" y="-2" type="line"/>
      <point x="31" y="-7"/>
      <point x="40" y="-9"/>
    </contour>
  </outline>
</glyph>
<glyph name="Esdescender.sc" format="1">
  <advance width="571"/>
  <outline>
    <contour>
      <point x="299" y="-188" type="line"/>
      <point x="372" y="-188" type="line"/>
      <point x="381" y="16" type="line"/>
      <point x="299" y="0" type="line"/>
    </contour>
    <component base="C"/>
  </outline>
</glyph>
<glyph name="Euro" format="1">
  <advance width="497"/>
  <outline>
    <contour>
      <point x="319" y="-12" type="curve" smooth="yes"/>
      <point x="392" y="-12"/>
      <point x="447" y="23"/>
      <point x="491" y="81" type="curve"/>
      <point x="442" y="125" type="line"/>
      <point x="408" y="79"/>
      <point x="373" y="54"/>
      <point x="324" y="54" type="curve" smooth="yes"/>
      <point x="223" y="54"/>
      <point x="166" y="157"/>
      <point x="166" y="321" type="curve" smooth="yes"/>
      <point x="166" y="482"/>
      <point x="224" y="584"/>
      <point x="330" y="584" type="curve" smooth="yes"/>
      <point x="372" y="584"/>
      <point x="405" y="560"/>
      <point x="433" y="525" type="curve"/>
      <point x="482" y="572" type="line"/>
      <point x="447" y="616"/>
      <point x="393" y="650"/>
      <point x="333" y="650" type="curve" smooth="yes"/>
      <point x="181" y="650"/>
      <point x="81" y="524"/>
      <point x="81" y="318" type="curve" smooth="yes"/>
      <point x="81" y="112"/>
      <point x="179" y="-12"/>
    </contour>
    <contour>
      <point x="23" y="235" type="line"/>
      <point x="385" y="235" type="line"/>
      <point x="385" y="283" type="line"/>
      <point x="91" y="283" type="line"/>
      <point x="23" y="278" type="line"/>
    </contour>
    <contour>
      <point x="23" y="350" type="line"/>
      <point x="425" y="350" type="line"/>
      <point x="425" y="399" type="line"/>
      <point x="92" y="399" type="line"/>
      <point x="23" y="394" type="line"/>
    </contour>
  </outline>
</glyph>
<glyph name="F.sc" format="1">
	<advance width="443"/>
	<outline>
		<contour>
			<point x="90" y="0" type="line"/>
			<point x="173" y="0" type="line"/>
			<point x="173" y="223" type="line"/>
			<point x="380" y="223" type="line"/>
			<point x="380" y="287" type="line"/>
			<point x="173" y="287" type="line"/>
			<point x="173" y="450" type="line"/>
			<point x="417" y="450" type="line"/>
			<point x="417" y="518" type="line"/>
			<point x="90" y="518" type="line"/>
		</contour>
		<contour>
			<point name="aboveUC" x="266" y="563" type="move"/>
		</contour>
		<contour>
			<point name="belowLC" x="135" y="-22" type="move"/>
		</contour>
	</outline>
</glyph>
<glyph name="F.sups" format="1">
  <advance width="330"/>
  <outline>
    <contour>
      <point x="57" y="266" type="line"/>
      <point x="120" y="266" type="line"/>
      <point x="120" y="455" type="line"/>
      <point x="285" y="455" type="line"/>
      <point x="285" y="508" type="line"/>
      <point x="120" y="508" type="line"/>
      <point x="120" y="646" type="line"/>
      <point x="314" y="646" type="line"/>
      <point x="314" y="698" type="line"/>
      <point x="57" y="698" type="line"/>
    </contour>
  </outline>
</glyph>
<glyph name="F.sc" format="1">
  <advance width="443"/>
  <outline>
    <contour>
      <point x="266" y="563" type="move" name="aboveUC"/>
    </contour>
    <contour>
      <point x="135" y="-22" type="move" name="belowLC"/>
    </contour>
    <contour>
      <point x="90" y="0" type="line"/>
      <point x="173" y="0" type="line"/>
      <point x="173" y="223" type="line"/>
      <point x="380" y="223" type="line"/>
      <point x="380" y="287" type="line"/>
      <point x="173" y="287" type="line"/>
      <point x="173" y="450" type="line"/>
      <point x="417" y="450" type="line"/>
      <point x="417" y="518" type="line"/>
      <point x="90" y="518" type="line"/>
    </contour>
  </outline>
</glyph>
<glyph name="Fita" format="1">
  <advance width="664"/>
  <outline>
    <contour>
      <point x="332" y="678" type="move" name="aboveUC"/>
    </contour>
    <contour>
      <point x="332" y="-12" type="curve" smooth="yes"/>
      <point x="497" y="-12"/>
      <point x="613" y="112"/>
      <point x="613" y="331" type="curve" smooth="yes"/>
      <point x="613" y="548"/>
      <point x="497" y="668"/>
      <point x="332" y="668" type="curve" smooth="yes"/>
      <point x="167" y="668"/>
      <point x="52" y="549"/>
      <point x="52" y="331" type="curve" smooth="yes"/>
      <point x="52" y="112"/>
      <point x="167" y="-12"/>
    </contour>
    <contour>
      <point x="332" y="58" type="curve" smooth="yes"/>
      <point x="212" y="58"/>
      <point x="134" y="156"/>
      <point x="134" y="334" type="curve" smooth="yes"/>
      <point x="134" y="502"/>
      <point x="212" y="598"/>
      <point x="332" y="598" type="curve" smooth="yes"/>
      <point x="452" y="598"/>
      <point x="530" y="502"/>
      <point x="530" y="334" type="curve" smooth="yes"/>
      <point x="530" y="156"/>
      <point x="452" y="58"/>
    </contour>
    <contour>
      <point x="108" y="311" type="line"/>
      <point x="561" y="311" type="line"/>
      <point x="561" y="379" type="line"/>
      <point x="108" y="379" type="line"/>
    </contour>
  </outline>
</glyph>
<glyph name="Fita.sc" format="1">
  <advance width="589"/>
  <outline>
    <contour>
      <point x="109" y="239" type="line"/>
      <point x="484" y="239" type="line"/>
      <point x="484" y="302" type="line"/>
      <point x="109" y="302" type="line"/>
    </contour>
    <component base="O.sc"/>
  </outline>
</glyph>
<glyph name="G" format="1">
  <advance width="617"/>
  <outline>
    <contour>
      <point x="348" y="-12" type="curve" smooth="yes"/>
      <point x="436" y="-12"/>
      <point x="508" y="20"/>
      <point x="550" y="64" type="curve"/>
      <point x="550" y="340" type="line"/>
      <point x="335" y="340" type="line"/>
      <point x="335" y="271" type="line"/>
      <point x="474" y="271" type="line"/>
      <point x="474" y="100" type="line"/>
      <point x="448" y="76"/>
      <point x="403" y="61"/>
      <point x="356" y="61" type="curve" smooth="yes"/>
      <point x="216" y="61"/>
      <point x="138" y="165"/>
      <point x="138" y="330" type="curve" smooth="yes"/>
      <point x="138" y="493"/>
      <point x="223" y="595"/>
      <point x="355" y="595" type="curve" smooth="yes"/>
      <point x="421" y="595"/>
      <point x="463" y="567"/>
      <point x="496" y="533" type="curve"/>
      <point x="542" y="587" type="line"/>
      <point x="504" y="627"/>
      <point x="444" y="668"/>
      <point x="353" y="668" type="curve" smooth="yes"/>
      <point x="179" y="668"/>
      <point x="52" y="539"/>
      <point x="52" y="328" type="curve" smooth="yes"/>
      <point x="52" y="114"/>
      <point x="175" y="-12"/>
    </contour>
    <contour>
      <point x="353" y="678" type="move" name="aboveUC"/>
    </contour>
    <contour>
      <point x="348" y="-22" type="move" name="belowLC"/>
    </contour>
  </outline>
</glyph>
<glyph name="G.sc" format="1">
  <advance width="549"/>
  <outline>
    <contour>
      <point x="308" y="563" type="move" name="aboveUC"/>
    </contour>
    <contour>
      <point x="305" y="-22" type="move" name="belowLC"/>
    </contour>
    <contour>
      <point x="307" y="-12" type="curve" smooth="yes"/>
      <point x="382" y="-12"/>
      <point x="445" y="13"/>
      <point x="483" y="47" type="curve"/>
      <point x="483" y="273" type="line"/>
      <point x="295" y="273" type="line"/>
      <point x="295" y="212" type="line"/>
      <point x="407" y="212" type="line"/>
      <point x="407" y="85" type="line"/>
      <point x="386" y="67"/>
      <point x="352" y="57"/>
      <point x="314" y="57" type="curve" smooth="yes"/>
      <point x="199" y="57"/>
      <point x="137" y="134"/>
      <point x="137" y="258" type="curve" smooth="yes"/>
      <point x="137" y="385"/>
      <point x="206" y="460"/>
      <point x="314" y="460" type="curve" smooth="yes"/>
      <point x="367" y="460"/>
      <point x="400" y="441"/>
      <point x="428" y="414" type="curve"/>
      <point x="474" y="465" type="line"/>
      <point x="440" y="497"/>
      <point x="389" y="530"/>
      <point x="313" y="530" type="curve" smooth="yes"/>
      <point x="163" y="530"/>
      <point x="52" y="428"/>
      <point x="52" y="258" type="curve" smooth="yes"/>
      <point x="52" y="85"/>
      <point x="159" y="-12"/>
    </contour>
  </outline>
</glyph>
<glyph name="G.sups" format="1">
  <advance width="411"/>
  <outline>
    <contour>
      <point x="232" y="258" type="curve" smooth="yes"/>
      <point x="291" y="258"/>
      <point x="340" y="281"/>
      <point x="370" y="309" type="curve"/>
      <point x="370" y="494" type="line"/>
      <point x="224" y="494" type="line"/>
      <point x="224" y="442" type="line"/>
      <point x="313" y="442" type="line"/>
      <point x="313" y="336" type="line"/>
      <point x="297" y="321"/>
      <point x="268" y="312"/>
      <point x="238" y="312" type="curve" smooth="yes"/>
      <point x="147" y="312"/>
      <point x="97" y="378"/>
      <point x="97" y="484" type="curve" smooth="yes"/>
      <point x="97" y="587"/>
      <point x="152" y="653"/>
      <point x="237" y="653" type="curve" smooth="yes"/>
      <point x="280" y="653"/>
      <point x="307" y="636"/>
      <point x="328" y="614" type="curve"/>
      <point x="364" y="654" type="line"/>
      <point x="337" y="680"/>
      <point x="296" y="706"/>
      <point x="237" y="706" type="curve" smooth="yes"/>
      <point x="119" y="706"/>
      <point x="32" y="621"/>
      <point x="32" y="482" type="curve" smooth="yes"/>
      <point x="32" y="341"/>
      <point x="117" y="258"/>
    </contour>
  </outline>
</glyph>
<glyph name="Gamma" format="1">
  <advance width="488"/>
  <outline>
    <contour>
      <point x="90" y="0" type="line"/>
      <point x="173" y="0" type="line"/>
      <point x="173" y="586" type="line"/>
      <point x="468" y="586" type="line"/>
      <point x="468" y="656" type="line"/>
      <point x="90" y="656" type="line"/>
    </contour>
  </outline>
</glyph>
<glyph name="Germandbls" format="1">
  <advance width="667"/>
  <outline>
    <contour>
      <point x="434" y="-12" type="curve" smooth="yes"/>
      <point x="549" y="-12"/>
      <point x="624" y="67"/>
      <point x="624" y="171" type="curve" smooth="yes"/>
      <point x="624" y="266"/>
      <point x="565" y="334"/>
      <point x="426" y="362" type="curve"/>
      <point x="564" y="514" type="line"/>
      <point x="528" y="607"/>
      <point x="458" y="668"/>
      <point x="347" y="668" type="curve" smooth="yes"/>
      <point x="185" y="668"/>
      <point x="91" y="573"/>
      <point x="91" y="417" type="curve" smooth="yes"/>
      <point x="91" y="0" type="line"/>
      <point x="175" y="0" type="line"/>
      <point x="175" y="402" type="line" smooth="yes"/>
      <point x="175" y="537"/>
      <point x="238" y="599"/>
      <point x="344" y="599" type="curve" smooth="yes"/>
      <point x="412" y="599"/>
      <point x="455" y="562"/>
      <point x="477" y="517" type="curve"/>
      <point x="340" y="364" type="line"/>
      <point x="345" y="310" type="line"/>
      <point x="498" y="284"/>
      <point x="538" y="233"/>
      <point x="538" y="171" type="curve" smooth="yes"/>
      <point x="538" y="105"/>
      <point x="497" y="58"/>
      <point x="427" y="58" type="curve" smooth="yes"/>
      <point x="378" y="58"/>
      <point x="339" y="76"/>
      <point x="301" y="118" type="curve"/>
      <point x="253" y="64" type="line"/>
      <point x="294" y="19"/>
      <point x="357" y="-12"/>
    </contour>
  </outline>
</glyph>
<glyph name="Germandbls.sc" format="1">
  <advance width="594"/>
  <outline>
    <contour>
      <point x="388" y="-12" type="curve" smooth="yes"/>
      <point x="489" y="-12"/>
      <point x="551" y="55"/>
      <point x="551" y="136" type="curve" smooth="yes"/>
      <point x="551" y="213"/>
      <point x="500" y="262"/>
      <point x="389" y="284" type="curve"/>
      <point x="502" y="397" type="line"/>
      <point x="473" y="475"/>
      <point x="410" y="530"/>
      <point x="313" y="530" type="curve" smooth="yes"/>
      <point x="172" y="530"/>
      <point x="91" y="449"/>
      <point x="91" y="327" type="curve" smooth="yes"/>
      <point x="91" y="0" type="line"/>
      <point x="175" y="0" type="line"/>
      <point x="175" y="313" type="line" smooth="yes"/>
      <point x="175" y="413"/>
      <point x="225" y="463"/>
      <point x="309" y="463" type="curve" smooth="yes"/>
      <point x="365" y="463"/>
      <point x="400" y="435"/>
      <point x="419" y="400" type="curve"/>
      <point x="306" y="286" type="line"/>
      <point x="312" y="240" type="line"/>
      <point x="433" y="223"/>
      <point x="466" y="186"/>
      <point x="466" y="137" type="curve" smooth="yes"/>
      <point x="466" y="89"/>
      <point x="435" y="55"/>
      <point x="381" y="55" type="curve" smooth="yes"/>
      <point x="343" y="55"/>
      <point x="309" y="68"/>
      <point x="277" y="99" type="curve"/>
      <point x="234" y="49" type="line"/>
      <point x="268" y="15"/>
      <point x="322" y="-12"/>
    </contour>
  </outline>
</glyph>
<glyph name="Ghe" format="1">
  <advance width="498"/>
  <outline>
    <component base="Gamma"/>
    <contour>
      <point x="290" y="678" type="move" name="aboveUC"/>
    </contour>
  </outline>
</glyph>
<glyph name="Ghe.sc" format="1">
  <advance width="448"/>
  <outline>
    <contour>
      <point x="270" y="540" type="move" name="aboveUC"/>
    </contour>
    <component base="Gamma.sc"/>
  </outline>
</glyph>
<glyph name="Ghestroke.sc" format="1">
  <advance width="470"/>
  <outline>
    <contour>
      <point x="33" y="231" type="line"/>
      <point x="344" y="231" type="line"/>
      <point x="344" y="278" type="line"/>
      <point x="114" y="278" type="line"/>
      <point x="33" y="275" type="line"/>
    </contour>
    <component base="Ghe.sc" xOffset="22"/>
  </outline>
</glyph>
<glyph name="Gheup.sc" format="1">
  <advance width="448"/>
  <outline>
    <contour>
      <point x="310" y="448" type="line"/>
      <point x="418" y="448" type="line"/>
      <point x="426" y="687" type="line"/>
      <point x="358" y="687" type="line"/>
      <point x="342" y="515" type="line"/>
      <point x="310" y="515" type="line"/>
    </contour>
    <component base="Gamma.sc"/>
  </outline>
</glyph>
<glyph name="Ghook" format="1">
  <advance width="617"/>
  <outline>
    <contour>
      <point x="348" y="-12" type="curve" smooth="yes"/>
      <point x="436" y="-12"/>
      <point x="508" y="20"/>
      <point x="550" y="64" type="curve"/>
      <point x="550" y="340" type="line"/>
      <point x="335" y="340" type="line"/>
      <point x="335" y="271" type="line"/>
      <point x="474" y="271" type="line"/>
      <point x="474" y="100" type="line"/>
      <point x="448" y="76"/>
      <point x="403" y="61"/>
      <point x="356" y="61" type="curve" smooth="yes"/>
      <point x="216" y="61"/>
      <point x="138" y="165"/>
      <point x="138" y="330" type="curve" smooth="yes"/>
      <point x="138" y="493"/>
      <point x="223" y="595"/>
      <point x="355" y="595" type="curve" smooth="yes"/>
      <point x="421" y="595"/>
      <point x="463" y="574"/>
      <point x="496" y="549" type="curve"/>
      <point x="542" y="604" type="line"/>
      <point x="504" y="635"/>
      <point x="444" y="668"/>
      <point x="353" y="668" type="curve" smooth="yes"/>
      <point x="179" y="668"/>
      <point x="52" y="539"/>
      <point x="52" y="328" type="curve" smooth="yes"/>
      <point x="52" y="114"/>
      <point x="175" y="-12"/>
    </contour>
    <contour>
      <point x="469" y="604" type="curve"/>
      <point x="542" y="604" type="line"/>
      <point x="520" y="635"/>
      <point x="510" y="653"/>
      <point x="510" y="683" type="curve" smooth="yes"/>
      <point x="510" y="713"/>
      <point x="529" y="737"/>
      <point x="563" y="737" type="curve" smooth="yes"/>
      <point x="577" y="737"/>
      <point x="586" y="732"/>
      <point x="597" y="728" type="curve"/>
      <point x="613" y="791" type="line"/>
      <point x="597" y="797"/>
      <point x="578" y="804"/>
      <point x="551" y="804" type="curve" smooth="yes"/>
      <point x="483" y="804"/>
      <point x="438" y="759"/>
      <point x="438" y="695" type="curve" smooth="yes"/>
      <point x="438" y="664"/>
      <point x="448" y="640"/>
    </contour>
  </outline>
</glyph>
<glyph name="Ghook.sc" format="1">
  <advance width="549"/>
  <outline>
    <contour>
      <point x="307" y="-12" type="curve" smooth="yes"/>
      <point x="382" y="-12"/>
      <point x="445" y="13"/>
      <point x="483" y="47" type="curve"/>
      <point x="483" y="273" type="line"/>
      <point x="295" y="273" type="line"/>
      <point x="295" y="212" type="line"/>
      <point x="407" y="212" type="line"/>
      <point x="407" y="85" type="line"/>
      <point x="386" y="67"/>
      <point x="352" y="57"/>
      <point x="314" y="57" type="curve" smooth="yes"/>
      <point x="199" y="57"/>
      <point x="137" y="134"/>
      <point x="137" y="258" type="curve" smooth="yes"/>
      <point x="137" y="385"/>
      <point x="206" y="460"/>
      <point x="314" y="460" type="curve" smooth="yes"/>
      <point x="367" y="460"/>
      <point x="400" y="443"/>
      <point x="428" y="422" type="curve"/>
      <point x="474" y="473" type="line"/>
      <point x="440" y="500"/>
      <point x="389" y="530"/>
      <point x="313" y="530" type="curve" smooth="yes"/>
      <point x="163" y="530"/>
      <point x="52" y="428"/>
      <point x="52" y="258" type="curve" smooth="yes"/>
      <point x="52" y="85"/>
      <point x="159" y="-12"/>
    </contour>
    <contour>
      <point x="403" y="472" type="curve"/>
      <point x="474" y="473" type="line"/>
      <point x="457" y="494"/>
      <point x="448" y="514"/>
      <point x="448" y="536" type="curve" smooth="yes"/>
      <point x="448" y="560"/>
      <point x="464" y="577"/>
      <point x="492" y="577" type="curve" smooth="yes"/>
      <point x="504" y="577"/>
      <point x="511" y="574"/>
      <point x="520" y="571" type="curve"/>
      <point x="536" y="630" type="line"/>
      <point x="520" y="636"/>
      <point x="503" y="641"/>
      <point x="478" y="641" type="curve" smooth="yes"/>
      <point x="417" y="641"/>
      <point x="377" y="601"/>
      <point x="377" y="548" type="curve" smooth="yes"/>
      <point x="377" y="524"/>
      <point x="387" y="499"/>
    </contour>
  </outline>
</glyph>
<glyph name="Gsmall" format="1">
  <advance width="497"/>
  <outline>
    <contour>
      <point x="308" y="509" type="move" name="aboveUC"/>
    </contour>
    <contour>
      <point x="304" y="-22" type="move" name="belowLC"/>
    </contour>
    <contour>
      <point x="280" y="-12" type="curve" smooth="yes"/>
      <point x="352" y="-12"/>
      <point x="412" y="15"/>
      <point x="448" y="49" type="curve"/>
      <point x="448" y="262" type="line"/>
      <point x="267" y="262" type="line"/>
      <point x="267" y="203" type="line"/>
      <point x="375" y="203" type="line"/>
      <point x="375" y="84" type="line"/>
      <point x="355" y="66"/>
      <point x="323" y="54"/>
      <point x="287" y="54" type="curve" smooth="yes"/>
      <point x="192" y="54"/>
      <point x="129" y="125"/>
      <point x="129" y="244" type="curve" smooth="yes"/>
      <point x="129" y="364"/>
      <point x="200" y="433"/>
      <point x="289" y="433" type="curve" smooth="yes"/>
      <point x="341" y="433"/>
      <point x="372" y="411"/>
      <point x="400" y="387" type="curve"/>
      <point x="440" y="438" type="line"/>
      <point x="406" y="469"/>
      <point x="360" y="498"/>
      <point x="285" y="498" type="curve" smooth="yes"/>
      <point x="152" y="498"/>
      <point x="46" y="402"/>
      <point x="46" y="244" type="curve" smooth="yes"/>
      <point x="46" y="78"/>
      <point x="149" y="-12"/>
    </contour>
  </outline>
</glyph>
<glyph name="Gheup" format="1">
  <advance width="498"/>
  <outline>
    <contour>
      <point x="276" y="399" type="line"/>
      <point x="375" y="399" type="line"/>
      <point x="381" y="712" type="line"/>
      <point x="457" y="712" type="line"/>
      <point x="446" y="656" type="line"/>
      <point x="276" y="656" type="line"/>
    </contour>
    <contour>
      <point x="174" y="186" type="line"/>
      <point x="266" y="186" type="line"/>
      <point x="270" y="702" type="line"/>
      <point x="418" y="702" type="line"/>
      <point x="403" y="656" type="line"/>
      <point x="174" y="656" type="line"/>
    </contour>
  </outline>
</glyph>
<glyph name="Gheup.sc" format="1">
  <advance width="445"/>
  <outline>
    <contour>
      <point x="90" y="0" type="line"/>
      <point x="171" y="0" type="line"/>
      <point x="171" y="449" type="line"/>
      <point x="416" y="449" type="line"/>
      <point x="407" y="518" type="line"/>
      <point x="90" y="518" type="line"/>
    </contour>
    <contour>
      <point x="314" y="449" type="line"/>
      <point x="416" y="449" type="line"/>
      <point x="424" y="653" type="line"/>
      <point x="356" y="653" type="line"/>
      <point x="340" y="518" type="line"/>
      <point x="314" y="518" type="line"/>
    </contour>
  </outline>
</glyph>
<glyph name="Ghook" format="1">
  <advance width="617"/>
  <outline>
    <contour>
      <point x="348" y="-12" type="curve" smooth="yes"/>
      <point x="436" y="-12"/>
      <point x="508" y="20"/>
      <point x="550" y="64" type="curve"/>
      <point x="550" y="340" type="line"/>
      <point x="335" y="340" type="line"/>
      <point x="335" y="271" type="line"/>
      <point x="474" y="271" type="line"/>
      <point x="474" y="100" type="line"/>
      <point x="448" y="76"/>
      <point x="403" y="61"/>
      <point x="356" y="61" type="curve" smooth="yes"/>
      <point x="216" y="61"/>
      <point x="138" y="165"/>
      <point x="138" y="330" type="curve" smooth="yes"/>
      <point x="138" y="493"/>
      <point x="223" y="595"/>
      <point x="355" y="595" type="curve" smooth="yes"/>
      <point x="421" y="595"/>
      <point x="463" y="574"/>
      <point x="496" y="549" type="curve"/>
      <point x="542" y="604" type="line"/>
      <point x="504" y="635"/>
      <point x="444" y="668"/>
      <point x="353" y="668" type="curve" smooth="yes"/>
      <point x="179" y="668"/>
      <point x="52" y="539"/>
      <point x="52" y="328" type="curve" smooth="yes"/>
      <point x="52" y="114"/>
      <point x="175" y="-12"/>
    </contour>
    <contour>
      <point x="488" y="601" type="curve"/>
      <point x="471" y="627"/>
      <point x="521" y="641"/>
      <point x="521" y="662" type="curve" smooth="yes"/>
      <point x="515" y="686"/>
      <point x="521" y="711"/>
      <point x="545" y="720" type="curve" smooth="yes"/>
      <point x="555" y="732"/>
      <point x="570" y="733"/>
      <point x="587" y="730" type="curve"/>
      <point x="591" y="730"/>
      <point x="598" y="746"/>
      <point x="602" y="745" type="curve"/>
      <point x="594" y="748"/>
      <point x="595" y="799"/>
      <point x="585" y="799" type="curve" smooth="yes"/>
      <point x="547" y="801"/>
      <point x="512" y="785"/>
      <point x="495" y="752" type="curve" smooth="yes"/>
      <point x="458" y="731"/>
      <point x="443" y="693"/>
      <point x="459" y="637" type="curve"/>
      <point x="459" y="627"/>
      <point x="484" y="612"/>
    </contour>
  </outline>
</glyph>
<glyph name="Ghook.sc" format="1">
  <advance width="549"/>
  <outline>
    <contour>
      <point x="307" y="-12" type="curve" smooth="yes"/>
      <point x="382" y="-12"/>
      <point x="445" y="13"/>
      <point x="483" y="47" type="curve"/>
      <point x="483" y="273" type="line"/>
      <point x="295" y="273" type="line"/>
      <point x="295" y="212" type="line"/>
      <point x="407" y="212" type="line"/>
      <point x="407" y="85" type="line"/>
      <point x="386" y="67"/>
      <point x="352" y="57"/>
      <point x="314" y="57" type="curve" smooth="yes"/>
      <point x="199" y="57"/>
      <point x="137" y="134"/>
      <point x="137" y="258" type="curve" smooth="yes"/>
      <point x="137" y="385"/>
      <point x="206" y="460"/>
      <point x="314" y="460" type="curve" smooth="yes"/>
      <point x="367" y="460"/>
      <point x="400" y="443"/>
      <point x="428" y="422" type="curve"/>
      <point x="474" y="473" type="line"/>
      <point x="440" y="500"/>
      <point x="389" y="530"/>
      <point x="313" y="530" type="curve" smooth="yes"/>
      <point x="163" y="530"/>
      <point x="52" y="428"/>
      <point x="52" y="258" type="curve" smooth="yes"/>
      <point x="52" y="85"/>
      <point x="159" y="-12"/>
    </contour>
    <contour>
      <point x="421" y="470" type="curve"/>
      <point x="407" y="489"/>
      <point x="457" y="505"/>
      <point x="457" y="521" type="curve" smooth="yes"/>
      <point x="453" y="538"/>
      <point x="457" y="557"/>
      <point x="477" y="564" type="curve" smooth="yes"/>
      <point x="486" y="574"/>
      <point x="498" y="574"/>
      <point x="512" y="572" type="curve"/>
      <point x="515" y="572"/>
      <point x="521" y="587"/>
      <point x="524" y="586" type="curve"/>
      <point x="517" y="589"/>
      <point x="520" y="636"/>
      <point x="512" y="636" type="curve" smooth="yes"/>
      <point x="477" y="639"/>
      <point x="447" y="626"/>
      <point x="430" y="599" type="curve" smooth="yes"/>
      <point x="396" y="584"/>
      <point x="381" y="545"/>
      <point x="395" y="499" type="curve"/>
      <point x="395" y="491"/>
      <point x="418" y="478"/>
    </contour>
  </outline>
</glyph>
<glyph name="H.sc" format="1">
  <advance width="594"/>
  <outline>
    <contour>
      <point x="90" y="0" type="line"/>
      <point x="173" y="0" type="line"/>
      <point x="173" y="235" type="line"/>
      <point x="421" y="235" type="line"/>
      <point x="421" y="0" type="line"/>
      <point x="504" y="0" type="line"/>
      <point x="504" y="518" type="line"/>
      <point x="421" y="518" type="line"/>
      <point x="421" y="307" type="line"/>
      <point x="173" y="307" type="line"/>
      <point x="173" y="518" type="line"/>
      <point x="90" y="518" type="line"/>
    </contour>
    <contour>
      <point x="297" y="563" type="move" name="aboveUC"/>
    </contour>
    <contour>
      <point x="297" y="-22" type="move" name="belowLC"/>
    </contour>
  </outline>
</glyph>
<glyph name="H.sups" format="1">
  <advance width="434"/>
  <outline>
    <contour>
      <point x="57" y="266" type="line"/>
      <point x="120" y="266" type="line"/>
      <point x="120" y="467" type="line"/>
      <point x="315" y="467" type="line"/>
      <point x="315" y="266" type="line"/>
      <point x="378" y="266" type="line"/>
      <point x="378" y="698" type="line"/>
      <point x="315" y="698" type="line"/>
      <point x="315" y="520" type="line"/>
      <point x="120" y="520" type="line"/>
      <point x="120" y="698" type="line"/>
      <point x="57" y="698" type="line"/>
    </contour>
  </outline>
</glyph>
<glyph name="Hard" format="1">
  <advance width="720"/>
  <outline>
    <contour>
      <point x="238" y="0" type="line"/>
      <point x="436" y="0" type="line" smooth="yes"/>
      <point x="581" y="0"/>
      <point x="676" y="62"/>
      <point x="676" y="202" type="curve" smooth="yes"/>
      <point x="676" y="331"/>
      <point x="570" y="387"/>
      <point x="430" y="387" type="curve" smooth="yes"/>
      <point x="322" y="387" type="line"/>
      <point x="322" y="656" type="line"/>
      <point x="28" y="656" type="line"/>
      <point x="28" y="586" type="line"/>
      <point x="238" y="586" type="line"/>
    </contour>
    <contour>
      <point x="322" y="68" type="line"/>
      <point x="322" y="320" type="line"/>
      <point x="419" y="320" type="line" smooth="yes"/>
      <point x="533" y="320"/>
      <point x="594" y="280"/>
      <point x="594" y="200" type="curve" smooth="yes"/>
      <point x="594" y="107"/>
      <point x="536" y="68"/>
      <point x="426" y="68" type="curve" smooth="yes"/>
    </contour>
  </outline>
</glyph>
<glyph name="Hbar" format="1">
  <advance width="687"/>
  <outline>
    <contour>
      <point x="32" y="492" type="line"/>
      <point x="654" y="492" type="line"/>
      <point x="654" y="539" type="line"/>
      <point x="113" y="539" type="line"/>
      <point x="32" y="534" type="line"/>
    </contour>
    <component base="H" xOffset="20"/>
  </outline>
</glyph>
<glyph name="Hbar.sc" format="1">
  <advance width="630"/>
  <outline>
    <contour>
      <point x="32" y="384" type="line"/>
      <point x="598" y="384" type="line"/>
      <point x="598" y="430" type="line"/>
      <point x="113" y="430" type="line"/>
      <point x="32" y="425" type="line"/>
    </contour>
    <contour>
      <point x="110" y="0" type="line"/>
      <point x="193" y="0" type="line"/>
      <point x="193" y="239" type="line"/>
      <point x="441" y="239" type="line"/>
      <point x="441" y="0" type="line"/>
      <point x="524" y="0" type="line"/>
      <point x="524" y="518" type="line"/>
      <point x="441" y="518" type="line"/>
      <point x="441" y="304" type="line"/>
      <point x="193" y="304" type="line"/>
      <point x="193" y="518" type="line"/>
      <point x="110" y="518" type="line"/>
    </contour>
  </outline>
</glyph>
<glyph name="Hard.sc" format="1">
  <advance width="614"/>
  <outline>
    <contour>
      <point x="192" y="0" type="line"/>
      <point x="358" y="0" type="line" smooth="yes"/>
      <point x="483" y="0"/>
      <point x="571" y="40"/>
      <point x="571" y="157" type="curve" smooth="yes"/>
      <point x="571" y="264"/>
      <point x="482" y="312"/>
      <point x="358" y="312" type="curve" smooth="yes"/>
      <point x="275" y="312" type="line"/>
      <point x="275" y="518" type="line"/>
      <point x="28" y="518" type="line"/>
      <point x="28" y="449" type="line"/>
      <point x="192" y="449" type="line"/>
    </contour>
    <contour>
      <point x="275" y="65" type="line"/>
      <point x="275" y="246" type="line"/>
      <point x="349" y="246" type="line" smooth="yes"/>
      <point x="443" y="246"/>
      <point x="490" y="219"/>
      <point x="490" y="156" type="curve" smooth="yes"/>
      <point x="490" y="88"/>
      <point x="442" y="65"/>
      <point x="349" y="65" type="curve" smooth="yes"/>
    </contour>
  </outline>
</glyph>
<glyph name="I.alt" format="1">
  <advance width="343"/>
  <outline>
    <contour>
      <point x="46" y="0" type="line"/>
      <point x="296" y="0" type="line"/>
      <point x="296" y="71" type="line"/>
      <point x="213" y="71" type="line"/>
      <point x="213" y="586" type="line"/>
      <point x="296" y="586" type="line"/>
      <point x="296" y="656" type="line"/>
      <point x="46" y="656" type="line"/>
      <point x="46" y="586" type="line"/>
      <point x="130" y="586" type="line"/>
      <point x="130" y="71" type="line"/>
      <point x="46" y="71" type="line"/>
    </contour>
    <contour>
      <point x="171" y="678" type="move" name="aboveUC"/>
    </contour>
    <contour>
      <point x="148" y="0" type="move" name="ogonekUC"/>
    </contour>
    <contour>
      <point x="173" y="-22" type="move" name="belowLC"/>
    </contour>
  </outline>
</glyph>
<glyph name="I" format="1">
  <advance width="263"/>
  <outline>
    <contour>
      <point x="131" y="678" type="move" name="aboveUC"/>
    </contour>
    <contour>
      <point x="108" y="0" type="move" name="ogonekUC"/>
    </contour>
    <contour>
      <point x="131" y="-22" type="move" name="belowLC"/>
    </contour>
    <contour>
      <point x="90" y="0" type="line"/>
      <point x="173" y="0" type="line"/>
      <point x="173" y="656" type="line"/>
      <point x="90" y="656" type="line"/>
    </contour>
  </outline>
</glyph>
<glyph name="I.sc" format="1">
  <advance width="263"/>
  <outline>
    <contour>
      <point x="131" y="563" type="move" name="aboveUC"/>
    </contour>
    <contour>
      <point x="108" y="0" type="move" name="ogonekUC"/>
    </contour>
    <contour>
      <point x="131" y="-22" type="move" name="belowLC"/>
    </contour>
    <contour>
      <point x="90" y="0" type="line"/>
      <point x="173" y="0" type="line"/>
      <point x="173" y="518" type="line"/>
      <point x="90" y="518" type="line"/>
    </contour>
  </outline>
</glyph>
<glyph name="I.sups" format="1">
  <advance width="176"/>
  <outline>
    <contour>
      <point x="57" y="266" type="line"/>
      <point x="120" y="266" type="line"/>
      <point x="120" y="698" type="line"/>
      <point x="57" y="698" type="line"/>
    </contour>
  </outline>
</glyph>
<glyph name="IJ" format="1">
  <advance width="526"/>
  <outline>
    <contour>
      <point x="90" y="0" type="line"/>
      <point x="173" y="0" type="line"/>
      <point x="173" y="656" type="line"/>
      <point x="90" y="656" type="line"/>
    </contour>
    <contour>
      <point x="302" y="-165" type="curve" smooth="yes"/>
      <point x="398" y="-165"/>
      <point x="436" y="-102"/>
      <point x="436" y="-3" type="curve" smooth="yes"/>
      <point x="436" y="656" type="line"/>
      <point x="353" y="656" type="line"/>
      <point x="353" y="0" type="line" smooth="yes"/>
      <point x="353" y="-59"/>
      <point x="341" y="-96"/>
      <point x="292" y="-96" type="curve" smooth="yes"/>
      <point x="275" y="-96"/>
      <point x="259" y="-91"/>
      <point x="246" y="-87" type="curve"/>
      <point x="230" y="-153" type="line"/>
      <point x="247" y="-159"/>
      <point x="272" y="-165"/>
    </contour>
  </outline>
</glyph>
<glyph name="IJ.sc" format="1">
  <advance width="526"/>
  <outline>
    <contour>
      <point x="90" y="0" type="line"/>
      <point x="173" y="0" type="line"/>
      <point x="173" y="518" type="line"/>
      <point x="90" y="518" type="line"/>
    </contour>
    <contour>
      <point x="302" y="-152" type="curve" smooth="yes"/>
      <point x="398" y="-152"/>
      <point x="436" y="-89"/>
      <point x="436" y="10" type="curve" smooth="yes"/>
      <point x="436" y="518" type="line"/>
      <point x="353" y="518" type="line"/>
      <point x="353" y="13" type="line" smooth="yes"/>
      <point x="353" y="-46"/>
      <point x="341" y="-82"/>
      <point x="292" y="-82" type="curve" smooth="yes"/>
      <point x="275" y="-82"/>
      <point x="259" y="-78"/>
      <point x="246" y="-74" type="curve"/>
      <point x="230" y="-139" type="line"/>
      <point x="247" y="-146"/>
      <point x="272" y="-152"/>
    </contour>
  </outline>
</glyph>
<glyph name="I.sups" format="1">
  <advance width="176"/>
  <outline>
    <contour>
      <point x="57" y="395" type="line"/>
      <point x="120" y="395" type="line"/>
      <point x="120" y="827" type="line"/>
      <point x="57" y="827" type="line"/>
    </contour>
  </outline>
</glyph>
<glyph name="Icyr" format="1">
  <advance width="656"/>
  <outline>
    <contour>
      <point x="90" y="0" type="line"/>
      <point x="178" y="0" type="line"/>
      <point x="419" y="414" type="line"/>
      <point x="490" y="548" type="line"/>
      <point x="494" y="548" type="line"/>
      <point x="490" y="482"/>
      <point x="484" y="412"/>
      <point x="484" y="343" type="curve" smooth="yes"/>
      <point x="484" y="0" type="line"/>
      <point x="566" y="0" type="line"/>
      <point x="566" y="656" type="line"/>
      <point x="478" y="656" type="line"/>
      <point x="237" y="242" type="line"/>
      <point x="166" y="108" type="line"/>
      <point x="162" y="108" type="line"/>
      <point x="166" y="174"/>
      <point x="172" y="248"/>
      <point x="172" y="317" type="curve" smooth="yes"/>
      <point x="172" y="656" type="line"/>
      <point x="90" y="656" type="line"/>
    </contour>
    <contour>
      <point x="332" y="682" type="move" name="aboveUC"/>
    </contour>
  </outline>
</glyph>
<glyph name="Icyr.sc" format="1">
  <advance width="585"/>
  <outline>
    <contour>
      <point x="495" y="0" type="line"/>
      <point x="418" y="0" type="line"/>
      <point x="418" y="245" type="line" smooth="yes"/>
      <point x="418" y="301"/>
      <point x="425" y="363"/>
      <point x="429" y="417" type="curve"/>
      <point x="425" y="417" type="line"/>
      <point x="365" y="306" type="line"/>
      <point x="173" y="0" type="line"/>
      <point x="90" y="0" type="line"/>
      <point x="90" y="518" type="line"/>
      <point x="167" y="518" type="line"/>
      <point x="167" y="275" type="line" smooth="yes"/>
      <point x="167" y="219"/>
      <point x="160" y="153"/>
      <point x="156" y="101" type="curve"/>
      <point x="160" y="101" type="line"/>
      <point x="220" y="212" type="line"/>
      <point x="410" y="518" type="line"/>
      <point x="495" y="518" type="line"/>
    </contour>
    <contour>
      <point x="298" y="540" type="move" name="aboveUC"/>
    </contour>
  </outline>
</glyph>
<glyph name="Ie" format="1">
  <advance width="527"/>
  <outline>
    <contour>
      <point x="285" y="678" type="move" name="aboveUC"/>
    </contour>
    <component base="E"/>
  </outline>
</glyph>
<glyph name="Ie.sc" format="1">
  <advance width="475"/>
  <outline>
    <contour>
      <point x="265" y="563" type="move" name="aboveUC"/>
    </contour>
    <contour>
      <point x="267" y="-22" type="move" name="belowLC"/>
    </contour>
    <component base="E.sc"/>
  </outline>
</glyph>
<glyph name="Ieukran" format="1">
  <advance width="571"/>
  <outline>
    <contour>
      <point x="338" y="-12" type="curve" smooth="yes"/>
      <point x="423" y="-12"/>
      <point x="487" y="23"/>
      <point x="539" y="83" type="curve"/>
      <point x="493" y="135" type="line"/>
      <point x="451" y="89"/>
      <point x="404" y="61"/>
      <point x="341" y="61" type="curve" smooth="yes"/>
      <point x="211" y="61"/>
      <point x="134" y="152"/>
      <point x="134" y="334" type="curve" smooth="yes"/>
      <point x="134" y="502"/>
      <point x="215" y="595"/>
      <point x="343" y="595" type="curve" smooth="yes"/>
      <point x="398" y="595"/>
      <point x="443" y="570"/>
      <point x="478" y="533" type="curve"/>
      <point x="523" y="587" type="line"/>
      <point x="485" y="630"/>
      <point x="421" y="668"/>
      <point x="342" y="668" type="curve" smooth="yes"/>
      <point x="172" y="668"/>
      <point x="52" y="550"/>
      <point x="52" y="328" type="curve" smooth="yes"/>
      <point x="52" y="105"/>
      <point x="170" y="-12"/>
    </contour>
    <contour>
      <point x="92" y="309" type="line"/>
      <point x="411" y="309" type="line"/>
      <point x="411" y="380" type="line"/>
      <point x="92" y="380" type="line"/>
    </contour>
  </outline>
</glyph>
<glyph name="Iogonek.alt" format="1">
	<advance width="343"/>
	<outline>
		<contour>
			<point x="177" y="-212" type="curve" smooth="yes"/>
			<point x="204" y="-212"/>
			<point x="238" y="-199"/>
			<point x="257" y="-184" type="curve"/>
			<point x="234" y="-139" type="line"/>
			<point x="222" y="-148"/>
			<point x="210" y="-153"/>
			<point x="194" y="-153" type="curve" smooth="yes"/>
			<point x="170" y="-153"/>
			<point x="146" y="-138"/>
			<point x="146" y="-107" type="curve" smooth="yes"/>
			<point x="146" y="-69"/>
			<point x="170" y="-31"/>
			<point x="209" y="0" type="curve"/>
			<point x="296" y="0" type="line"/>
			<point x="296" y="71" type="line"/>
			<point x="213" y="71" type="line"/>
			<point x="213" y="586" type="line"/>
			<point x="296" y="586" type="line"/>
			<point x="296" y="656" type="line"/>
			<point x="46" y="656" type="line"/>
			<point x="46" y="586" type="line"/>
			<point x="130" y="586" type="line"/>
			<point x="130" y="71" type="line"/>
			<point x="46" y="71" type="line"/>
			<point x="46" y="0" type="line"/>
			<point x="150" y="0" type="line"/>
			<point x="118" y="-26"/>
			<point x="82" y="-71"/>
			<point x="82" y="-125" type="curve" smooth="yes"/>
			<point x="82" y="-182"/>
			<point x="125" y="-212"/>
		</contour>
		<contour>
			<point name="aboveUC" x="171" y="678" type="move"/>
		</contour>
	</outline>
</glyph>
<glyph name="Iota.sc" format="1">
  <advance width="263"/>
  <outline>
    <contour>
      <point x="131" y="563" type="move" name="aboveLC"/>
    </contour>
    <contour>
      <point x="131" y="-22" type="move" name="belowLC"/>
    </contour>
    <component base="I.sc"/>
  </outline>
</glyph>
<glyph name="Ismall" format="1">
  <advance width="341"/>
  <outline>
    <contour>
      <point x="171" y="509" type="move" name="aboveLC"/>
    </contour>
    <contour>
      <point x="148" y="0" type="move" name="ogonekUC"/>
    </contour>
    <contour>
      <point x="171" y="-22" type="move" name="belowLC"/>
    </contour>
    <contour>
      <point x="46" y="0" type="line"/>
      <point x="295" y="0" type="line"/>
      <point x="295" y="67" type="line"/>
      <point x="212" y="67" type="line"/>
      <point x="212" y="419" type="line"/>
      <point x="295" y="419" type="line"/>
      <point x="295" y="486" type="line"/>
      <point x="46" y="486" type="line"/>
      <point x="46" y="419" type="line"/>
      <point x="130" y="419" type="line"/>
      <point x="130" y="67" type="line"/>
      <point x="46" y="67" type="line"/>
    </contour>
  </outline>
</glyph>
<glyph name="Ieukran.sc" format="1">
  <advance width="501"/>
  <outline>
    <contour>
      <point x="297" y="-9" type="curve" smooth="yes"/>
      <point x="369" y="-9"/>
      <point x="425" y="17"/>
      <point x="469" y="65" type="curve"/>
      <point x="424" y="116" type="line"/>
      <point x="391" y="83"/>
      <point x="352" y="62"/>
      <point x="300" y="62" type="curve" smooth="yes"/>
      <point x="198" y="62"/>
      <point x="133" y="136"/>
      <point x="133" y="262" type="curve" smooth="yes"/>
      <point x="133" y="379"/>
      <point x="202" y="455"/>
      <point x="303" y="455" type="curve" smooth="yes"/>
      <point x="348" y="455"/>
      <point x="384" y="436"/>
      <point x="413" y="408" type="curve"/>
      <point x="457" y="461" type="line"/>
      <point x="424" y="495"/>
      <point x="370" y="526"/>
      <point x="302" y="526" type="curve" smooth="yes"/>
      <point x="161" y="526"/>
      <point x="52" y="425"/>
      <point x="52" y="257" type="curve" smooth="yes"/>
      <point x="52" y="87"/>
      <point x="158" y="-9"/>
    </contour>
    <contour>
      <point x="93" y="235" type="line"/>
      <point x="371" y="235" type="line"/>
      <point x="371" y="304" type="line"/>
      <point x="93" y="304" type="line"/>
    </contour>
  </outline>
</glyph>
<glyph name="Izhitsa.sc" format="1">
  <advance width="456"/>
  <outline>
    <contour>
      <point x="175" y="0" type="line"/>
      <point x="276" y="0" type="line"/>
      <point x="397" y="392" type="line" smooth="yes"/>
      <point x="408" y="429"/>
      <point x="421" y="448"/>
      <point x="446" y="448" type="curve" smooth="yes"/>
      <point x="455" y="448"/>
      <point x="462" y="446"/>
      <point x="468" y="444" type="curve"/>
      <point x="485" y="518" type="line"/>
      <point x="471" y="523"/>
      <point x="460" y="526"/>
      <point x="440" y="526" type="curve" smooth="yes"/>
      <point x="376" y="526"/>
      <point x="346" y="490"/>
      <point x="323" y="407" type="curve" smooth="yes"/>
      <point x="273" y="249" type="line"/>
      <point x="255" y="189"/>
      <point x="244" y="140"/>
      <point x="226" y="80" type="curve"/>
      <point x="223" y="80" type="line"/>
      <point x="203" y="140"/>
      <point x="190" y="189"/>
      <point x="171" y="249" type="curve" smooth="yes"/>
      <point x="86" y="516" type="line"/>
      <point x="0" y="516" type="line"/>
    </contour>
  </outline>
</glyph>
<glyph name="J" format="1">
  <advance width="480"/>
  <outline>
    <contour>
      <point x="348" y="678" type="move" name="aboveUC"/>
    </contour>
    <contour>
      <point x="253" y="-22" type="move" name="belowLC"/>
    </contour>
    <contour>
      <point x="212" y="-12" type="curve" smooth="yes"/>
      <point x="340" y="-12"/>
      <point x="393" y="80"/>
      <point x="393" y="193" type="curve" smooth="yes"/>
      <point x="393" y="656" type="line"/>
      <point x="309" y="656" type="line"/>
      <point x="309" y="201" type="line" smooth="yes"/>
      <point x="309" y="101"/>
      <point x="274" y="61"/>
      <point x="204" y="61" type="curve" smooth="yes"/>
      <point x="157" y="61"/>
      <point x="120" y="83"/>
      <point x="91" y="135" type="curve"/>
      <point x="31" y="93" type="line"/>
      <point x="69" y="24"/>
      <point x="129" y="-12"/>
    </contour>
  </outline>
</glyph>
<glyph name="J.sups" format="1">
  <advance width="321"/>
  <outline>
    <contour>
      <point x="140" y="258" type="curve" smooth="yes"/>
      <point x="229" y="258"/>
      <point x="266" y="320"/>
      <point x="266" y="397" type="curve" smooth="yes"/>
      <point x="266" y="698" type="line"/>
      <point x="203" y="698" type="line"/>
      <point x="203" y="402" type="line" smooth="yes"/>
      <point x="203" y="337"/>
      <point x="180" y="312"/>
      <point x="135" y="312" type="curve" smooth="yes"/>
      <point x="105" y="312"/>
      <point x="81" y="327"/>
      <point x="62" y="360" type="curve"/>
      <point x="18" y="329" type="line"/>
      <point x="44" y="283"/>
      <point x="83" y="258"/>
    </contour>
  </outline>
</glyph>
<glyph name="J.sc" format="1">
  <advance width="438"/>
  <outline>
    <contour>
      <point x="303" y="563" type="move" name="aboveUC"/>
    </contour>
    <contour>
      <point x="209" y="-22" type="move" name="belowLC"/>
    </contour>
    <contour>
      <point x="190" y="-12" type="curve" smooth="yes"/>
      <point x="302" y="-12"/>
      <point x="351" y="64"/>
      <point x="351" y="157" type="curve" smooth="yes"/>
      <point x="351" y="518" type="line"/>
      <point x="267" y="518" type="line"/>
      <point x="267" y="163" type="line" smooth="yes"/>
      <point x="267" y="87"/>
      <point x="238" y="59"/>
      <point x="182" y="59" type="curve" smooth="yes"/>
      <point x="144" y="59"/>
      <point x="113" y="78"/>
      <point x="89" y="117" type="curve"/>
      <point x="31" y="76" type="line"/>
      <point x="65" y="19"/>
      <point x="117" y="-12"/>
    </contour>
  </outline>
</glyph>
<glyph name="K" format="1">
  <advance width="579"/>
  <outline>
    <contour>
      <point x="90" y="0" type="line"/>
      <point x="173" y="0" type="line"/>
      <point x="173" y="208" type="line"/>
      <point x="286" y="341" type="line"/>
      <point x="482" y="0" type="line"/>
      <point x="575" y="0" type="line"/>
      <point x="338" y="406" type="line"/>
      <point x="543" y="656" type="line"/>
      <point x="449" y="656" type="line"/>
      <point x="176" y="327" type="line"/>
      <point x="173" y="327" type="line"/>
      <point x="173" y="656" type="line"/>
      <point x="90" y="656" type="line"/>
    </contour>
    <contour>
      <point x="311" y="678" type="move" name="aboveUC"/>
    </contour>
    <contour>
      <point x="328" y="-22" type="move" name="belowLC"/>
    </contour>
  </outline>
</glyph>
<glyph name="K.sc" format="1">
  <advance width="514"/>
  <outline>
    <contour>
      <point x="288" y="563" type="move" name="aboveUC"/>
    </contour>
    <contour>
      <point x="299" y="-22" type="move" name="belowLC"/>
    </contour>
    <contour>
      <point x="90" y="0" type="line"/>
      <point x="173" y="0" type="line"/>
      <point x="173" y="165" type="line"/>
      <point x="263" y="260" type="line"/>
      <point x="421" y="0" type="line"/>
      <point x="510" y="0" type="line"/>
      <point x="313" y="318" type="line"/>
      <point x="486" y="518" type="line"/>
      <point x="394" y="518" type="line"/>
      <point x="176" y="272" type="line"/>
      <point x="173" y="272" type="line"/>
      <point x="173" y="518" type="line"/>
      <point x="90" y="518" type="line"/>
    </contour>
  </outline>
</glyph>
<glyph name="K.sups" format="1">
  <advance width="387"/>
  <outline>
    <contour>
      <point x="57" y="266" type="line"/>
      <point x="120" y="266" type="line"/>
      <point x="120" y="402" type="line"/>
      <point x="192" y="486" type="line"/>
      <point x="318" y="266" type="line"/>
      <point x="387" y="266" type="line"/>
      <point x="230" y="534" type="line"/>
      <point x="366" y="698" type="line"/>
      <point x="296" y="698" type="line"/>
      <point x="122" y="489" type="line"/>
      <point x="120" y="489" type="line"/>
      <point x="120" y="698" type="line"/>
      <point x="57" y="698" type="line"/>
    </contour>
  </outline>
</glyph>
<glyph name="Ka.a" format="1">
  <advance width="580"/>
  <outline>
    <contour>
      <point x="90" y="0" type="line"/>
      <point x="173" y="0" type="line"/>
      <point x="173" y="311" type="line"/>
      <point x="293" y="311" type="line"/>
      <point x="334" y="379" type="line"/>
      <point x="173" y="379" type="line"/>
      <point x="173" y="656" type="line"/>
      <point x="90" y="656" type="line"/>
    </contour>
    <contour>
      <point x="350" y="345" type="line"/>
      <point x="439" y="505" type="line" smooth="yes"/>
      <point x="478" y="576"/>
      <point x="496" y="588"/>
      <point x="524" y="588" type="curve" smooth="yes"/>
      <point x="530" y="588"/>
      <point x="540" y="587"/>
      <point x="548" y="584" type="curve"/>
      <point x="562" y="662" type="line"/>
      <point x="552" y="666"/>
      <point x="538" y="668"/>
      <point x="521" y="668" type="curve" smooth="yes"/>
      <point x="467" y="668"/>
      <point x="433" y="645"/>
      <point x="378" y="546" type="curve" smooth="yes"/>
      <point x="276" y="361" type="line"/>
    </contour>
    <contour>
      <point x="543" y="-12" type="curve" smooth="yes"/>
      <point x="562" y="-12"/>
      <point x="575" y="-10"/>
      <point x="585" y="-6" type="curve"/>
      <point x="571" y="72" type="line"/>
      <point x="563" y="70"/>
      <point x="553" y="68"/>
      <point x="547" y="68" type="curve" smooth="yes"/>
      <point x="519" y="68"/>
      <point x="501" y="80"/>
      <point x="462" y="151" type="curve" smooth="yes"/>
      <point x="335" y="379" type="line"/>
      <point x="261" y="359" type="line"/>
      <point x="401" y="107" type="line" smooth="yes"/>
      <point x="456" y="7"/>
      <point x="490" y="-12"/>
    </contour>
  </outline>
</glyph>
<glyph name="Ka.b" format="1">
	<advance width="577"/>
	<outline>
		<contour>
			<point x="90" y="0" type="line"/>
			<point x="173" y="0" type="line"/>
			<point x="173" y="309" type="line"/>
			<point x="275" y="309" type="line"/>
			<point x="476" y="0" type="line"/>
			<point x="570" y="0" type="line"/>
			<point x="333" y="357" type="line"/>
			<point x="563" y="656" type="line"/>
			<point x="467" y="656" type="line"/>
			<point x="265" y="381" type="line"/>
			<point x="173" y="381" type="line"/>
			<point x="173" y="656" type="line"/>
			<point x="90" y="656" type="line"/>
		</contour>
	</outline>
</glyph>
<glyph name="Ka" format="1">
  <advance width="580"/>
  <outline>
    <contour>
      <point x="322" y="682" type="move" name="aboveUC"/>
    </contour>
    <contour>
      <point x="90" y="0" type="line"/>
      <point x="173" y="0" type="line"/>
      <point x="173" y="311" type="line"/>
      <point x="285" y="311" type="line"/>
      <point x="487" y="0" type="line"/>
      <point x="578" y="0" type="line"/>
      <point x="334" y="379" type="line"/>
      <point x="173" y="379" type="line"/>
      <point x="173" y="656" type="line"/>
      <point x="90" y="656" type="line"/>
    </contour>
    <contour>
      <point x="350" y="346" type="line"/>
      <point x="439" y="505" type="line" smooth="yes"/>
      <point x="478" y="576"/>
      <point x="496" y="588"/>
      <point x="524" y="588" type="curve" smooth="yes"/>
      <point x="530" y="588"/>
      <point x="540" y="587"/>
      <point x="548" y="584" type="curve"/>
      <point x="562" y="662" type="line"/>
      <point x="552" y="666"/>
      <point x="538" y="668"/>
      <point x="526" y="668" type="curve" smooth="yes"/>
      <point x="467" y="668"/>
      <point x="433" y="645"/>
      <point x="378" y="546" type="curve" smooth="yes"/>
      <point x="277" y="362" type="line"/>
    </contour>
  </outline>
</glyph>
<glyph name="Ka.sc" format="1">
  <advance width="519"/>
  <outline>
    <contour>
      <point x="288" y="540" type="move" name="aboveUC"/>
    </contour>
    <contour>
      <point x="90" y="0" type="line"/>
      <point x="173" y="0" type="line"/>
      <point x="173" y="237" type="line"/>
      <point x="261" y="237" type="line"/>
      <point x="425" y="0" type="line"/>
      <point x="514" y="0" type="line"/>
      <point x="307" y="305" type="line"/>
      <point x="173" y="305" type="line"/>
      <point x="173" y="518" type="line"/>
      <point x="90" y="518" type="line"/>
    </contour>
    <contour>
      <point x="323" y="272" type="line"/>
      <point x="396" y="392" type="line" smooth="yes"/>
      <point x="427" y="442"/>
      <point x="442" y="452"/>
      <point x="466" y="452" type="curve" smooth="yes"/>
      <point x="474" y="452"/>
      <point x="481" y="450"/>
      <point x="487" y="448" type="curve"/>
      <point x="502" y="524" type="line"/>
      <point x="493" y="527"/>
      <point x="479" y="530"/>
      <point x="467" y="530" type="curve" smooth="yes"/>
      <point x="415" y="530"/>
      <point x="384" y="511"/>
      <point x="338" y="436" type="curve" smooth="yes"/>
      <point x="250" y="289" type="line"/>
    </contour>
  </outline>
</glyph>
<glyph name="Kabashkir.b" format="1">
  <advance width="720"/>
  <outline>
    <contour>
      <point x="28" y="586" type="line"/>
      <point x="226" y="586" type="line"/>
      <point x="310" y="656" type="line"/>
      <point x="28" y="656" type="line"/>
    </contour>
    <component base="Ka.b" xOffset="137"/>
  </outline>
</glyph>
<glyph name="Kabashkir" format="1">
  <advance width="716"/>
  <outline>
    <contour>
      <point x="28" y="586" type="line"/>
      <point x="226" y="586" type="line"/>
      <point x="310" y="656" type="line"/>
      <point x="28" y="656" type="line"/>
    </contour>
    <component base="Ka" xOffset="137"/>
  </outline>
</glyph>
<glyph name="Kabashkir.sc" format="1">
  <advance width="637"/>
  <outline>
    <contour>
      <point x="435" y="272" type="line"/>
      <point x="508" y="392" type="line" smooth="yes"/>
      <point x="539" y="442"/>
      <point x="554" y="452"/>
      <point x="579" y="452" type="curve" smooth="yes"/>
      <point x="586" y="452"/>
      <point x="594" y="450"/>
      <point x="599" y="448" type="curve"/>
      <point x="614" y="524" type="line"/>
      <point x="605" y="527"/>
      <point x="591" y="530"/>
      <point x="579" y="530" type="curve" smooth="yes"/>
      <point x="527" y="530"/>
      <point x="496" y="511"/>
      <point x="450" y="436" type="curve" smooth="yes"/>
      <point x="362" y="289" type="line"/>
    </contour>
    <contour>
      <point x="202" y="0" type="line"/>
      <point x="285" y="0" type="line"/>
      <point x="285" y="237" type="line"/>
      <point x="373" y="237" type="line"/>
      <point x="537" y="0" type="line"/>
      <point x="626" y="0" type="line"/>
      <point x="419" y="305" type="line"/>
      <point x="285" y="305" type="line"/>
      <point x="285" y="518" type="line"/>
      <point x="28" y="518" type="line"/>
      <point x="28" y="448" type="line"/>
      <point x="202" y="448" type="line"/>
    </contour>
  </outline>
</glyph>
<glyph name="Kabashkir.b" format="1">
  <advance width="720"/>
  <outline>
    <contour>
      <point x="28" y="586" type="line"/>
      <point x="226" y="586" type="line"/>
      <point x="310" y="656" type="line"/>
      <point x="28" y="656" type="line"/>
    </contour>
    <component base="Ka.b" xOffset="137"/>
  </outline>
</glyph>
<glyph name="Kabashkir.sc" format="1">
  <advance width="637"/>
  <outline>
    <contour>
      <point x="435" y="272" type="line"/>
      <point x="508" y="392" type="line" smooth="yes"/>
      <point x="539" y="442"/>
      <point x="554" y="452"/>
      <point x="579" y="452" type="curve" smooth="yes"/>
      <point x="586" y="452"/>
      <point x="594" y="450"/>
      <point x="599" y="448" type="curve"/>
      <point x="614" y="524" type="line"/>
      <point x="605" y="527"/>
      <point x="591" y="530"/>
      <point x="579" y="530" type="curve" smooth="yes"/>
      <point x="527" y="530"/>
      <point x="496" y="511"/>
      <point x="450" y="436" type="curve" smooth="yes"/>
      <point x="362" y="289" type="line"/>
    </contour>
    <contour>
      <point x="202" y="0" type="line"/>
      <point x="285" y="0" type="line"/>
      <point x="285" y="237" type="line"/>
      <point x="373" y="237" type="line"/>
      <point x="537" y="0" type="line"/>
      <point x="626" y="0" type="line"/>
      <point x="419" y="305" type="line"/>
      <point x="285" y="305" type="line"/>
      <point x="285" y="518" type="line"/>
      <point x="28" y="518" type="line"/>
      <point x="28" y="448" type="line"/>
      <point x="202" y="448" type="line"/>
    </contour>
  </outline>
</glyph>
<glyph name="Kadescender.a" format="1">
  <advance width="625"/>
  <outline>
    <contour>
      <point x="516" y="-192" type="line"/>
      <point x="586" y="-192" type="line"/>
      <point x="597" y="16" type="line"/>
      <point x="597" y="71" type="line"/>
      <point x="489" y="71" type="line"/>
      <point x="489" y="0" type="line"/>
      <point x="516" y="0" type="line"/>
    </contour>
    <component base="Ka.a"/>
  </outline>
</glyph>
<glyph name="Kadescender.sc" format="1">
  <advance width="567"/>
  <outline>
    <contour>
      <point x="462" y="-172" type="line"/>
      <point x="533" y="-172" type="line"/>
      <point x="541" y="16" type="line"/>
      <point x="541" y="70" type="line"/>
      <point x="440" y="70" type="line"/>
      <point x="440" y="0" type="line"/>
      <point x="462" y="0" type="line"/>
    </contour>
    <component base="Ka.sc"/>
  </outline>
</glyph>
<glyph name="Kappa.sc" format="1">
  <advance width="514"/>
  <outline>
    <component base="K.sc"/>
    <contour>
      <point x="288" y="563" type="move" name="aboveLC"/>
    </contour>
    <contour>
      <point x="299" y="-22" type="move" name="belowLC"/>
    </contour>
  </outline>
</glyph>
<glyph name="Kappa.sc" format="1">
  <advance width="514"/>
  <outline>
    <contour>
      <point x="288" y="563" type="move" name="aboveLC"/>
    </contour>
    <contour>
      <point x="299" y="-22" type="move" name="belowLC"/>
    </contour>
    <component base="K.sc"/>
  </outline>
</glyph>
<glyph name="Ka.sc" format="1">
  <advance width="513"/>
  <outline>
    <contour>
      <point x="288" y="540" type="move" name="aboveUC"/>
    </contour>
    <contour>
      <point x="90" y="0" type="line"/>
      <point x="171" y="0" type="line"/>
      <point x="171" y="237" type="line"/>
      <point x="252" y="237" type="line"/>
      <point x="416" y="0" type="line"/>
      <point x="507" y="0" type="line"/>
      <point x="309" y="283" type="line"/>
      <point x="501" y="518" type="line"/>
      <point x="407" y="518" type="line"/>
      <point x="243" y="306" type="line"/>
      <point x="171" y="306" type="line"/>
      <point x="171" y="518" type="line"/>
      <point x="90" y="518" type="line"/>
    </contour>
  </outline>
</glyph>
<glyph name="L" format="1">
  <advance width="486"/>
  <outline>
    <contour>
      <point x="90" y="0" type="line"/>
      <point x="460" y="0" type="line"/>
      <point x="460" y="71" type="line"/>
      <point x="173" y="71" type="line"/>
      <point x="173" y="656" type="line"/>
      <point x="90" y="656" type="line"/>
    </contour>
    <contour>
      <point x="133" y="678" type="move" name="aboveUC"/>
    </contour>
    <contour>
      <point x="289" y="-22" type="move" name="belowLC"/>
    </contour>
  </outline>
</glyph>
<glyph name="L.sc" format="1">
	<advance width="437"/>
	<outline>
		<contour>
			<point x="90" y="0" type="line"/>
			<point x="410" y="0" type="line"/>
			<point x="410" y="69" type="line"/>
			<point x="173" y="69" type="line"/>
			<point x="173" y="518" type="line"/>
			<point x="90" y="518" type="line"/>
		</contour>
		<contour>
			<point name="aboveUC" x="137" y="563" type="move"/>
		</contour>
		<contour>
			<point name="belowLC" x="260" y="-22" type="move"/>
		</contour>
	</outline>
</glyph>
<glyph name="L.sups" format="1">
  <advance width="325"/>
  <outline>
    <contour>
      <point x="57" y="266" type="line"/>
      <point x="308" y="266" type="line"/>
      <point x="308" y="319" type="line"/>
      <point x="120" y="319" type="line"/>
      <point x="120" y="698" type="line"/>
      <point x="57" y="698" type="line"/>
    </contour>
  </outline>
</glyph>
<glyph name="L.sups" format="1">
  <advance width="325"/>
  <outline>
    <contour>
      <point x="57" y="395" type="line"/>
      <point x="308" y="395" type="line"/>
      <point x="308" y="447" type="line"/>
      <point x="120" y="447" type="line"/>
      <point x="120" y="827" type="line"/>
      <point x="57" y="827" type="line"/>
    </contour>
  </outline>
</glyph>
<glyph name="Lambda" format="1">
  <advance width="515"/>
  <outline>
    <contour>
      <point x="0" y="0" type="line"/>
      <point x="85" y="0" type="line"/>
      <point x="190" y="355" type="line" smooth="yes"/>
      <point x="213" y="432"/>
      <point x="229" y="495"/>
      <point x="253" y="572" type="curve"/>
      <point x="257" y="572" type="line"/>
      <point x="282" y="495"/>
      <point x="298" y="432"/>
      <point x="321" y="355" type="curve" smooth="yes"/>
      <point x="427" y="0" type="line"/>
      <point x="515" y="0" type="line"/>
      <point x="305" y="656" type="line"/>
      <point x="209" y="656" type="line"/>
    </contour>
  </outline>
</glyph>
<glyph name="Lambda.sc" format="1">
  <advance width="445"/>
  <outline>
    <contour>
      <point x="0" y="0" type="line"/>
      <point x="83" y="0" type="line"/>
      <point x="168" y="268" type="line" smooth="yes"/>
      <point x="186" y="327"/>
      <point x="199" y="379"/>
      <point x="219" y="438" type="curve"/>
      <point x="223" y="438" type="line"/>
      <point x="242" y="379"/>
      <point x="256" y="327"/>
      <point x="274" y="268" type="curve" smooth="yes"/>
      <point x="359" y="0" type="line"/>
      <point x="446" y="0" type="line"/>
      <point x="271" y="518" type="line"/>
      <point x="174" y="518" type="line"/>
    </contour>
  </outline>
</glyph>
<glyph name="Lje" format="1">
  <advance width="903"/>
  <outline>
    <contour>
      <point x="62" y="-12" type="curve" smooth="yes"/>
      <point x="141" y="-12"/>
      <point x="184" y="33"/>
      <point x="222" y="234" type="curve" smooth="yes"/>
      <point x="243" y="350"/>
      <point x="262" y="466"/>
      <point x="283" y="586" type="curve"/>
      <point x="443" y="586" type="line"/>
      <point x="443" y="0" type="line"/>
      <point x="526" y="0" type="line"/>
      <point x="526" y="656" type="line"/>
      <point x="218" y="656" type="line"/>
      <point x="193" y="512"/>
      <point x="170" y="381"/>
      <point x="143" y="244" type="curve" smooth="yes"/>
      <point x="111" y="89"/>
      <point x="86" y="68"/>
      <point x="51" y="68" type="curve" smooth="yes"/>
      <point x="40" y="68"/>
      <point x="32" y="70"/>
      <point x="23" y="74" type="curve"/>
      <point x="6" y="-3" type="line"/>
      <point x="24" y="-10"/>
      <point x="41" y="-12"/>
    </contour>
    <contour>
      <point x="443" y="0" type="line"/>
      <point x="618" y="0" type="line" smooth="yes"/>
      <point x="764" y="0"/>
      <point x="859" y="62"/>
      <point x="859" y="202" type="curve" smooth="yes"/>
      <point x="859" y="333"/>
      <point x="761" y="387"/>
      <point x="617" y="387" type="curve" smooth="yes"/>
      <point x="526" y="387" type="line"/>
      <point x="526" y="656" type="line"/>
      <point x="443" y="656" type="line"/>
    </contour>
    <contour>
      <point x="526" y="68" type="line"/>
      <point x="526" y="320" type="line"/>
      <point x="605" y="320" type="line" smooth="yes"/>
      <point x="719" y="320"/>
      <point x="777" y="283"/>
      <point x="777" y="200" type="curve" smooth="yes"/>
      <point x="777" y="107"/>
      <point x="718" y="68"/>
      <point x="607" y="68" type="curve" smooth="yes"/>
    </contour>
  </outline>
</glyph>
<glyph name="Lslash" format="1">
  <advance width="489"/>
  <outline>
    <contour>
      <point x="24" y="200" type="line"/>
      <point x="106" y="246" type="line"/>
      <point x="164" y="270" type="line"/>
      <point x="384" y="387" type="line"/>
      <point x="354" y="440" type="line"/>
      <point x="164" y="337" type="line"/>
      <point x="106" y="314" type="line"/>
      <point x="-6" y="253" type="line"/>
    </contour>
    <component base="L" xOffset="5"/>
  </outline>
</glyph>
<glyph name="Lslash.sc" format="1">
  <advance width="437"/>
  <outline>
    <contour>
      <point x="24" y="135" type="line"/>
      <point x="106" y="180" type="line"/>
      <point x="164" y="204" type="line"/>
      <point x="354" y="305" type="line"/>
      <point x="324" y="354" type="line"/>
      <point x="164" y="269" type="line"/>
      <point x="106" y="245" type="line"/>
      <point x="-6" y="183" type="line"/>
    </contour>
    <component base="L.sc" xOffset="5"/>
  </outline>
</glyph>
<glyph name="Lslash.sc" format="1">
  <advance width="437"/>
  <outline>
    <contour>
      <point x="24" y="135" type="line"/>
      <point x="106" y="180" type="line"/>
      <point x="164" y="204" type="line"/>
      <point x="354" y="305" type="line"/>
      <point x="324" y="354" type="line"/>
      <point x="164" y="269" type="line"/>
      <point x="106" y="245" type="line"/>
      <point x="-6" y="183" type="line"/>
    </contour>
    <component base="L.sc" xOffset="5"/>
  </outline>
</glyph>
<glyph name="Lsmall" format="1">
  <advance width="411"/>
  <outline>
    <contour>
      <point x="129" y="563" type="move" name="aboveUC"/>
    </contour>
    <contour>
      <point x="252" y="-22" type="move" name="belowLC"/>
    </contour>
    <contour>
      <point x="82" y="0" type="line"/>
      <point x="385" y="0" type="line"/>
      <point x="385" y="67" type="line"/>
      <point x="164" y="67" type="line"/>
      <point x="164" y="486" type="line"/>
      <point x="82" y="486" type="line"/>
    </contour>
  </outline>
</glyph>
<glyph name="Lje" format="1">
  <advance width="901"/>
  <outline>
    <contour>
      <point x="59" y="-12" type="curve" smooth="yes"/>
      <point x="138" y="-12"/>
      <point x="182" y="33"/>
      <point x="219" y="234" type="curve" smooth="yes"/>
      <point x="241" y="350"/>
      <point x="259" y="466"/>
      <point x="281" y="586" type="curve"/>
      <point x="440" y="586" type="line"/>
      <point x="440" y="0" type="line"/>
      <point x="524" y="0" type="line"/>
      <point x="524" y="656" type="line"/>
      <point x="216" y="656" type="line"/>
      <point x="190" y="512"/>
      <point x="167" y="381"/>
      <point x="140" y="244" type="curve" smooth="yes"/>
      <point x="109" y="89"/>
      <point x="83" y="68"/>
      <point x="49" y="68" type="curve" smooth="yes"/>
      <point x="38" y="68"/>
      <point x="30" y="70"/>
      <point x="21" y="74" type="curve"/>
      <point x="3" y="-3" type="line"/>
      <point x="21" y="-10"/>
      <point x="38" y="-12"/>
    </contour>
    <contour>
      <point x="440" y="0" type="line"/>
      <point x="615" y="0" type="line" smooth="yes"/>
      <point x="762" y="0"/>
      <point x="857" y="62"/>
      <point x="857" y="202" type="curve" smooth="yes"/>
      <point x="857" y="333"/>
      <point x="759" y="387"/>
      <point x="614" y="387" type="curve" smooth="yes"/>
      <point x="524" y="387" type="line"/>
      <point x="524" y="656" type="line"/>
      <point x="440" y="656" type="line"/>
    </contour>
    <contour>
      <point x="524" y="68" type="line"/>
      <point x="524" y="320" type="line"/>
      <point x="602" y="320" type="line" smooth="yes"/>
      <point x="717" y="320"/>
      <point x="775" y="283"/>
      <point x="775" y="200" type="curve" smooth="yes"/>
      <point x="775" y="107"/>
      <point x="716" y="68"/>
      <point x="605" y="68" type="curve" smooth="yes"/>
    </contour>
  </outline>
</glyph>
<glyph name="Lje.sc" format="1">
  <advance width="819"/>
  <outline>
    <contour>
      <point x="398" y="0" type="line"/>
      <point x="564" y="0" type="line" smooth="yes"/>
      <point x="689" y="0"/>
      <point x="776" y="40"/>
      <point x="776" y="157" type="curve" smooth="yes"/>
      <point x="776" y="264"/>
      <point x="686" y="312"/>
      <point x="564" y="312" type="curve" smooth="yes"/>
      <point x="480" y="312" type="line"/>
      <point x="480" y="518" type="line"/>
      <point x="398" y="518" type="line"/>
    </contour>
    <contour>
      <point x="480" y="65" type="line"/>
      <point x="480" y="246" type="line"/>
      <point x="555" y="246" type="line" smooth="yes"/>
      <point x="649" y="246"/>
      <point x="695" y="219"/>
      <point x="695" y="156" type="curve" smooth="yes"/>
      <point x="695" y="88"/>
      <point x="647" y="65"/>
      <point x="555" y="65" type="curve" smooth="yes"/>
    </contour>
    <component base="El.sc"/>
  </outline>
</glyph>
<glyph name="Lslash" format="1">
  <advance width="489"/>
  <outline>
    <contour>
      <point x="13" y="194" type="line"/>
      <point x="106" y="246" type="line"/>
      <point x="164" y="270" type="line"/>
      <point x="364" y="377" type="line"/>
      <point x="364" y="445" type="line"/>
      <point x="164" y="337" type="line"/>
      <point x="106" y="314" type="line"/>
      <point x="13" y="261" type="line"/>
    </contour>
    <component base="L" xOffset="5"/>
  </outline>
</glyph>
<glyph name="Lslash.sc" format="1">
  <advance width="437"/>
  <outline>
    <contour>
      <point x="13" y="128" type="line"/>
      <point x="106" y="180" type="line"/>
      <point x="164" y="204" type="line"/>
      <point x="334" y="295" type="line"/>
      <point x="334" y="361" type="line"/>
      <point x="164" y="269" type="line"/>
      <point x="106" y="245" type="line"/>
      <point x="13" y="193" type="line"/>
    </contour>
    <component base="L.sc" xOffset="5"/>
  </outline>
</glyph>
<glyph name="M" format="1">
  <advance width="727"/>
  <outline>
    <contour>
      <point x="363" y="678" type="move" name="aboveUC"/>
    </contour>
    <contour>
      <point x="365" y="-22" type="move" name="belowLC"/>
    </contour>
    <contour>
      <point x="90" y="0" type="line"/>
      <point x="165" y="0" type="line"/>
      <point x="165" y="361" type="line" smooth="yes"/>
      <point x="165" y="419"/>
      <point x="159" y="497"/>
      <point x="155" y="555" type="curve"/>
      <point x="159" y="555" type="line"/>
      <point x="211" y="406" type="line"/>
      <point x="335" y="66" type="line"/>
      <point x="390" y="66" type="line"/>
      <point x="514" y="406" type="line"/>
      <point x="566" y="555" type="line"/>
      <point x="570" y="555" type="line"/>
      <point x="566" y="497"/>
      <point x="559" y="419"/>
      <point x="559" y="361" type="curve" smooth="yes"/>
      <point x="559" y="0" type="line"/>
      <point x="637" y="0" type="line"/>
      <point x="637" y="656" type="line"/>
      <point x="536" y="656" type="line"/>
      <point x="412" y="306" type="line"/>
      <point x="396" y="261"/>
      <point x="383" y="214"/>
      <point x="367" y="169" type="curve"/>
      <point x="363" y="169" type="line"/>
      <point x="347" y="214"/>
      <point x="332" y="261"/>
      <point x="316" y="306" type="curve"/>
      <point x="190" y="656" type="line"/>
      <point x="90" y="656" type="line"/>
    </contour>
  </outline>
</glyph>
<glyph name="M.sc" format="1">
  <advance width="647"/>
  <outline>
    <contour>
      <point x="90" y="0" type="line"/>
      <point x="165" y="0" type="line"/>
      <point x="165" y="256" type="line" smooth="yes"/>
      <point x="165" y="303"/>
      <point x="159" y="373"/>
      <point x="155" y="420" type="curve"/>
      <point x="159" y="420" type="line"/>
      <point x="204" y="303" type="line"/>
      <point x="303" y="50" type="line"/>
      <point x="343" y="50" type="line"/>
      <point x="442" y="303" type="line"/>
      <point x="487" y="420" type="line"/>
      <point x="491" y="420" type="line"/>
      <point x="487" y="372"/>
      <point x="482" y="303"/>
      <point x="482" y="256" type="curve" smooth="yes"/>
      <point x="482" y="0" type="line"/>
      <point x="557" y="0" type="line"/>
      <point x="557" y="518" type="line"/>
      <point x="464" y="518" type="line"/>
      <point x="364" y="254" type="line"/>
      <point x="326" y="151" type="line"/>
      <point x="322" y="151" type="line"/>
      <point x="285" y="254" type="line"/>
      <point x="183" y="518" type="line"/>
      <point x="90" y="518" type="line"/>
    </contour>
    <contour>
      <point x="323" y="563" type="move" name="aboveUC"/>
    </contour>
    <contour>
      <point x="323" y="-22" type="move" name="belowLC"/>
    </contour>
  </outline>
</glyph>
<glyph name="M.sups" format="1">
  <advance width="486"/>
  <outline>
    <contour>
      <point x="57" y="266" type="line"/>
      <point x="115" y="266" type="line"/>
      <point x="115" y="491" type="line" smooth="yes"/>
      <point x="115" y="529"/>
      <point x="110" y="583"/>
      <point x="107" y="621" type="curve"/>
      <point x="109" y="621" type="line"/>
      <point x="145" y="524" type="line"/>
      <point x="227" y="308" type="line"/>
      <point x="260" y="308" type="line"/>
      <point x="341" y="524" type="line"/>
      <point x="376" y="621" type="line"/>
      <point x="379" y="621" type="line"/>
      <point x="376" y="583"/>
      <point x="371" y="529"/>
      <point x="371" y="491" type="curve" smooth="yes"/>
      <point x="371" y="266" type="line"/>
      <point x="430" y="266" type="line"/>
      <point x="430" y="698" type="line"/>
      <point x="357" y="698" type="line"/>
      <point x="277" y="474" type="line"/>
      <point x="247" y="388" type="line"/>
      <point x="244" y="388" type="line"/>
      <point x="213" y="474" type="line"/>
      <point x="130" y="698" type="line"/>
      <point x="57" y="698" type="line"/>
    </contour>
  </outline>
</glyph>
<glyph name="Mu.sc" format="1">
  <advance width="647"/>
  <outline>
    <contour>
      <point x="323" y="563" type="move" name="aboveLC"/>
    </contour>
    <contour>
      <point x="323" y="-22" type="move" name="belowLC"/>
    </contour>
    <component base="M.sc"/>
  </outline>
</glyph>
<glyph name="N" format="1">
  <advance width="647"/>
  <outline>
    <contour>
      <point x="327" y="678" type="move" name="aboveUC"/>
    </contour>
    <contour>
      <point x="327" y="-22" type="move" name="belowLC"/>
    </contour>
    <contour>
      <point x="90" y="0" type="line"/>
      <point x="169" y="0" type="line"/>
      <point x="169" y="343" type="line" smooth="yes"/>
      <point x="169" y="412"/>
      <point x="163" y="482"/>
      <point x="158" y="548" type="curve"/>
      <point x="162" y="548" type="line"/>
      <point x="233" y="413" type="line"/>
      <point x="471" y="0" type="line"/>
      <point x="557" y="0" type="line"/>
      <point x="557" y="656" type="line"/>
      <point x="478" y="656" type="line"/>
      <point x="478" y="317" type="line" smooth="yes"/>
      <point x="478" y="248"/>
      <point x="484" y="174"/>
      <point x="488" y="108" type="curve"/>
      <point x="484" y="108" type="line"/>
      <point x="413" y="244" type="line"/>
      <point x="176" y="656" type="line"/>
      <point x="90" y="656" type="line"/>
    </contour>
  </outline>
</glyph>
<glyph name="N.sups" format="1">
  <advance width="431"/>
  <outline>
    <contour>
      <point x="57" y="266" type="line"/>
      <point x="115" y="266" type="line"/>
      <point x="115" y="482" type="line" smooth="yes"/>
      <point x="115" y="527"/>
      <point x="112" y="575"/>
      <point x="109" y="619" type="curve"/>
      <point x="111" y="619" type="line"/>
      <point x="158" y="530" type="line"/>
      <point x="309" y="266" type="line"/>
      <point x="374" y="266" type="line"/>
      <point x="374" y="698" type="line"/>
      <point x="316" y="698" type="line"/>
      <point x="316" y="487" type="line" smooth="yes"/>
      <point x="316" y="440"/>
      <point x="320" y="389"/>
      <point x="323" y="346" type="curve"/>
      <point x="320" y="346" type="line"/>
      <point x="274" y="436" type="line"/>
      <point x="123" y="698" type="line"/>
      <point x="57" y="698" type="line"/>
    </contour>
  </outline>
</glyph>
<glyph name="N.sc" format="1">
  <advance width="585"/>
  <outline>
    <contour>
      <point x="301" y="563" type="move" name="aboveUC"/>
    </contour>
    <contour>
      <point x="299" y="-22" type="move" name="belowLC"/>
    </contour>
    <contour>
      <point x="90" y="0" type="line"/>
      <point x="167" y="0" type="line"/>
      <point x="167" y="245" type="line" smooth="yes"/>
      <point x="167" y="301"/>
      <point x="160" y="363"/>
      <point x="156" y="417" type="curve"/>
      <point x="160" y="417" type="line"/>
      <point x="220" y="306" type="line"/>
      <point x="412" y="0" type="line"/>
      <point x="495" y="0" type="line"/>
      <point x="495" y="518" type="line"/>
      <point x="418" y="518" type="line"/>
      <point x="418" y="275" type="line" smooth="yes"/>
      <point x="418" y="219"/>
      <point x="425" y="153"/>
      <point x="429" y="101" type="curve"/>
      <point x="425" y="101" type="line"/>
      <point x="365" y="212" type="line"/>
      <point x="174" y="518" type="line"/>
      <point x="90" y="518" type="line"/>
    </contour>
  </outline>
</glyph>
<glyph name="Nje.sc" format="1">
  <advance width="808"/>
  <outline>
    <contour>
      <point x="90" y="0" type="line"/>
      <point x="173" y="0" type="line"/>
      <point x="173" y="235" type="line"/>
      <point x="407" y="235" type="line"/>
      <point x="407" y="0" type="line"/>
      <point x="491" y="0" type="line"/>
      <point x="491" y="518" type="line"/>
      <point x="407" y="518" type="line"/>
      <point x="407" y="307" type="line"/>
      <point x="173" y="307" type="line"/>
      <point x="173" y="518" type="line"/>
      <point x="90" y="518" type="line"/>
    </contour>
    <contour>
      <point x="407" y="0" type="line"/>
      <point x="557" y="0" type="line" smooth="yes"/>
      <point x="681" y="0"/>
      <point x="767" y="47"/>
      <point x="767" y="163" type="curve" smooth="yes"/>
      <point x="767" y="271"/>
      <point x="681" y="314"/>
      <point x="558" y="314" type="curve" smooth="yes"/>
      <point x="491" y="314" type="line"/>
      <point x="491" y="518" type="line"/>
      <point x="407" y="518" type="line"/>
    </contour>
    <contour>
      <point x="491" y="67" type="line"/>
      <point x="491" y="254" type="line"/>
      <point x="548" y="254" type="line" smooth="yes"/>
      <point x="639" y="254"/>
      <point x="686" y="227"/>
      <point x="686" y="163" type="curve" smooth="yes"/>
      <point x="686" y="96"/>
      <point x="637" y="67"/>
      <point x="549" y="67" type="curve" smooth="yes"/>
    </contour>
  </outline>
</glyph>
<glyph name="Nu.sc" format="1">
  <advance width="585"/>
  <outline>
    <component base="N.sc"/>
    <contour>
      <point x="301" y="563" type="move" name="aboveLC"/>
    </contour>
    <contour>
      <point x="299" y="-22" type="move" name="belowLC"/>
    </contour>
  </outline>
</glyph>
<glyph name="Nu.sc" format="1">
  <advance width="585"/>
  <outline>
    <contour>
      <point x="301" y="563" type="move" name="aboveLC"/>
    </contour>
    <contour>
      <point x="299" y="-22" type="move" name="belowLC"/>
    </contour>
    <component base="N.sc"/>
  </outline>
</glyph>
<glyph name="Nje.sc" format="1">
  <advance width="837"/>
  <outline>
    <contour>
      <point x="421" y="0" type="line"/>
      <point x="586" y="0" type="line" smooth="yes"/>
      <point x="711" y="0"/>
      <point x="799" y="40"/>
      <point x="799" y="157" type="curve" smooth="yes"/>
      <point x="799" y="264"/>
      <point x="709" y="312"/>
      <point x="586" y="312" type="curve" smooth="yes"/>
      <point x="503" y="312" type="line"/>
      <point x="503" y="518" type="line"/>
      <point x="421" y="518" type="line"/>
    </contour>
    <contour>
      <point x="503" y="65" type="line"/>
      <point x="503" y="246" type="line"/>
      <point x="577" y="246" type="line" smooth="yes"/>
      <point x="671" y="246"/>
      <point x="718" y="219"/>
      <point x="718" y="156" type="curve" smooth="yes"/>
      <point x="718" y="88"/>
      <point x="670" y="65"/>
      <point x="577" y="65" type="curve" smooth="yes"/>
    </contour>
    <component base="H.sc"/>
  </outline>
</glyph>
<glyph name="OE" format="1">
  <advance width="847"/>
  <outline>
    <contour>
      <point x="532" y="678" type="move" name="aboveUC"/>
    </contour>
    <contour>
      <point x="369" y="0" type="curve" smooth="yes"/>
      <point x="798" y="0" type="line"/>
      <point x="798" y="71" type="line"/>
      <point x="510" y="71" type="line"/>
      <point x="510" y="309" type="line"/>
      <point x="742" y="309" type="line"/>
      <point x="742" y="380" type="line"/>
      <point x="510" y="380" type="line"/>
      <point x="510" y="586" type="line"/>
      <point x="788" y="586" type="line"/>
      <point x="788" y="656" type="line"/>
      <point x="373" y="656" type="line" smooth="yes"/>
      <point x="170" y="656"/>
      <point x="52" y="539"/>
      <point x="52" y="331" type="curve" smooth="yes"/>
      <point x="52" y="122"/>
      <point x="170" y="0"/>
    </contour>
    <contour>
      <point x="379" y="68" type="line"/>
      <point x="221" y="68"/>
      <point x="138" y="164"/>
      <point x="138" y="331" type="curve" smooth="yes"/>
      <point x="138" y="497"/>
      <point x="221" y="588"/>
      <point x="379" y="588" type="curve" smooth="yes"/>
      <point x="427" y="588" type="line"/>
      <point x="427" y="68" type="line"/>
    </contour>
  </outline>
</glyph>
<glyph name="O" format="1">
  <advance width="664"/>
  <outline>
    <contour>
      <point x="332" y="678" type="move" name="aboveUC"/>
    </contour>
    <contour>
      <point x="469" y="646" type="move" name="hornLC"/>
    </contour>
    <contour>
      <point x="332" y="0" type="move" name="ogonekUC"/>
    </contour>
    <contour>
      <point x="332" y="-22" type="move" name="belowLC"/>
    </contour>
    <contour>
      <point x="332" y="-12" type="curve" smooth="yes"/>
      <point x="497" y="-12"/>
      <point x="613" y="120"/>
      <point x="613" y="331" type="curve" smooth="yes"/>
      <point x="613" y="540"/>
      <point x="497" y="668"/>
      <point x="332" y="668" type="curve" smooth="yes"/>
      <point x="167" y="668"/>
      <point x="52" y="541"/>
      <point x="52" y="331" type="curve" smooth="yes"/>
      <point x="52" y="120"/>
      <point x="167" y="-12"/>
    </contour>
    <contour>
      <point x="332" y="61" type="curve" smooth="yes"/>
      <point x="215" y="61"/>
      <point x="138" y="167"/>
      <point x="138" y="331" type="curve" smooth="yes"/>
      <point x="138" y="494"/>
      <point x="215" y="595"/>
      <point x="332" y="595" type="curve" smooth="yes"/>
      <point x="449" y="595"/>
      <point x="526" y="494"/>
      <point x="526" y="331" type="curve" smooth="yes"/>
      <point x="526" y="167"/>
      <point x="449" y="61"/>
    </contour>
  </outline>
</glyph>
<glyph name="O.sc" format="1">
  <advance width="589"/>
  <outline>
    <contour>
      <point x="295" y="563" type="move" name="aboveUC"/>
    </contour>
    <contour>
      <point x="423" y="499" type="move" name="hornLC"/>
    </contour>
    <contour>
      <point x="295" y="0" type="move" name="ogonekUC"/>
    </contour>
    <contour>
      <point x="295" y="-22" type="move" name="belowLC"/>
    </contour>
    <contour>
      <point x="295" y="-12" type="curve" smooth="yes"/>
      <point x="437" y="-12"/>
      <point x="538" y="92"/>
      <point x="538" y="261" type="curve" smooth="yes"/>
      <point x="538" y="429"/>
      <point x="437" y="530"/>
      <point x="295" y="530" type="curve" smooth="yes"/>
      <point x="152" y="530"/>
      <point x="52" y="429"/>
      <point x="52" y="261" type="curve" smooth="yes"/>
      <point x="52" y="92"/>
      <point x="152" y="-12"/>
    </contour>
    <contour>
      <point x="295" y="58" type="curve" smooth="yes"/>
      <point x="199" y="58"/>
      <point x="138" y="136"/>
      <point x="138" y="261" type="curve" smooth="yes"/>
      <point x="138" y="385"/>
      <point x="199" y="460"/>
      <point x="295" y="460" type="curve" smooth="yes"/>
      <point x="390" y="460"/>
      <point x="452" y="385"/>
      <point x="452" y="261" type="curve" smooth="yes"/>
      <point x="452" y="136"/>
      <point x="390" y="58"/>
    </contour>
  </outline>
</glyph>
<glyph name="O.sups" format="1">
  <advance width="443"/>
  <outline>
    <contour>
      <point x="221" y="387" type="curve" smooth="yes"/>
      <point x="333" y="387"/>
      <point x="411" y="473"/>
      <point x="411" y="613" type="curve" smooth="yes"/>
      <point x="411" y="750"/>
      <point x="333" y="835"/>
      <point x="221" y="835" type="curve" smooth="yes"/>
      <point x="110" y="835"/>
      <point x="32" y="751"/>
      <point x="32" y="613" type="curve" smooth="yes"/>
      <point x="32" y="473"/>
      <point x="110" y="387"/>
    </contour>
    <contour>
      <point x="221" y="441" type="curve" smooth="yes"/>
      <point x="146" y="441"/>
      <point x="97" y="508"/>
      <point x="97" y="613" type="curve" smooth="yes"/>
      <point x="97" y="716"/>
      <point x="146" y="781"/>
      <point x="221" y="781" type="curve" smooth="yes"/>
      <point x="297" y="781"/>
      <point x="346" y="716"/>
      <point x="346" y="613" type="curve" smooth="yes"/>
      <point x="346" y="508"/>
      <point x="297" y="441"/>
    </contour>
  </outline>
</glyph>
<glyph name="OEsmall" format="1">
  <advance width="699"/>
  <outline>
    <contour>
      <point x="287" y="-12" type="curve" smooth="yes"/>
      <point x="320" y="-12"/>
      <point x="350" y="-10"/>
      <point x="389" y="0" type="curve"/>
      <point x="679" y="0" type="line"/>
      <point x="679" y="63" type="line"/>
      <point x="440" y="63" type="line"/>
      <point x="440" y="223" type="line"/>
      <point x="632" y="223" type="line"/>
      <point x="632" y="282" type="line"/>
      <point x="440" y="282" type="line"/>
      <point x="440" y="423" type="line"/>
      <point x="669" y="423" type="line"/>
      <point x="669" y="486" type="line"/>
      <point x="389" y="486" type="line"/>
      <point x="349" y="496"/>
      <point x="320" y="498"/>
      <point x="287" y="498" type="curve" smooth="yes"/>
      <point x="155" y="498"/>
      <point x="46" y="410"/>
      <point x="46" y="243" type="curve" smooth="yes"/>
      <point x="46" y="76"/>
      <point x="155" y="-12"/>
    </contour>
    <contour>
      <point x="292" y="55" type="curve" smooth="yes"/>
      <point x="203" y="55"/>
      <point x="132" y="115"/>
      <point x="132" y="243" type="curve" smooth="yes"/>
      <point x="132" y="369"/>
      <point x="203" y="430"/>
      <point x="292" y="430" type="curve" smooth="yes"/>
      <point x="312" y="430"/>
      <point x="337" y="425"/>
      <point x="358" y="418" type="curve"/>
      <point x="358" y="67" type="line"/>
      <point x="337" y="61"/>
      <point x="312" y="55"/>
    </contour>
    <contour>
      <point x="417" y="509" type="move" name="aboveLC"/>
    </contour>
    <contour>
      <point x="432" y="-22" type="move" name="belowLC"/>
    </contour>
  </outline>
</glyph>
<glyph name="Ohorn" format="1">
  <advance width="664"/>
  <outline>
    <contour>
      <point x="335" y="678" type="move" name="aboveUC"/>
    </contour>
    <contour>
      <point x="331" y="-22" type="move" name="belowLC"/>
    </contour>
    <contour>
      <point x="510" y="602" type="line"/>
      <point x="579" y="620"/>
      <point x="620" y="658"/>
      <point x="620" y="725" type="curve" smooth="yes"/>
      <point x="620" y="755"/>
      <point x="610" y="783"/>
      <point x="597" y="805" type="curve"/>
      <point x="532" y="777" type="line"/>
      <point x="540" y="761"/>
      <point x="546" y="739"/>
      <point x="546" y="719" type="curve" smooth="yes"/>
      <point x="546" y="672"/>
      <point x="519" y="647"/>
      <point x="462" y="636" type="curve"/>
    </contour>
    <component base="O" xOffset="3"/>
  </outline>
</glyph>
<glyph name="Ohorn.sc" format="1">
  <advance width="589"/>
  <outline>
    <contour>
      <point x="294" y="563" type="move" name="aboveUC"/>
    </contour>
    <contour>
      <point x="294" y="0" type="move" name="ogonekUC"/>
    </contour>
    <contour>
      <point x="295" y="-22" type="move" name="belowLC"/>
    </contour>
    <component base="O.sc"/>
    <component base="horncmb" xOffset="409" yOffset="32"/>
  </outline>
</glyph>
<glyph name="Oogonek" format="1">
  <advance width="664"/>
  <outline>
    <contour>
      <point x="331" y="678" type="move" name="aboveUC"/>
    </contour>
    <contour>
      <point x="361" y="-212" type="curve" smooth="yes"/>
      <point x="388" y="-212"/>
      <point x="422" y="-199"/>
      <point x="441" y="-184" type="curve"/>
      <point x="418" y="-139" type="line"/>
      <point x="406" y="-148"/>
      <point x="394" y="-153"/>
      <point x="378" y="-153" type="curve" smooth="yes"/>
      <point x="354" y="-153"/>
      <point x="330" y="-138"/>
      <point x="330" y="-107" type="curve" smooth="yes"/>
      <point x="330" y="-73"/>
      <point x="354" y="-31"/>
      <point x="408" y="-7" type="curve" smooth="yes"/>
      <point x="539" y="53"/>
      <point x="613" y="152"/>
      <point x="613" y="331" type="curve" smooth="yes"/>
      <point x="613" y="540"/>
      <point x="497" y="668"/>
      <point x="332" y="668" type="curve" smooth="yes"/>
      <point x="167" y="668"/>
      <point x="52" y="541"/>
      <point x="52" y="331" type="curve" smooth="yes"/>
      <point x="52" y="126"/>
      <point x="158" y="-7"/>
      <point x="327" y="-11" type="curve"/>
      <point x="292" y="-40"/>
      <point x="266" y="-81"/>
      <point x="266" y="-125" type="curve" smooth="yes"/>
      <point x="266" y="-182"/>
      <point x="308" y="-212"/>
    </contour>
    <contour>
      <point x="332" y="61" type="curve" smooth="yes"/>
      <point x="215" y="61"/>
      <point x="138" y="167"/>
      <point x="138" y="331" type="curve" smooth="yes"/>
      <point x="138" y="494"/>
      <point x="215" y="595"/>
      <point x="332" y="595" type="curve" smooth="yes"/>
      <point x="449" y="595"/>
      <point x="526" y="494"/>
      <point x="526" y="331" type="curve" smooth="yes"/>
      <point x="526" y="167"/>
      <point x="449" y="61"/>
    </contour>
  </outline>
</glyph>
<glyph name="Oogonek.sc" format="1">
  <advance width="589"/>
  <outline>
    <contour>
      <point x="295" y="563" type="move" name="aboveUC"/>
    </contour>
    <contour>
      <point x="324" y="-212" type="curve" smooth="yes"/>
      <point x="351" y="-212"/>
      <point x="385" y="-199"/>
      <point x="404" y="-184" type="curve"/>
      <point x="381" y="-139" type="line"/>
      <point x="369" y="-148"/>
      <point x="357" y="-153"/>
      <point x="341" y="-153" type="curve" smooth="yes"/>
      <point x="317" y="-153"/>
      <point x="293" y="-138"/>
      <point x="293" y="-107" type="curve" smooth="yes"/>
      <point x="293" y="-73"/>
      <point x="317" y="-31"/>
      <point x="371" y="-7" type="curve"/>
      <point x="478" y="39"/>
      <point x="538" y="121"/>
      <point x="538" y="261" type="curve"/>
      <point x="538" y="429"/>
      <point x="437" y="530"/>
      <point x="295" y="530" type="curve" smooth="yes"/>
      <point x="152" y="530"/>
      <point x="52" y="429"/>
      <point x="52" y="261" type="curve"/>
      <point x="52" y="96"/>
      <point x="143" y="-7"/>
      <point x="290" y="-11" type="curve"/>
      <point x="255" y="-40"/>
      <point x="229" y="-81"/>
      <point x="229" y="-125" type="curve" smooth="yes"/>
      <point x="229" y="-182"/>
      <point x="271" y="-212"/>
    </contour>
    <contour>
      <point x="295" y="58" type="curve" smooth="yes"/>
      <point x="199" y="58"/>
      <point x="138" y="136"/>
      <point x="138" y="261" type="curve" smooth="yes"/>
      <point x="138" y="385"/>
      <point x="199" y="460"/>
      <point x="295" y="460" type="curve" smooth="yes"/>
      <point x="390" y="460"/>
      <point x="452" y="385"/>
      <point x="452" y="261" type="curve" smooth="yes"/>
      <point x="452" y="136"/>
      <point x="390" y="58"/>
    </contour>
  </outline>
</glyph>
<glyph name="Oslash" format="1">
  <advance width="664"/>
  <outline>
    <contour>
      <point x="335" y="678" type="move" name="aboveUC"/>
    </contour>
    <contour>
      <point x="96" y="-30" type="line"/>
      <point x="619" y="651" type="line"/>
      <point x="573" y="686" type="line"/>
      <point x="50" y="6" type="line"/>
    </contour>
    <component base="O" xOffset="3"/>
  </outline>
</glyph>
<glyph name="Oslash.sc" format="1">
  <advance width="589"/>
  <outline>
    <contour>
      <point x="295" y="-12" type="curve" smooth="yes"/>
      <point x="437" y="-12"/>
      <point x="538" y="92"/>
      <point x="538" y="261" type="curve" smooth="yes"/>
      <point x="538" y="429"/>
      <point x="437" y="530"/>
      <point x="295" y="530" type="curve" smooth="yes"/>
      <point x="152" y="530"/>
      <point x="52" y="429"/>
      <point x="52" y="261" type="curve" smooth="yes"/>
      <point x="52" y="92"/>
      <point x="152" y="-12"/>
    </contour>
    <contour>
      <point x="295" y="55" type="curve" smooth="yes"/>
      <point x="197" y="55"/>
      <point x="134" y="134"/>
      <point x="134" y="261" type="curve" smooth="yes"/>
      <point x="134" y="387"/>
      <point x="197" y="463"/>
      <point x="295" y="463" type="curve" smooth="yes"/>
      <point x="392" y="463"/>
      <point x="455" y="387"/>
      <point x="455" y="261" type="curve" smooth="yes"/>
      <point x="455" y="134"/>
      <point x="392" y="55"/>
    </contour>
    <contour>
      <point x="83" y="-23" type="line"/>
      <point x="543" y="513" type="line"/>
      <point x="506" y="542" type="line"/>
      <point x="47" y="6" type="line"/>
    </contour>
  </outline>
</glyph>
<glyph name="Obarcyr" format="1">
  <advance width="664"/>
  <outline>
    <contour>
      <point x="332" y="678" type="move" name="aboveUC"/>
    </contour>
    <component base="Fita"/>
  </outline>
</glyph>
<glyph name="Omega.sc" format="1">
  <advance width="592"/>
  <outline>
    <contour>
      <point x="44" y="0" type="line"/>
      <point x="247" y="0" type="line"/>
      <point x="247" y="59" type="line"/>
      <point x="185" y="106"/>
      <point x="140" y="172"/>
      <point x="140" y="272" type="curve" smooth="yes"/>
      <point x="140" y="377"/>
      <point x="198" y="459"/>
      <point x="296" y="459" type="curve" smooth="yes"/>
      <point x="395" y="459"/>
      <point x="452" y="377"/>
      <point x="452" y="272" type="curve" smooth="yes"/>
      <point x="452" y="172"/>
      <point x="407" y="106"/>
      <point x="344" y="59" type="curve"/>
      <point x="344" y="0" type="line"/>
      <point x="549" y="0" type="line"/>
      <point x="549" y="66" type="line"/>
      <point x="441" y="66" type="line"/>
      <point x="441" y="69" type="line"/>
      <point x="487" y="110"/>
      <point x="537" y="180"/>
      <point x="537" y="278" type="curve" smooth="yes"/>
      <point x="537" y="423"/>
      <point x="442" y="530"/>
      <point x="296" y="530" type="curve" smooth="yes"/>
      <point x="151" y="530"/>
      <point x="55" y="423"/>
      <point x="55" y="278" type="curve" smooth="yes"/>
      <point x="55" y="180"/>
      <point x="106" y="110"/>
      <point x="152" y="69" type="curve"/>
      <point x="152" y="66" type="line"/>
      <point x="44" y="66" type="line"/>
    </contour>
  </outline>
</glyph>
<glyph name="P" format="1">
  <advance width="566"/>
  <outline>
    <contour>
      <point x="303" y="678" type="move" name="aboveUC"/>
    </contour>
    <contour>
      <point x="137" y="-22" type="move" name="belowLC"/>
    </contour>
    <contour>
      <point x="90" y="0" type="line"/>
      <point x="173" y="0" type="line"/>
      <point x="173" y="260" type="line"/>
      <point x="281" y="260" type="line" smooth="yes"/>
      <point x="425" y="260"/>
      <point x="523" y="325"/>
      <point x="523" y="463" type="curve" smooth="yes"/>
      <point x="523" y="607"/>
      <point x="424" y="656"/>
      <point x="277" y="656" type="curve" smooth="yes"/>
      <point x="90" y="656" type="line"/>
    </contour>
    <contour>
      <point x="173" y="328" type="line"/>
      <point x="173" y="589" type="line"/>
      <point x="267" y="589" type="line" smooth="yes"/>
      <point x="382" y="589"/>
      <point x="440" y="558"/>
      <point x="440" y="463" type="curve" smooth="yes"/>
      <point x="440" y="370"/>
      <point x="385" y="328"/>
      <point x="271" y="328" type="curve" smooth="yes"/>
    </contour>
  </outline>
</glyph>
<glyph name="P.sups" format="1">
  <advance width="385"/>
  <outline>
    <contour>
      <point x="57" y="266" type="line"/>
      <point x="120" y="266" type="line"/>
      <point x="120" y="434" type="line"/>
      <point x="196" y="434" type="line" smooth="yes"/>
      <point x="291" y="434"/>
      <point x="359" y="477"/>
      <point x="359" y="570" type="curve" smooth="yes"/>
      <point x="359" y="665"/>
      <point x="293" y="698"/>
      <point x="196" y="698" type="curve" smooth="yes"/>
      <point x="57" y="698" type="line"/>
    </contour>
    <contour>
      <point x="120" y="484" type="line"/>
      <point x="120" y="648" type="line"/>
      <point x="189" y="648" type="line" smooth="yes"/>
      <point x="261" y="648"/>
      <point x="297" y="629"/>
      <point x="297" y="570" type="curve" smooth="yes"/>
      <point x="297" y="511"/>
      <point x="262" y="484"/>
      <point x="189" y="484" type="curve" smooth="yes"/>
    </contour>
  </outline>
</glyph>
<glyph name="P.sc" format="1">
  <advance width="518"/>
  <outline>
    <contour>
      <point x="286" y="563" type="move" name="aboveUC"/>
    </contour>
    <contour>
      <point x="137" y="-22" type="move" name="belowLC"/>
    </contour>
    <contour>
      <point x="90" y="0" type="line"/>
      <point x="173" y="0" type="line"/>
      <point x="173" y="196" type="line"/>
      <point x="267" y="196" type="line" smooth="yes"/>
      <point x="389" y="196"/>
      <point x="476" y="248"/>
      <point x="476" y="361" type="curve" smooth="yes"/>
      <point x="476" y="478"/>
      <point x="390" y="518"/>
      <point x="267" y="518" type="curve" smooth="yes"/>
      <point x="90" y="518" type="line"/>
    </contour>
    <contour>
      <point x="173" y="256" type="line"/>
      <point x="173" y="452" type="line"/>
      <point x="259" y="452" type="line" smooth="yes"/>
      <point x="351" y="452"/>
      <point x="395" y="427"/>
      <point x="395" y="357" type="curve" smooth="yes"/>
      <point x="395" y="289"/>
      <point x="353" y="256"/>
      <point x="261" y="256" type="curve" smooth="yes"/>
    </contour>
  </outline>
</glyph>
<glyph name="Phi" format="1">
  <advance width="719"/>
  <outline>
    <contour>
      <point x="343" y="71" type="curve" smooth="yes"/>
      <point x="376" y="71" type="line"/>
      <point x="553" y="71"/>
      <point x="671" y="169"/>
      <point x="671" y="331" type="curve" smooth="yes"/>
      <point x="671" y="492"/>
      <point x="553" y="586"/>
      <point x="376" y="586" type="curve" smooth="yes"/>
      <point x="343" y="586" type="line" smooth="yes"/>
      <point x="166" y="586"/>
      <point x="48" y="492"/>
      <point x="48" y="331" type="curve" smooth="yes"/>
      <point x="48" y="169"/>
      <point x="166" y="71"/>
    </contour>
    <contour>
      <point x="339" y="136" type="line"/>
      <point x="211" y="136"/>
      <point x="129" y="214"/>
      <point x="129" y="331" type="curve" smooth="yes"/>
      <point x="129" y="447"/>
      <point x="211" y="521"/>
      <point x="339" y="521" type="curve" smooth="yes"/>
      <point x="380" y="521" type="line" smooth="yes"/>
      <point x="508" y="521"/>
      <point x="590" y="447"/>
      <point x="590" y="331" type="curve" smooth="yes"/>
      <point x="590" y="214"/>
      <point x="508" y="136"/>
      <point x="380" y="136" type="curve" smooth="yes"/>
    </contour>
    <contour>
      <point x="322" y="-22" type="line"/>
      <point x="397" y="-22" type="line"/>
      <point x="397" y="678" type="line"/>
      <point x="322" y="678" type="line"/>
    </contour>
  </outline>
</glyph>
<glyph name="Pi" format="1">
  <advance width="645"/>
  <outline>
    <contour>
      <point x="90" y="0" type="line"/>
      <point x="173" y="0" type="line"/>
      <point x="173" y="586" type="line"/>
      <point x="472" y="586" type="line"/>
      <point x="472" y="0" type="line"/>
      <point x="555" y="0" type="line"/>
      <point x="555" y="656" type="line"/>
      <point x="90" y="656" type="line"/>
    </contour>
  </outline>
</glyph>
<glyph name="Pi.sc" format="1">
  <advance width="588"/>
  <outline>
    <contour>
      <point x="90" y="0" type="line"/>
      <point x="173" y="0" type="line"/>
      <point x="173" y="448" type="line"/>
      <point x="415" y="448" type="line"/>
      <point x="415" y="0" type="line"/>
      <point x="498" y="0" type="line"/>
      <point x="498" y="518" type="line"/>
      <point x="90" y="518" type="line"/>
    </contour>
  </outline>
</glyph>
<glyph name="Psi.sc" format="1">
  <advance width="625"/>
  <outline>
    <contour>
      <point x="274" y="0" type="line"/>
      <point x="351" y="0" type="line"/>
      <point x="351" y="518" type="line"/>
      <point x="274" y="518" type="line"/>
    </contour>
    <contour>
      <point x="296" y="187" type="curve" smooth="yes"/>
      <point x="329" y="187" type="line" smooth="yes"/>
      <point x="475" y="187"/>
      <point x="562" y="246"/>
      <point x="562" y="389" type="curve" smooth="yes"/>
      <point x="562" y="518" type="line"/>
      <point x="482" y="518" type="line"/>
      <point x="482" y="394" type="line" smooth="yes"/>
      <point x="482" y="291"/>
      <point x="431" y="251"/>
      <point x="333" y="251" type="curve" smooth="yes"/>
      <point x="292" y="251" type="line" smooth="yes"/>
      <point x="194" y="251"/>
      <point x="143" y="291"/>
      <point x="143" y="394" type="curve" smooth="yes"/>
      <point x="143" y="518" type="line"/>
      <point x="63" y="518" type="line"/>
      <point x="63" y="389" type="line" smooth="yes"/>
      <point x="63" y="246"/>
      <point x="150" y="187"/>
    </contour>
  </outline>
</glyph>
<glyph name="Phi.sc" format="1">
  <advance width="655"/>
  <outline>
    <contour>
      <point x="310" y="53" type="curve" smooth="yes"/>
      <point x="345" y="53" type="line"/>
      <point x="503" y="53"/>
      <point x="607" y="131"/>
      <point x="607" y="260" type="curve" smooth="yes"/>
      <point x="607" y="390"/>
      <point x="503" y="464"/>
      <point x="345" y="464" type="curve" smooth="yes"/>
      <point x="310" y="464" type="line" smooth="yes"/>
      <point x="153" y="464"/>
      <point x="48" y="390"/>
      <point x="48" y="260" type="curve" smooth="yes"/>
      <point x="48" y="131"/>
      <point x="153" y="53"/>
    </contour>
    <contour>
      <point x="307" y="118" type="line"/>
      <point x="198" y="118"/>
      <point x="130" y="174"/>
      <point x="130" y="260" type="curve" smooth="yes"/>
      <point x="130" y="347"/>
      <point x="198" y="399"/>
      <point x="307" y="399" type="curve" smooth="yes"/>
      <point x="349" y="399" type="line" smooth="yes"/>
      <point x="458" y="399"/>
      <point x="526" y="347"/>
      <point x="526" y="260" type="curve" smooth="yes"/>
      <point x="526" y="174"/>
      <point x="458" y="118"/>
      <point x="349" y="118" type="curve" smooth="yes"/>
    </contour>
    <contour>
      <point x="289" y="-18" type="line"/>
      <point x="366" y="-18" type="line"/>
      <point x="366" y="536" type="line"/>
      <point x="289" y="536" type="line"/>
    </contour>
  </outline>
</glyph>
<glyph name="Psi" format="1">
  <advance width="699"/>
  <outline>
    <contour>
      <point x="331" y="245" type="curve" smooth="yes"/>
      <point x="368" y="245" type="line" smooth="yes"/>
      <point x="535" y="245"/>
      <point x="636" y="320"/>
      <point x="636" y="495" type="curve" smooth="yes"/>
      <point x="636" y="656" type="line"/>
      <point x="553" y="656" type="line"/>
      <point x="553" y="499" type="line" smooth="yes"/>
      <point x="553" y="367"/>
      <point x="492" y="312"/>
      <point x="372" y="312" type="curve" smooth="yes"/>
      <point x="327" y="312" type="line" smooth="yes"/>
      <point x="207" y="312"/>
      <point x="145" y="367"/>
      <point x="145" y="499" type="curve" smooth="yes"/>
      <point x="145" y="656" type="line"/>
      <point x="63" y="656" type="line"/>
      <point x="63" y="495" type="line" smooth="yes"/>
      <point x="63" y="320"/>
      <point x="163" y="245"/>
    </contour>
    <contour>
      <point x="310" y="0" type="line"/>
      <point x="389" y="0" type="line"/>
      <point x="389" y="656" type="line"/>
      <point x="310" y="656" type="line"/>
    </contour>
  </outline>
</glyph>
<glyph name="Q" format="1">
  <advance width="664"/>
  <outline>
    <contour>
      <point x="332" y="678" type="move" name="aboveUC"/>
    </contour>
    <contour>
      <point x="332" y="-12" type="curve" smooth="yes"/>
      <point x="497" y="-12"/>
      <point x="613" y="120"/>
      <point x="613" y="331" type="curve" smooth="yes"/>
      <point x="613" y="540"/>
      <point x="497" y="668"/>
      <point x="332" y="668" type="curve" smooth="yes"/>
      <point x="167" y="668"/>
      <point x="52" y="541"/>
      <point x="52" y="331" type="curve" smooth="yes"/>
      <point x="52" y="120"/>
      <point x="167" y="-12"/>
    </contour>
    <contour>
      <point x="332" y="57" type="curve" smooth="yes"/>
      <point x="215" y="57"/>
      <point x="138" y="163"/>
      <point x="138" y="331" type="curve" smooth="yes"/>
      <point x="138" y="494"/>
      <point x="215" y="595"/>
      <point x="332" y="595" type="curve" smooth="yes"/>
      <point x="449" y="595"/>
      <point x="526" y="494"/>
      <point x="526" y="331" type="curve" smooth="yes"/>
      <point x="526" y="163"/>
      <point x="449" y="57"/>
    </contour>
    <contour>
      <point x="533" y="-165" type="curve" smooth="yes"/>
      <point x="572" y="-165"/>
      <point x="607" y="-158"/>
      <point x="627" y="-150" type="curve"/>
      <point x="611" y="-86" type="line"/>
      <point x="593" y="-91"/>
      <point x="571" y="-95"/>
      <point x="542" y="-95" type="curve" smooth="yes"/>
      <point x="464" y="-95"/>
      <point x="400" y="-61"/>
      <point x="374" y="9" type="curve"/>
      <point x="287" y="2" type="line"/>
      <point x="322" y="-93"/>
      <point x="407" y="-165"/>
    </contour>
  </outline>
</glyph>
<glyph name="Q.sups" format="1">
  <advance width="443"/>
  <outline>
    <contour>
      <point x="220" y="258" type="curve" smooth="yes"/>
      <point x="332" y="258"/>
      <point x="410" y="345"/>
      <point x="410" y="485" type="curve" smooth="yes"/>
      <point x="410" y="622"/>
      <point x="332" y="706"/>
      <point x="220" y="706" type="curve" smooth="yes"/>
      <point x="109" y="706"/>
      <point x="31" y="623"/>
      <point x="31" y="485" type="curve" smooth="yes"/>
      <point x="31" y="345"/>
      <point x="109" y="258"/>
    </contour>
    <contour>
      <point x="220" y="311" type="curve" smooth="yes"/>
      <point x="145" y="311"/>
      <point x="96" y="379"/>
      <point x="96" y="485" type="curve" smooth="yes"/>
      <point x="96" y="588"/>
      <point x="145" y="653"/>
      <point x="220" y="653" type="curve" smooth="yes"/>
      <point x="296" y="653"/>
      <point x="345" y="588"/>
      <point x="345" y="485" type="curve" smooth="yes"/>
      <point x="345" y="379"/>
      <point x="296" y="311"/>
    </contour>
    <contour>
      <point x="356" y="158" type="curve" smooth="yes"/>
      <point x="384" y="158"/>
      <point x="408" y="163"/>
      <point x="421" y="168" type="curve"/>
      <point x="409" y="215" type="line"/>
      <point x="397" y="212"/>
      <point x="383" y="209"/>
      <point x="363" y="209" type="curve" smooth="yes"/>
      <point x="312" y="209"/>
      <point x="270" y="228"/>
      <point x="252" y="273" type="curve"/>
      <point x="188" y="268" type="line"/>
      <point x="212" y="204"/>
      <point x="270" y="158"/>
    </contour>
  </outline>
</glyph>
<glyph name="R.sups" format="1">
  <advance width="389"/>
  <outline>
    <contour>
      <point x="57" y="266" type="line"/>
      <point x="120" y="266" type="line"/>
      <point x="120" y="445" type="line"/>
      <point x="198" y="445" type="line" smooth="yes"/>
      <point x="287" y="445"/>
      <point x="353" y="488"/>
      <point x="353" y="576" type="curve" smooth="yes"/>
      <point x="353" y="666"/>
      <point x="287" y="698"/>
      <point x="198" y="698" type="curve" smooth="yes"/>
      <point x="57" y="698" type="line"/>
    </contour>
    <contour>
      <point x="120" y="495" type="line"/>
      <point x="120" y="648" type="line"/>
      <point x="190" y="648" type="line" smooth="yes"/>
      <point x="256" y="648"/>
      <point x="291" y="628"/>
      <point x="291" y="574" type="curve" smooth="yes"/>
      <point x="291" y="521"/>
      <point x="256" y="495"/>
      <point x="190" y="495" type="curve" smooth="yes"/>
    </contour>
    <contour>
      <point x="297" y="266" type="line"/>
      <point x="368" y="266" type="line"/>
      <point x="233" y="496" type="line"/>
      <point x="186" y="462" type="line"/>
    </contour>
  </outline>
</glyph>
<glyph name="Rho.sc" format="1">
  <advance width="518"/>
  <outline>
    <contour>
      <point x="286" y="563" type="move" name="aboveLC"/>
    </contour>
    <contour>
      <point x="137" y="-22" type="move" name="belowLC"/>
    </contour>
    <component base="P.sc"/>
  </outline>
</glyph>
<glyph name="Rsmall" format="1">
  <advance width="495"/>
  <outline>
    <contour>
      <point x="257" y="509" type="move" name="aboveUC"/>
    </contour>
    <contour>
      <point x="278" y="-22" type="move" name="belowLC"/>
    </contour>
    <contour>
      <point x="82" y="0" type="line"/>
      <point x="164" y="0" type="line"/>
      <point x="164" y="192" type="line"/>
      <point x="258" y="192" type="line"/>
      <point x="349" y="192"/>
      <point x="438" y="235"/>
      <point x="438" y="342" type="curve" smooth="yes"/>
      <point x="438" y="449"/>
      <point x="359" y="486"/>
      <point x="254" y="486" type="curve" smooth="yes"/>
      <point x="82" y="486" type="line"/>
    </contour>
    <contour>
      <point x="164" y="252" type="line"/>
      <point x="164" y="422" type="line"/>
      <point x="240" y="422" type="line" smooth="yes"/>
      <point x="313" y="422"/>
      <point x="356" y="397"/>
      <point x="356" y="340" type="curve" smooth="yes"/>
      <point x="356" y="283"/>
      <point x="313" y="252"/>
      <point x="240" y="252" type="curve" smooth="yes"/>
    </contour>
    <contour>
      <point x="372" y="0" type="line"/>
      <point x="463" y="0" type="line"/>
      <point x="311" y="234" type="line"/>
      <point x="244" y="210" type="line"/>
    </contour>
  </outline>
</glyph>
<glyph name="Rsmallinverted" format="1">
  <advance width="495"/>
  <outline>
    <contour>
      <point x="241" y="0" type="curve" smooth="yes"/>
      <point x="413" y="0" type="line"/>
      <point x="413" y="486" type="line"/>
      <point x="331" y="486" type="line"/>
      <point x="331" y="297" type="line"/>
      <point x="237" y="297" type="line"/>
      <point x="146" y="297"/>
      <point x="57" y="253"/>
      <point x="57" y="145" type="curve" smooth="yes"/>
      <point x="57" y="38"/>
      <point x="136" y="0"/>
    </contour>
    <contour>
      <point x="255" y="64" type="line"/>
      <point x="183" y="64"/>
      <point x="140" y="90"/>
      <point x="140" y="147" type="curve" smooth="yes"/>
      <point x="140" y="204"/>
      <point x="183" y="237"/>
      <point x="255" y="237" type="curve" smooth="yes"/>
      <point x="331" y="237" type="line"/>
      <point x="331" y="64" type="line"/>
    </contour>
    <contour>
      <point x="184" y="254" type="line"/>
      <point x="251" y="279" type="line"/>
      <point x="124" y="486" type="line"/>
      <point x="32" y="486" type="line"/>
    </contour>
  </outline>
</glyph>
<glyph name="S" format="1">
  <advance width="534"/>
  <outline>
    <contour>
      <point x="278" y="678" type="move" name="aboveUC"/>
    </contour>
    <contour>
      <point x="273" y="0" type="move" name="baseLC"/>
    </contour>
    <contour>
      <point x="273" y="-22" type="move" name="belowLC"/>
    </contour>
    <contour>
      <point x="272" y="-12" type="curve" smooth="yes"/>
      <point x="410" y="-12"/>
      <point x="495" y="71"/>
      <point x="495" y="175" type="curve" smooth="yes"/>
      <point x="495" y="272"/>
      <point x="436" y="317"/>
      <point x="360" y="350" type="curve" smooth="yes"/>
      <point x="267" y="390" type="line" smooth="yes"/>
      <point x="215" y="412"/>
      <point x="158" y="436"/>
      <point x="158" y="499" type="curve" smooth="yes"/>
      <point x="158" y="558"/>
      <point x="207" y="595"/>
      <point x="280" y="595" type="curve" smooth="yes"/>
      <point x="341" y="595"/>
      <point x="389" y="571"/>
      <point x="429" y="533" type="curve"/>
      <point x="474" y="587" type="line"/>
      <point x="427" y="635"/>
      <point x="358" y="668"/>
      <point x="280" y="668" type="curve" smooth="yes"/>
      <point x="161" y="668"/>
      <point x="74" y="594"/>
      <point x="74" y="494" type="curve" smooth="yes"/>
      <point x="74" y="398"/>
      <point x="145" y="351"/>
      <point x="207" y="325" type="curve" smooth="yes"/>
      <point x="301" y="284" type="line" smooth="yes"/>
      <point x="363" y="256"/>
      <point x="410" y="235"/>
      <point x="410" y="168" type="curve" smooth="yes"/>
      <point x="410" y="104"/>
      <point x="359" y="61"/>
      <point x="273" y="61" type="curve" smooth="yes"/>
      <point x="205" y="61"/>
      <point x="139" y="94"/>
      <point x="92" y="143" type="curve"/>
      <point x="42" y="85" type="line"/>
      <point x="99" y="26"/>
      <point x="180" y="-12"/>
    </contour>
  </outline>
</glyph>
